<svg xmlns="http://www.w3.org/2000/svg" width="46" height="46" viewBox="0 0 46 46"><defs><style>.cls-1{fill:#cfcfcf;fill-rule:evenodd}</style></defs><path id="Forma_1" data-name="Forma 1" class="cls-1" d="M1065 1004a23 23 0 1 0 23 23 23.029 23.029 0 0 0-23-23zm0 42.44a19.44 19.44 0 1 1 19.44-19.44 19.461 19.461 0 0 1-19.44 19.44zm8.91-21.38h-7.13v-7.13a1.78 1.78 0 1 0-3.56 0v7.13h-7.13a1.78 1.78 0 0 0 0 3.56h7.13v7.13a1.78 1.78 0 0 0 3.56 0v-7.13h7.13a1.78 1.78 0 0 0 0-3.56z" transform="translate(-1042 -1004)"/></svg>