<svg xmlns="http://www.w3.org/2000/svg" width="13.687" height="17.281" viewBox="0 0 13.687 17.281"><defs><style>.cls-1{fill:#15269c;fill-rule:evenodd}</style></defs><path id="Forma_1" data-name="Forma 1" class="cls-1" d="M414.741 586.026a6.551 6.551 0 0 1-6.581 6.5h-2.33a.7.7 0 0 1-.7-.691v-.23a.7.7 0 0 1 .7-.691h2.33a4.892 4.892 0 1 0 0-9.783h-4.3l2.96 2.925a.8.8 0 0 1 0 1.139.842.842 0 0 1-1.153 0l-4.352-4.3a.8.8 0 0 1 0-1.139l4.352-4.3a.843.843 0 0 1 1.153 0 .8.8 0 0 1 0 1.14l-2.96 2.925h4.3a6.55 6.55 0 0 1 6.581 6.505z" transform="translate(-401.063 -575.25)"/></svg>