<svg xmlns="http://www.w3.org/2000/svg" width="18.5" height="18.5" viewBox="0 0 18.5 18.5"><defs><style>.cls-1{fill:#fff;fill-rule:evenodd}</style></defs><path id="Forma_1" data-name="Forma 1" class="cls-1" d="M540.75 519.5c-5.108 0-9.249 3.623-9.249 8.093a7.747 7.747 0 0 0 3.468 6.311V538l4.052-2.459a10.54 10.54 0 0 0 1.729.147c5.108 0 9.248-3.623 9.248-8.092s-4.14-8.096-9.248-8.096zm0 15.029a9.389 9.389 0 0 1-1.954-.212l-2.721 1.635.036-2.68a6.7 6.7 0 0 1-3.454-5.679c0-3.831 3.623-6.937 8.093-6.937s8.092 3.106 8.092 6.937-3.623 6.937-8.092 6.937z" transform="translate(-531.5 -519.5)"/></svg>