<svg xmlns="http://www.w3.org/2000/svg" width="18.5" height="18.5" viewBox="0 0 18.5 18.5"><defs><style>.cls-1{fill:#161616;fill-rule:evenodd}</style></defs><path id="Forma_1" data-name="Forma 1" class="cls-1" d="M504.75 609.5c-5.108 0-9.249 3.623-9.249 8.092a7.747 7.747 0 0 0 3.468 6.312V628l4.052-2.458a10.661 10.661 0 0 0 1.729.146c5.108 0 9.248-3.623 9.248-8.093s-4.14-8.095-9.248-8.095zm0 15.029a9.389 9.389 0 0 1-1.954-.212l-2.721 1.635.036-2.68a6.7 6.7 0 0 1-3.454-5.68c0-3.83 3.623-6.936 8.093-6.936s8.092 3.106 8.092 6.936-3.623 6.938-8.092 6.938z" transform="translate(-495.5 -609.5)"/></svg>