<svg xmlns="http://www.w3.org/2000/svg" width="17.5" height="17.5" viewBox="0 0 17.5 17.5">
    <defs>
        <style>
            .cls-1{fill:#f4f4f6;fill-rule:evenodd}
        </style>
    </defs>
    <path id="Forma_1" d="M490.79 409a8.75 8.75 0 1 0 8.75 8.75 8.76 8.76 0 0 0-8.75-8.75zm3.539 11.258a.365.365 0 0 1 0 .515l-.515.516a.366.366 0 0 1-.516 0l-2.508-2.508-2.508 2.508a.366.366 0 0 1-.516 0l-.515-.516a.365.365 0 0 1 0-.515l2.508-2.508-2.508-2.508a.366.366 0 0 1 0-.516l.515-.515a.364.364 0 0 1 .516 0l2.508 2.508 2.508-2.508a.364.364 0 0 1 .516 0l.515.515a.366.366 0 0 1 0 .516l-2.508 2.508z" class="cls-1" data-name="Forma 1" transform="translate(-482.031 -409)"/>
</svg>
