<svg xmlns="http://www.w3.org/2000/svg" width="20.5" height="15.594" viewBox="0 0 20.5 15.594"><defs><style>.cls-1{fill:#fff;fill-rule:evenodd}</style></defs><path id="Forma_1" data-name="Forma 1" class="cls-1" d="M1397.63 46.346h-16.88a1.8 1.8 0 0 0-1.8 1.8v12a1.8 1.8 0 0 0 1.8 1.8h16.88a1.8 1.8 0 0 0 1.8-1.8v-12a1.8 1.8 0 0 0-1.8-1.8zm-.25 1.2l-8.15 8.156-8.23-8.156h16.38zM1380.15 59.9V48.389l5.78 5.731zm.84.849l5.79-5.785 2.03 2.01a.592.592 0 0 0 .84 0l1.98-1.974 5.75 5.753h-16.39zm17.24-.849l-5.75-5.753 5.75-5.753V59.9z" transform="translate(-1378.94 -46.344)"/></svg>