<svg xmlns="http://www.w3.org/2000/svg" width="18.12" height="17.38" viewBox="0 0 18.12 17.38"><defs><style>.cls-1{fill:#299bfd;fill-rule:evenodd}</style></defs><path id="Forma_1" data-name="Forma 1" class="cls-1" d="M1248.3 2572.86a1.878 1.878 0 0 0-1.88 1.88v6.05a1.886 1.886 0 0 0 1.88 1.89h2.27a1.884 1.884 0 0 0 1.13-.39v-9.43h-3.4zm16.23 2.83a1.67 1.67 0 0 0-.49-1.19 1.879 1.879 0 0 0 .48-1.44 1.958 1.958 0 0 0-1.97-1.72h-4.66a10.83 10.83 0 0 0 .6-3.02c0-1.64-1.39-3.02-2.26-3.02a2.33 2.33 0 0 0-1.37.46.375.375 0 0 0-.14.3v2.56l-2.18 4.71-.09.05v8.09a5.013 5.013 0 0 0 1.89.45h6.93a1.69 1.69 0 0 0 1.57-2.45 1.7 1.7 0 0 0 .93-1.52 1.752 1.752 0 0 0-.17-.75 1.707 1.707 0 0 0 .93-1.51z" transform="translate(-1246.41 -2565.31)"/></svg>