<svg xmlns="http://www.w3.org/2000/svg" width="19.656" height="12.562" viewBox="0 0 19.656 12.562"><defs><style>.cls-1{fill:#299bfd;fill-rule:evenodd}</style></defs><path id="Forma_1" data-name="Forma 1" class="cls-1" d="M429.514 879.181a1.424 1.424 0 0 0-.769-.767v-4.973a.851.851 0 0 0 .132-.329.594.594 0 0 0-.329-.526l-8.915-3.987a.511.511 0 0 0-.439 0l-8.914 3.987a.528.528 0 0 0-.33.526.5.5 0 0 0 .374.482l3.052 1.051v3.944a.547.547 0 0 0 .219.438.528.528 0 0 0 .5.066 15.224 15.224 0 0 1 10.6 0l.2.044a.527.527 0 0 0 .307-.11.5.5 0 0 0 .242-.438v-3.966l2.195-.722v4.513a1.424 1.424 0 1 0 1.875.767z" transform="translate(-409.938 -868.563)"/></svg>