<svg xmlns="http://www.w3.org/2000/svg" width="44.75" height="44.75" viewBox="0 0 44.75 44.75"><defs><style>.cls-1{fill:#299bfd;fill-rule:evenodd}</style></defs><path id="Stop" class="cls-1" d="M652.25 1528.5a22.375 22.375 0 1 0 22.375 22.37 22.4 22.4 0 0 0-22.375-22.37zm-1.865 30.77a.933.933 0 0 1-.932.93h-5.594a.933.933 0 0 1-.932-.93v-16.79a.933.933 0 0 1 .932-.93h5.594a.933.933 0 0 1 .932.93v16.79zm11.188 0a.933.933 0 0 1-.933.93h-5.593a.933.933 0 0 1-.933-.93v-16.79a.933.933 0 0 1 .933-.93h5.593a.933.933 0 0 1 .933.93v16.79z" transform="translate(-629.875 -1528.5)"/></svg>