<svg xmlns="http://www.w3.org/2000/svg" width="25.25" height="22.311" viewBox="0 0 25.25 22.311"><defs><style>.cls-1{fill:#fff;fill-rule:evenodd}</style></defs><path id="Like" class="cls-1" d="M1487.46 987.912a6.358 6.358 0 0 0-10.15.73 8.316 8.316 0 0 0-.63 1.019 9.757 9.757 0 0 0-.63-1.019 6.367 6.367 0 0 0-10.16-.729 7.684 7.684 0 0 0-1.84 5.08 9.371 9.371 0 0 0 2.58 6.147 57.279 57.279 0 0 0 6.47 6.03c.97.83 1.98 1.7 3.06 2.64l.03.02a.7.7 0 0 0 .49.19.721.721 0 0 0 .49-.19l.03-.02c1.07-.94 2.08-1.81 3.06-2.64a57.086 57.086 0 0 0 6.46-6.03 9.336 9.336 0 0 0 2.59-6.147 7.645 7.645 0 0 0-1.85-5.081zm-8.16 16.138c-.84.71-1.71 1.45-2.62 2.25-.92-.8-1.78-1.54-2.63-2.25-5.13-4.374-8.52-7.261-8.52-11.057a6.167 6.167 0 0 1 1.47-4.1 4.887 4.887 0 0 1 7.84.608 8.768 8.768 0 0 1 1.14 2.25.726.726 0 0 0 .7.51.735.735 0 0 0 .7-.51 8.982 8.982 0 0 1 1.13-2.25 5.011 5.011 0 0 1 4.09-2.3 4.93 4.93 0 0 1 3.75 1.689 6.175 6.175 0 0 1 1.48 4.1c0 3.799-3.39 6.686-8.53 11.06z" transform="translate(-1464.06 -985.719)"/></svg>