<svg xmlns="http://www.w3.org/2000/svg" width="15.688" height="16.06" viewBox="0 0 15.688 16.06"><defs><style>.cls-1{fill:#fff;fill-rule:evenodd}</style></defs><path id="Forma_1" data-name="Forma 1" class="cls-1" d="M604.751 1917.31h-3.159v-1.34h-1.142v1.34h-5.938v-1.34h-1.142v1.34h-3.159a.556.556 0 0 0-.571.57v13.57a.565.565 0 0 0 .571.58h14.54a.564.564 0 0 0 .571-.58v-13.57a.568.568 0 0 0-.571-.57zm-11.209 11.78a1.12 1.12 0 1 1 1.122-1.12 1.109 1.109 0 0 1-1.122 1.12zm0-3.35a1.125 1.125 0 1 1 1.122-1.12 1.109 1.109 0 0 1-1.122 1.12zm3.939 3.35a1.12 1.12 0 1 1 1.123-1.12 1.122 1.122 0 0 1-1.123 1.12zm0-3.35a1.125 1.125 0 1 1 1.123-1.12 1.122 1.122 0 0 1-1.123 1.12zm3.94 3.35a1.12 1.12 0 1 1 1.122-1.12 1.109 1.109 0 0 1-1.122 1.12zm0-3.35a1.125 1.125 0 1 1 1.122-1.12 1.109 1.109 0 0 1-1.122 1.12zm2.759-5.27v.23h-13.4v-2.25h2.588v1.37h1.142v-1.37h5.938v1.37h1.142v-1.37h2.588v2.02z" transform="translate(-589.625 -1915.97)"/></svg>