<svg xmlns="http://www.w3.org/2000/svg" width="20.13" height="23.625" viewBox="0 0 20.13 23.625"><defs><style>.cls-1{fill:#fff;fill-rule:evenodd}</style></defs><path id="Иконка" class="cls-1" d="M1500.04 56.858h.15a4.5 4.5 0 0 0 3.45-1.493c1.89-2.125 1.57-5.767 1.54-6.114a5.005 5.005 0 0 0-2.37-4.44 5.47 5.47 0 0 0-2.64-.69h-.08a5.439 5.439 0 0 0-2.63.671 5.011 5.011 0 0 0-2.41 4.459c-.03.348-.34 3.989 1.54 6.114a4.5 4.5 0 0 0 3.45 1.493zm-3.68-7.485v-.039c.17-3.51 2.66-3.887 3.72-3.887h.06c1.33.03 3.57.568 3.72 3.887a.051.051 0 0 0 .01.039c0 .034.35 3.363-1.21 5.115a3.214 3.214 0 0 1-2.52 1.048h-.05a3.214 3.214 0 0 1-2.52-1.048c-1.55-1.742-1.21-5.088-1.21-5.115zm13.81 13.527v-.139c-.03-.97-.1-3.236-2.22-3.96a.264.264 0 0 0-.05-.014 14.051 14.051 0 0 1-4.06-1.85.661.661 0 0 0-.76 1.082 15.181 15.181 0 0 0 4.47 2.041c1.14.406 1.27 1.625 1.3 2.741a.488.488 0 0 0 .01.123 9.208 9.208 0 0 1-.11 1.512 19.536 19.536 0 0 1-17.26 0 8.247 8.247 0 0 1-.1-1.513V62.8c.04-1.117.16-2.335 1.3-2.741a15.3 15.3 0 0 0 4.47-2.041.661.661 0 0 0-.76-1.082 13.889 13.889 0 0 1-4.06 1.851l-.05.015c-2.12.729-2.19 3-2.21 3.96a.487.487 0 0 1-.01.122v.014a7.658 7.658 0 0 0 .25 2.218.668.668 0 0 0 .25.309 20.68 20.68 0 0 0 19.11 0 .632.632 0 0 0 .26-.309 7.823 7.823 0 0 0 .23-2.216z" transform="translate(-1490.06 -44.125)"/></svg>