<svg xmlns="http://www.w3.org/2000/svg" width="15.688" height="16.062" viewBox="0 0 15.688 16.062"><defs><style>.cls-1{fill:#299bfd;fill-rule:evenodd}</style></defs><path id="Forma_1" data-name="Forma 1" class="cls-1" d="M740.751 866.306h-3.159v-1.333h-1.142v1.333h-5.938v-1.333h-1.142v1.333h-3.159a.561.561 0 0 0-.571.571v13.578a.561.561 0 0 0 .571.571h14.54a.561.561 0 0 0 .571-.571v-13.578a.572.572 0 0 0-.571-.571zm-11.209 11.787a1.124 1.124 0 1 1 1.123-1.124 1.113 1.113 0 0 1-1.123 1.124zm0-3.352a1.124 1.124 0 1 1 1.123-1.123 1.113 1.113 0 0 1-1.123 1.123zm3.939 3.352a1.124 1.124 0 1 1 1.123-1.124 1.125 1.125 0 0 1-1.123 1.124zm0-3.352a1.124 1.124 0 1 1 1.123-1.123 1.125 1.125 0 0 1-1.123 1.123zm3.94 3.352a1.124 1.124 0 1 1 1.123-1.124 1.113 1.113 0 0 1-1.123 1.124zm0-3.352a1.124 1.124 0 1 1 1.123-1.123 1.113 1.113 0 0 1-1.123 1.123zm2.759-5.274v.233h-13.4v-2.247h2.588v1.371h1.142v-1.371h5.938v1.371h1.142v-1.371h2.588v2.019z" transform="translate(-725.625 -864.969)"/></svg>