<svg xmlns="http://www.w3.org/2000/svg" width="25.25" height="22.312" viewBox="0 0 25.25 22.312"><defs><style>.cls-1{fill:#fff;fill-rule:evenodd}</style></defs><path id="like_копия_2" data-name="like копия 2" class="cls-1" d="M896.463 416.912a6.363 6.363 0 0 0-10.156.731 9.614 9.614 0 0 0-.628 1.018 9.8 9.8 0 0 0-.629-1.018 6.363 6.363 0 0 0-10.156-.731 7.649 7.649 0 0 0-1.843 5.081 9.365 9.365 0 0 0 2.582 6.146 57.477 57.477 0 0 0 6.462 6.033c.977.833 1.988 1.693 3.064 2.634l.032.028a.741.741 0 0 0 .975 0l.032-.028c1.076-.941 2.087-1.8 3.064-2.634a57.384 57.384 0 0 0 6.462-6.033 9.365 9.365 0 0 0 2.582-6.146 7.649 7.649 0 0 0-1.843-5.081z" transform="translate(-873.063 -414.719)"/></svg>