<svg xmlns="http://www.w3.org/2000/svg" width="16.843" height="12.844" viewBox="0 0 16.843 12.844"><defs><style>.cls-1{fill:#1c1c1c;fill-rule:evenodd}</style></defs><path id="Forma_1_копия" data-name="Forma 1 копия" class="cls-1" d="M277.3 716.345h-13.876a1.482 1.482 0 0 0-1.48 1.48v9.867a1.482 1.482 0 0 0 1.48 1.48H277.3a1.482 1.482 0 0 0 1.48-1.48v-9.867a1.482 1.482 0 0 0-1.48-1.48zm-.2.987l-6.7 6.7-6.762-6.7H277.1zm-14.17 10.156v-9.463l4.752 4.711zm.7.7l4.755-4.755 1.666 1.652a.492.492 0 0 0 .7 0l1.625-1.625 4.729 4.729h-13.477zm14.169-.7l-4.73-4.729 4.73-4.73v9.459z" transform="translate(-261.938 -716.344)"/></svg>