<svg xmlns="http://www.w3.org/2000/svg" width="15.75" height="13.937" viewBox="0 0 15.75 13.937"><defs><style>.cls-1{fill:#161616;fill-rule:evenodd}</style></defs><path id="Like" class="cls-1" d="M276.675 747.088a3.975 3.975 0 0 0-6.342.456 5.979 5.979 0 0 0-.392.637 6.163 6.163 0 0 0-.393-.637 3.974 3.974 0 0 0-6.342-.455 4.774 4.774 0 0 0-1.151 3.172 5.846 5.846 0 0 0 1.613 3.838 35.831 35.831 0 0 0 4.035 3.768c.61.519 1.241 1.057 1.913 1.644l.02.018a.464.464 0 0 0 .609 0l.02-.018c.672-.587 1.3-1.125 1.914-1.644a35.919 35.919 0 0 0 4.035-3.768 5.845 5.845 0 0 0 1.612-3.838 4.778 4.778 0 0 0-1.151-3.173zm-5.1 10.076c-.526.448-1.067.909-1.638 1.4-.571-.5-1.113-.957-1.639-1.4-3.205-2.729-5.322-4.532-5.322-6.9a3.855 3.855 0 0 1 .919-2.562 3.051 3.051 0 0 1 4.895.379 5.476 5.476 0 0 1 .707 1.406.463.463 0 0 0 .879 0 5.476 5.476 0 0 1 .707-1.406 3.051 3.051 0 0 1 4.9-.379 3.856 3.856 0 0 1 .92 2.562c-.003 2.368-2.119 4.171-5.324 6.9z" transform="translate(-262.063 -745.719)"/></svg>