<svg xmlns="http://www.w3.org/2000/svg" width="22.906" height="14.969" viewBox="0 0 22.906 14.969"><defs><style>.cls-1{fill:#8b8b8b;fill-rule:evenodd}</style></defs><path id="Forma_1" data-name="Forma 1" class="cls-1" d="M836.063 825.992a12.587 12.587 0 0 0-11.419 7.286.488.488 0 0 0 0 .416 12.592 12.592 0 0 0 22.838 0 .5.5 0 0 0 0-.416 12.589 12.589 0 0 0-11.419-7.286zm0 12.665a5.17 5.17 0 1 1 5.168-5.17 5.17 5.17 0 0 1-5.168 5.17zm0-8.482a3.31 3.31 0 1 1-3.309 3.309 3.309 3.309 0 0 1 3.309-3.309z" transform="translate(-824.625 -826)"/></svg>