<svg id="Не_показывать_пароль" data-name="Не показывать пароль" xmlns="http://www.w3.org/2000/svg" width="22.906" height="24.875" viewBox="0 0 22.906 24.875"><defs><style>.cls-1,.cls-2{fill:#8b8b8b;fill-rule:evenodd}.cls-2{fill:#fff}</style></defs><path id="Forma_1" data-name="Forma 1" class="cls-1" d="M911.063 825.992a12.587 12.587 0 0 0-11.419 7.286.486.486 0 0 0 0 .415 12.591 12.591 0 0 0 22.838 0 .493.493 0 0 0 0-.415 12.589 12.589 0 0 0-11.419-7.286zm0 12.665a5.17 5.17 0 1 1 5.168-5.17 5.17 5.17 0 0 1-5.168 5.17zm0-8.482a3.31 3.31 0 1 1-3.309 3.309 3.309 3.309 0 0 1 3.309-3.309z" transform="translate(-899.625 -820.313)"/><g id="Группа_3" data-name="Группа 3"><path id="Фигура_53" data-name="Фигура 53" class="cls-1" d="M917.114 820.32l1.605 1.193-16.833 22.667-1.606-1.193z" transform="translate(-899.625 -820.313)"/><path id="Фигура_53_копия" data-name="Фигура 53 копия" class="cls-2" d="M919.114 821.32l1.605 1.193-16.833 22.666-1.606-1.192z" transform="translate(-899.625 -820.313)"/></g></svg>