<svg xmlns="http://www.w3.org/2000/svg" width="16.06" height="16.063" viewBox="0 0 16.06 16.063"><defs><style>.cls-1{fill:#fff;fill-rule:evenodd}</style></defs><path id="Закрыть_поиск" data-name="Закрыть поиск" class="cls-1" d="M1352.35 54.032l6.97-6.961a.637.637 0 0 0 0-.887.631.631 0 0 0-.89 0l-6.96 6.961-6.97-6.961a.625.625 0 1 0-.88.887l6.96 6.961-6.96 6.961a.625.625 0 1 0 .88.887l6.97-6.961 6.96 6.961a.614.614 0 0 0 .44.184.654.654 0 0 0 .45-.184.637.637 0 0 0 0-.887z" transform="translate(-1343.44 -46)"/></svg>