<svg xmlns="http://www.w3.org/2000/svg" width="22.782" height="22.82" viewBox="0 0 22.782 22.82"><defs><style>.cls-1{fill:#fff;fill-rule:evenodd;filter:url(#filter)}</style><filter id="filter" x="851.906" y="3244.09" width="22.782" height="22.82" filterUnits="userSpaceOnUse"><feFlood result="flood" flood-color="#b9b9b9"/><feComposite result="composite" operator="in" in2="SourceGraphic"/><feBlend result="blend" in2="SourceGraphic"/></filter></defs><path id="Instagram_icon" data-name="Instagram icon" class="cls-1" d="M871.751 3266.89h-16.925a2.929 2.929 0 0 1-2.927-2.92v-16.95a2.938 2.938 0 0 1 2.927-2.93h16.925a2.937 2.937 0 0 1 2.925 2.93v16.95a2.928 2.928 0 0 1-2.925 2.92zm.216-19.22a.867.867 0 0 0-.864-.86h-2.067a.867.867 0 0 0-.865.86v2.07a.867.867 0 0 0 .865.86h2.064a.867.867 0 0 0 .864-.86v-2.07zm.555 6.18h-2.362a7.174 7.174 0 0 1 .2 1.63 7.067 7.067 0 0 1-14.133 0 7.17 7.17 0 0 1 .195-1.63h-2.347v9.96a.9.9 0 0 0 .9.9h16.635a.9.9 0 0 0 .905-.9v-9.96zm-9.235-3.24a4.88 4.88 0 1 1-4.879 4.88 4.877 4.877 0 0 1 4.879-4.88z" transform="translate(-851.906 -3244.09)"/></svg>