<svg xmlns="http://www.w3.org/2000/svg">
    <defs>
        <font id="magistralcbold" horiz-adv-x="1349">
            <font-face units-per-em="2048" ascent="1651" descent="-397"/>
            <glyph horiz-adv-x="0"/>
            <glyph horiz-adv-x="682"/>
            <glyph horiz-adv-x="477"/>
            <glyph horiz-adv-x="477"/>
            <glyph horiz-adv-x="477"/>
            <glyph unicode="!" horiz-adv-x="528" d="M123 1434h283L387 399H141zM139 0v254h250V0H139z"/>
            <glyph unicode="&quot;" horiz-adv-x="796" d="M123 1434h223l-10-510H135zm328 0h223l-10-510H463z"/>
            <glyph unicode="#" horiz-adv-x="1789" d="M82 369l70 176h272l145 360H297l72 176h272l141 353h205l-141-353h385l141 353h205l-141-353h272l-72-176h-272l-145-360h272l-72-176h-272L999 0H795l147 369H557L410 0H207l145 369H82zm547 176h385l145 360H774z"/>
            <glyph unicode="$" horiz-adv-x="1372" d="M82 1094q0 165 68 243 52 59 124.5 78t161.5 19h166v139h160v-139h438v-215H762V809l242-78 27-9 30-10 27.5-10.5 30-14 26.5-16 29.5-20.5 26-24.5L1227 596q40-55 51.5-109t11.5-137q0-98-18-166t-80-118q-38-31-95.5-46.5t-96-17.5T897 0H762v-139H602V0H135v215h467v432l-274 88q-38 12-57 20t-48.5 23.5-51 38.5-40.5 55q-49 84-49 222zm278-47q0-109 107-144l135-43v359h-55q-107 0-150-43-37-37-37-129zm402-832h49q116 0 158 37 43 34 43 119 0 68-32 116.5T864 563l-102 33V215z"/>
            <glyph unicode="%" horiz-adv-x="1673" d="M123 1102q0 196 80 274 73 70 237 70 163 0 236-70 82-80 82-274 0-195-82-275-72-69-236-69-165 0-237 69-49 48-64.5 117T123 1102zm168 0q0-123 35-164 34-43 114-43 77 0 113 43 37 43 37 164t-37 164q-36 43-113 43-80 0-114-43-35-41-35-164zM385 0l731 1434h180L565 0H385zm530 332q0 196 80 274 73 70 238 70 162 0 235-70 82-80 82-274 0-195-82-275-72-69-235-69-166 0-238 69-49 48-64.5 117T915 332zm168 0q0-123 35-164 34-43 115-43 77 0 113 43 36 42 36 164t-36 164q-36 43-113 43-81 0-115-43-35-41-35-164z"/>
            <glyph unicode="&amp;" horiz-adv-x="1525" d="M123 401q0 149 53 222 61 80 164 94v4q-87 10-145 84-70 91-70 250 0 201 92 293 54 54 122.5 70t164.5 16h749v-213H608q-113 0-157-33-52-41-52-162 0-118 54-168 49-45 174-45h858V621h-215V272q0-157-60-215-21-21-50.5-33.5t-67-17-56-5.5T983 0H506q-35 0-49 .5t-48 3-55 9T304 30t-53 30.5-46 45.5q-51 60-66.5 132T123 401zm274 11q0-102 33-146 42-53 158-53h321q66 0 82 16 15 15 15 60v329H559q-106 0-139-63-23-37-23-143z"/>
            <glyph unicode="'" horiz-adv-x="471" d="M123 1434h225l-12-510H135z"/>
            <glyph unicode="(" horiz-adv-x="759" d="M123 326v547.5l.5 35.5 2 40.5 3.5 36 5.5 42 8.5 39.5q32 138 131 229 67 62 170.5 105.5T678 1446v-172q-108-1-191.5-48T360 1110q-25-40-37.5-93t-14-87-1.5-92V283q0-56 1.5-89.5T323 106t37-94q41-68 125.5-115.5T678-154v-172q-236-4-404 154-57 54-87.5 109.5T141 68q-18 86-18 258z"/>
            <glyph unicode=")" horiz-adv-x="761" d="M82-154q107 3 192.5 50.5T401 12q54 89 54 271v555q0 183-54 272-41 69-126.5 116T82 1274v172q120-1 226.5-41.5T489 1296q93-83 129-229 3-14 6-29t5-27 3.5-28.5 2.5-26 2-27.5 1.5-25 .5-27V326q0-166-18-258-16-77-45-131.5T489-172Q319-330 82-326v172z"/>
            <glyph unicode="*" horiz-adv-x="1040" d="M82 922l291 168-291 167 74 127 290-167v335h148v-335l291 167 73-127-290-167 290-168-77-136-287 166V618H446v334L160 786z"/>
            <glyph unicode="+" horiz-adv-x="1185" d="M123 549v174h377v377h186V723h377V549H686V172H500v377H123z"/>
            <glyph unicode="," horiz-adv-x="569" d="M0-129l250 416 196-117-264-408z"/>
            <glyph unicode="-" horiz-adv-x="894" d="M82 446v211h731V446H82z"/>
            <glyph unicode="." horiz-adv-x="495" d="M123 0v264h250V0H123z"/>
            <glyph unicode="/" horiz-adv-x="1038" d="M0-340l897 1856h141L141-340H0z"/>
            <glyph unicode="0" horiz-adv-x="1318" d="M82 518v412q0 282 149 411 78 67 179.5 87t248.5 20 248.5-20 179.5-87q150-130 150-411V518q0-342-172-459-24-17-52-29t-62.5-19.5-59.5-12T825-8t-58-2.5-60 0-48 .5-48-.5-60 0T493.5-8 428-1.5t-59.5 12T306 30t-52 29Q82 179 82 518zm270 31q0-199 60-270 22-26 52.5-42.5t69-22.5 62.5-7.5 63-1.5q41 0 64.5 1.5t61 7.5 67.5 22.5 53 42.5q62 74 62 270v369q0 180-93 256-38 31-98 45t-117 14-117-14-98-45q-92-75-92-256V549z"/>
            <glyph unicode="1" horiz-adv-x="618" d="M0 1219v215h309q85 0 133-39 54-45 54-142V0H225v1120q0 55-14 76-14 23-53 23H0z"/>
            <glyph unicode="2" horiz-adv-x="1284" d="M82 172q0 129 88 188l664 455q57 39 73.5 86t16.5 121q0 110-29 147-40 50-145 50H178v215h696q160 0 242-84 53-53 69.5-125.5T1202 1053q0-53-2.5-90.5t-18-95T1137 768q-17-25-41.5-48t-38-33.5T1012 653L434 252q-22-15-22-25 0-12 16-12h713V0H233q-14 0-27 1.5t-37.5 11-42 26-31 51.5T82 172z"/>
            <glyph unicode="3" horiz-adv-x="1267" d="M82 0v215h575q56 0 82.5 1t56 6.5T844 240q39 26 51 68t12 102q0 42-2.5 66.5t-16 55T848 582q-44 34-135 34H119v215h577q108 0 152 48 39 43 39 149 0 105-39 148-41 43-129 43H106v215h719q38 0 66-2.5t68-12 75.5-33 63.5-59.5q67-87 67-270 0-80-13-142.5T1098 805q-58-66-148-74v-6q92-3 156-63 36-35 55-88t22-89 3-90q0-106-18.5-180T1092 84q-50-50-109-67T848 0H82z"/>
            <glyph unicode="4" horiz-adv-x="1419" d="M41 440q0 48 16 91.5t64 95.5l692 741q75 82 199 82 86 0 129-45 17-18 25.5-40t9-33.5.5-37.5V457h182V242h-182V0H905v242H217q-26 0-41.5 1.5T135 255t-45 30q-49 53-49 155zm258 41q0-24 37-24h569v680q0 8-8 8-6 0-25-21L324 516q-25-25-25-35z"/>
            <glyph unicode="5" horiz-adv-x="1265" d="M82 887v362q0 81 45 133 50 52 145 52h865v-215H420q-41 0-55-19-13-15-13-55V967q0-70 23-95 26-26 96-26h395q157 0 244-109 34-42 51-97t20-93.5 3-102.5q0-57-3-100t-12.5-94.5-30.5-94-53-73.5q-39-38-94-57.5t-89-22T813 0H90v215h639q105 0 145 61 31 51 31 158 0 102-31 144-37 53-124 53H369q-148 0-205 41-82 58-82 215z"/>
            <glyph unicode="6" horiz-adv-x="1308" d="M123 395v666q0 201 125 301 91 72 250 72h657v-215H594q-106 0-154-48-47-47-47-139V879h461q52 0 87.5-3.5t85-22T1114 801q37-33 62-77t35-93 13-85 3-81q0-210-62-318Q1079 0 844 0H485Q344 0 250 70q-72 53-99.5 134T123 395zm270 13q0-105 39-148 39-45 148-45h174q98 0 147 55 47 53 47 179 0 33-2 55t-13.5 53-33.5 53q-52 54-168 54H393V408z"/>
            <glyph unicode="7" horiz-adv-x="1101" d="M-20 1219v215h985q49 0 82-12.5t48.5-35.5 21-46.5 5.5-55.5q0-90-49-166L367 0H66l739 1139q22 35 22 53 0 27-43 27H-20z"/>
            <glyph unicode="8" horiz-adv-x="1296" d="M82 379q0 58 3.5 99t24 97.5T168 666q55 49 143 61v4q-66 9-118 64-27 28-44 59t-24 65.5-8.5 58-1.5 60.5q0 226 96 314 92 82 330 82h213q109 0 191-15.5t138-66.5q99-89 99-314 0-37-1.5-60.5t-8.5-58-24-65.5-44-59q-52-55-119-64v-4q89-13 143-61 39-34 59.5-91t23.5-96.5 3-99.5q0-59-2.5-92.5t-17-78.5-43.5-83q-34-44-74.5-71T985 16 898.5 2.5 803 0H494q-59 0-94.5 2.5T312 16t-93 38-74 71q-39 53-51 112.5T82 379zm278 43q0-110 37-154 42-53 144-53h215q101 0 143 53 37 44 37 154 0 114-59 162-42 34-129 34H549q-87 0-129-34-60-49-60-162zm33 602q0-97 27-137 17-24 46-37t47.5-14.5T561 834h174q30 0 48 1.5t45.5 14.5 45.5 37q29 43 29 137 0 116-51 160-18 16-44.5 24.5T763 1218t-50 1H582q-32 0-49.5-1t-43.5-9.5-45-24.5q-51-43-51-160z"/>
            <glyph unicode="9" horiz-adv-x="1263" d="M82 995q0 50 2.5 86.5t12 89.5 33 98 60.5 79q56 52 128.5 69t160.5 17h289q40 0 71.5-2t74-10.5 76-22.5 68.5-41 60-64q64-93 64-245V471q0-197-49-295-24-50-61-85t-70-52.5T924 12 854 1.5 793 0H147v215h555q113 0 160 47 49 49 49 174v121H416q-158 0-250 107-53 62-68.5 140T82 995zm278-6q0-51 13.5-99.5T414 815q47-43 166-43h331v256q0 96-45 141-50 50-139 50H561q-93 0-143-50-58-54-58-180z"/>
            <glyph unicode=":" horiz-adv-x="495" d="M123 0v258h250V0H123zm0 827v258h250V827H123z"/>
            <glyph unicode=";" horiz-adv-x="579" d="M0-129l250 416 196-117-264-408zm207 956v258h250V827H207z"/>
            <glyph unicode="&lt;" horiz-adv-x="1189" d="M123 827l944 476v-189L459 827l608-286V352z"/>
            <glyph unicode="=" horiz-adv-x="1187" d="M123 403v175h942V403H123zm0 310v174h942V713H123z"/>
            <glyph unicode="&gt;" horiz-adv-x="1189" d="M123 352v189l608 286-608 287v189l944-476z"/>
            <glyph unicode="?" horiz-adv-x="991" d="M41 1219v215h539q177 0 258-91 71-83 71-262 0-43-2.5-73.5t-13-69.5-28.5-69.5-51.5-64T733 743l-158-96q-43-24-69-59-21-29-21-76V399H236v119q0 89 40 146 38 51 115 98l133 80q42 25 62.5 42.5t36.5 56 16 97.5q0 31-2 50.5t-12 46-29 45.5q-21 20-49.5 29t-40.5 9.5-49 .5H41zM236 0v254h249V0H236z"/>
            <glyph unicode="@" horiz-adv-x="2080" d="M123 573q0 96 2 156.5t9.5 136 22 129 41 111T262 1212q58 74 131 122t158 69 154 28 161 7h398q40 0 70.5-1t81.5-7 92.5-16 93.5-30.5 94.5-48 85.5-71 76-97.5q35-58 56.5-122.5t30.5-142 11-131.5 2-146q0-166-12.5-273T1894 164Q1812-6 1618-6q-98 0-177.5 48T1339 184Q1237-6 969-6 709-6 608 170q-65 111-65 352 0 230 59 342 47 92 141.5 147.5T973 1067h297q31 0 51-2t47-12.5 47-30.5q7-7 12.5-14.5t9.5-16.5 7-15 5-16 3-14.5 1.5-16 .5-14.5V375q0-65 16.5-109.5T1514 201t51-27.5 49-7.5q86 0 125 98 18 43 25.5 122t7.5 259q0 326-76 445-29 49-72.5 83.5t-84 52-95 27-89 11.5-83.5 2H860q-62 0-112-4t-113.5-19-112-40.5-94-72.5-72.5-112q-49-112-49-486 0-324 49-473 15-47 36-85t58-76.5 86-64.5 123-42 166-16h621v-172H793q-364 0-531 231-83 114-111 288t-28 451zm625-47q0-55 1.5-88t10-76.5T784 287q54-103 189-103 131 0 211 92 71 83 71 236v293q0 33-18 51-23 23-68 23h-153q-124 0-191-72-47-50-62-119t-15-162z"/>
            <glyph unicode="A" horiz-adv-x="1429" d="M-61 0l540 1288q39 91 89.5 126.5T715 1450q93 0 145-36t90-126L1491 0h-285l-147 362H369L223 0H-61zm499 555h551l-233 584q-24 59-41 59t-41-59z"/>
            <glyph unicode="B" horiz-adv-x="1478" d="M123 203v1024q0 93 45 147 51 60 151 60h705q176 0 260-86 90-92 90-308 0-74-12.5-128T1307 807q-57-68-136-74v-8q98-9 158-76 31-34 47.5-84.5t18.5-83 2-88.5q0-65-2.5-103t-22-96.5T1315 92q-29-33-61-53t-70-28-62.5-9.5T1053 0H367q-5 0-29.5-.5T306-.5t-27 2T249 7t-25.5 10T196 33t-24 24q-49 56-49 146zm270 119q0-64 17-84 21-23 88-23h426q114 0 157 51 37 44 37 146 0 100-31 145-41 59-145 59H393V322zm0 509h525q35 0 55 2t47.5 14 44.5 36q31 37 31 145 0 109-47 154-18 17-43.5 26t-42.5 10-48 1H473q-46 0-61-17-19-21-19-63V831z"/>
            <glyph unicode="C" d="M82 696q0 119 8.5 207t41 186 89.5 164q154 181 469 181h576v-215H817q-70 0-116.5-4t-99-16.5-92-41T440 1085q-80-117-80-385 0-242 68-348 52-79 143-108t232-29h485V0H684q-61 0-112.5 5.5T456 27 333 79t-106 89q-48 54-79 121.5t-44.5 143T86 565t-4 131z"/>
            <glyph unicode="D" horiz-adv-x="1533" d="M123 182v1022q0 34 2 56.5t13.5 54.5 33.5 57q54 62 154 62h561q264 0 420-170 49-55 80.5-120.5T1432 1002t16.5-131.5T1452 733q0-388-127-557-54-72-152-124T924 0H342Q231 0 182 39q-59 44-59 143zm270 131q0-55 19-77 19-21 69-21h312q117 0 191 30t118 103q72 113 72 406 0 116-20 206.5t-81 153.5q-100 105-307 105H485q-44 0-63-15-29-22-29-71V313z"/>
            <glyph unicode="E" horiz-adv-x="1333" d="M123 213v1016q0 94 49 149 52 56 172 56h920v-215H489q-50 0-73-21-23-20-23-70V840h850V625H393V289q0-39 21-56 18-18 92-18h766V0H340q-40 0-61 1.5t-51 12T176 45q-53 51-53 168z"/>
            <glyph unicode="F" horiz-adv-x="1271" d="M123 0v1245q0 86 53 137 54 52 154 52h934v-215H461q-36 0-51-17-17-17-17-57V834h635V618H393V0H123z"/>
            <glyph unicode="G" horiz-adv-x="1488" d="M82 709q0 67 3 120.5t10.5 118 24 118 41 106 64 97T315 1346q136 88 347 88h712v-215H737q-231 0-317-156-60-108-60-346 0-239 58-352 28-57 72-91.5t92-46.5 110-12h350q49 0 72 23t23 73v391h270V184q0-96-53-141-51-43-140-43H604Q406 0 270 113q-50 42-86 99.5t-55.5 114-30.5 129-13.5 127T82 709z"/>
            <glyph unicode="H" horiz-adv-x="1531" d="M123 0v1434h270V846h746v588h270V0h-270v631H393V0H123z"/>
            <glyph unicode="I" horiz-adv-x="516" d="M123 0v1434h270V0H123z"/>
            <glyph unicode="J" horiz-adv-x="911" d="M-41 0v215h236q148 0 231 72 54 47 73 115.5T518 573v861h270V502q0-247-120-367Q537 0 326 0H-41z"/>
            <glyph unicode="K" horiz-adv-x="1433" d="M123 0v1434h270V0H123zm350 737q0 40 20 85t50 75l542 537h334L801 846q-2-2-12-11t-13-12-11-11.5-11-12.5-8-12.5-7-15-4-15-2-17.5q0-57 59-112 4-5 25-23L1495 0h-342L563 551q-90 83-90 186z"/>
            <glyph unicode="L" horiz-adv-x="1224" d="M123 156v1278h270V293q0-45 19-62 21-16 67-16h787V0H307q-88 0-133 37-51 40-51 119z"/>
            <glyph unicode="M" horiz-adv-x="2031" d="M123 0v1262q0 38 11 69t27 50 40 33 44.5 20.5T291 1445t37 4.5 26 .5q60 0 103-13.5t71.5-42T573 1338t33-72l371-957q21-53 39-53t39 53l370 957q42 111 102 147.5t150 36.5q105 0 168.5-47t63.5-141V0h-271l9 1116q0 43-25 43-17 0-35-47l-366-956q-23-62-43.5-95T1117 6t-101-22q-40 0-71 10t-50 23.5-36.5 40-25.5 45-22 53.5l-367 956q-18 47-34 47-23 0-23-43L393 0H123z"/>
            <glyph unicode="N" horiz-adv-x="1617" d="M123 0v1255q0 92 58.5 143.5T342 1450q155 0 227-113l609-960q3-4 8-14.5t10.5-15.5 13.5-5q23 0 23 35v1057h262V186q0-103-59-152.5T1282-16q-74 0-130.5 25.5T1051 104l-605 955q-23 35-32 35-10 0-19.5-10.5T385 1053V0H123z"/>
            <glyph unicode="O" horiz-adv-x="1636" d="M82 717q0 91 4.5 156t19.5 149 50.5 154 91.5 122q39 37 84 64t98 43 96.5 26 104.5 13.5 94.5 4.5 93.5 1q59 0 92.5-1t94.5-4.5 105-13.5 97.5-26 99-43 83.5-64q53-51 88-121.5t50-155 20-151.5 5-153q0-84-5.5-153T1528 411.5 1478 257t-87-122q-38-37-83.5-64T1208 28t-97.5-25.5-106-13T910-15t-91-1q-72 0-111.5 1t-115 8.5T466 16 354 61t-106 74q-40 38-70 85.5T131 323t-28 100.5-15 108-5 95.5-1 90zm278 0q0-288 89-400 57-74 144-96t224-22q65 0 109.5 3.5t97 14.5 93 36 71.5 64q88 110 88 400 0 293-88 401-57 71-148.5 94T817 1235q-133 0-222-23t-146-94q-89-113-89-401z"/>
            <glyph unicode="P" horiz-adv-x="1490" d="M123 0v1219q0 36 1.5 56t13 50 34.5 53q56 56 162 56h682q56 0 91-2.5t94-23 99-60.5q109-105 109-377 0-291-125-393-86-70-219-70H393V0H123zm270 723h514q41 0 64 1.5t56.5 14T1083 776q47 54 47 197t-51 196q-50 50-168 50H475q-44 0-63-19t-19-67V723z"/>
            <glyph unicode="Q" horiz-adv-x="1650" d="M82 713q0 75 2 127t11.5 123 26.5 124.5 49 110 77 100.5q88 85 221 118.5t350 33.5q220 0 351.5-33t220.5-119q86-82 124.5-211.5T1554 731q0-73-2.5-123T1535 483.5 1495 354q-33-71-98-131v-8l205 8V0H819Q585 0 460.5 26T252 135q-36 35-63.5 78T143 294.5 113 385t-18 86.5-9 89-3.5 79T82 713zm278 6q0-282 89-393 58-70 144-90.5T817 215q140 0 227 20.5t144 90.5q88 108 88 393t-88 397q-59 74-145.5 96.5T817 1235q-136 0-222.5-22.5T449 1116q-89-114-89-397z"/>
            <glyph unicode="R" horiz-adv-x="1503" d="M123 0v1190q0 39 2.5 64t16.5 60.5 40 61.5q60 58 172 58h680q47 0 80-3.5t77.5-15 82-40 67.5-72.5q46-66 59-140.5t13-175.5q0-100-11.5-176T1352 664q-78-148-271-148H897v-10L1442 0h-340L631 465q-68 68-68 121v32q0 44 32 71.5t89 27.5h270q107 0 148 63 33 51 33 197 0 147-52 199-43 43-151 43H494q-46 0-72-23-19-17-24-34.5t-5-45.5V0H123z"/>
            <glyph unicode="S" d="M61 1087q0 181 93 267 85 80 235 80h825v-215H481q-77 0-112-33-37-35-37-111 0-56 27-96.5T465 913l524-165q147-47 205-103 94-90 94-276 0-176-71-267-49-63-110-82.5T961 0H80v215h794q136 0 136 156 0 34-8 59.5T961.5 485 870 532L305 711q-18 5-42 14.5T200 760t-65 57q-74 87-74 270z"/>
            <glyph unicode="T" d="M-20 1219v215h1390v-215H809V0H539v1219H-20z"/>
            <glyph unicode="U" horiz-adv-x="1490" d="M123 504v930h270V541q0-53 2.5-86.5t19-81.5 48.5-82q85-92 282-92 202 0 285 92 30 33 46.5 83t19 84 2.5 83v893h270V504q0-110-25.5-201T1243 137q-41-42-95.5-72t-103-45.5-110-24-100-10T745-16q-66 0-116 4T504.5 5 364 51.5 248 137q-74 75-99.5 166T123 504z"/>
            <glyph unicode="V" horiz-adv-x="1380" d="M-61 1434h292L659 276q12-30 31-30t31 30l428 1158h293L922 139Q860-16 690-16q-168 0-231 155z"/>
            <glyph unicode="W" horiz-adv-x="2050" d="M-61 1434h274L498 330l2-8q3-9 4.5-13t5-10 8-9 10.5-3q8 0 18 11.5t13 23.5l266 981q7 26 16.5 46t30.5 46 59.5 40.5 92.5 14.5q162 0 199-147l266-981q3-12 13-23.5t18-11.5q22 0 32 43l285 1104h274L1765 184q-10-36-18-58t-26.5-52-40.5-47.5-60-30-86-12.5q-56 0-97 14.5T1370.5 41 1331 98t-26 70l-252 928q-4 18-12.5 28.5T1024 1135q-16 0-27-39L743 168q-9-31-16.5-51t-25-47.5T662 25 602-4t-86-12q-92 0-147 43.5T283 184z"/>
            <glyph unicode="X" horiz-adv-x="1286" d="M-61 0l550 727-534 707h321l367-516 367 516h321L797 727 1348 0h-322L643 537 260 0H-61z"/>
            <glyph unicode="Y" horiz-adv-x="1359" d="M-61 1434h290l451-752 450 752h291L815 438V0H545v438z"/>
            <glyph unicode="Z" horiz-adv-x="1255" d="M4 147q0 101 88 193l782 809q25 25 25 43 0 9-8.5 18t-30.5 9H59v215h1031q32 0 59-7t51-23 37.5-46 13.5-72q0-43-14-78.5t-27-51.5-41-46L377 274q-21-21-21-36 0-23 25-23h848V0H201q-26 0-46.5 1.5t-51 10-50 23T19 78 4 147z"/>
            <glyph unicode="[" horiz-adv-x="757" d="M123-326v1772h553v-172H307V-154h369v-172H123z"/>
            <glyph unicode="\" horiz-adv-x="1038" d="M0 1516h141l897-1856H897z"/>
            <glyph unicode="]" horiz-adv-x="761" d="M82-154h373v1428H82v172h557V-326H82v172z"/>
            <glyph unicode="^" horiz-adv-x="1208" d="M123 1206l371 346q50 47 110 47 61 0 111-47l370-346-118-139-303 297q-29 29-58 29-28 0-57-29l-305-297z"/>
            <glyph unicode="_" horiz-adv-x="1171" d="M82 0v211h1008V0H82z"/>
            <glyph unicode="`" horiz-adv-x="616" d="M82 1417l123 154 330-273-121-151z"/>
            <glyph unicode="a" horiz-adv-x="1136" d="M53 348q0 87 18 151t74 113q74 64 199 64h471v76q0 64-31 102-38 47-116 47H133v184h617q68 0 128-22.5t97-61.5q80-84 80-256V182q0-96-43-139T862 0H344q-41 0-66 1.5t-64 14T147 53q-94 81-94 295zm248-10q0-86 33-121 33-33 78-33h333q37 0 54 13 16 14 16 45v250H416q-59 0-88-37-27-34-27-117z"/>
            <glyph unicode="b" horiz-adv-x="1142" d="M82 182v1252h240v-349h317q57 0 103-6t99.5-23 98.5-55 78-94q72-122 72-370 0-239-70-359Q917 0 645 0H303q-39 0-62.5 2t-55 13T131 47Q82 94 82 182zm240 92q0-53 16-71 19-19 65-19h175q31 0 55.5 3t59.5 12.5 64 34 48 61.5q37 77 37 231 0 182-37 256-56 119-219 119H322V274z"/>
            <glyph unicode="c" horiz-adv-x="1050" d="M53 528q0 66 2.5 109t13 109.5T106 869t70 100q116 116 332 116h465V901H586q-114 0-179.5-48T319 729q-18-64-18-205 0-156 35-225 19-37 49.5-61.5t70-35.5 74-14.5T608 184h389V0H475Q263 0 152 133q-61 72-80 164.5T53 528z"/>
            <glyph unicode="d" horiz-adv-x="1144" d="M53 559q0 245 84 365 37 54 87 89.5t105 49.5 91.5 18 81.5 4h321v349h240V190q0-91-33-135Q990 0 881 0H453Q197 0 106 215 53 339 53 559zm248-8q0-171 29-244 53-123 219-123h192q47 0 64 17 18 16 18 75v625H549q-143 0-201-96-47-73-47-254z"/>
            <glyph unicode="e" horiz-adv-x="1153" d="M53 532q0 88 3.5 144.5t16 118.5T112 903.5t70 83.5q42 36 96 59t116.5 31.5T495 1088t93 2q117 0 203.5-13.5T946 1020q88-55 121-144.5t33-207.5q0-113-51-164-41-41-117-41H301q0-92 14-150 11-42 34-69.5t56-39.5 62-16 68-4h530V0H463q-50 0-87.5 4T291 20.5t-87.5 42T131 137q-49 69-63.5 164.5T53 532zm248 115h498q53 0 53 64 0 91-70 145-64 49-204 49-38 0-55.5-1t-54.5-6.5-66-21.5-52-42-34-61-12.5-53.5T301 647z"/>
            <glyph unicode="f" horiz-adv-x="720" d="M16 901v182h152q5 186 113 275 110 91 370 91 26 0 54-1v-176q-101 0-153.5-6.5T469 1239q-61-39-61-144v-10h297V901H408V0H168v901H16z"/>
            <glyph unicode="g" horiz-adv-x="1173" d="M53 559q0 140 24.5 237.5T168 967q36 40 77.5 65.5t89 36 82 13.5 85.5 3h350q39 0 63-2t56.5-12 56.5-29q64-52 64-157V123q0-245-88-350-35-42-86-70.5T812.5-338t-94-16-77.5-4H129v184h457q141 0 200 49 55 48 64 125H465q-51 0-88.5 4T292 21t-86 42.5-69 75.5Q53 272 53 559zm248-18q0-222 61-293 25-28 63-43t67.5-18 74.5-3h285v631q0 49-31 70-23 16-63 16H553q-125 0-186-67-66-74-66-293z"/>
            <glyph unicode="h" horiz-adv-x="1150" d="M82 0v1434h240v-349h325q210 0 305-77 50-42 83.5-115.5T1069 715V0H829v651q0 128-53 187-57 63-174 63H322V0H82z"/>
            <glyph unicode="i" horiz-adv-x="403" d="M82 0v1085h240V0H82zm0 1243v191h240v-191H82z"/>
            <glyph unicode="j" horiz-adv-x="563" d="M-82-180h34q76 0 116 8 50 9 90 39 43 31 63.5 78T242 76v1009h239V27q0-207-139-312-113-81-358-81-32 0-66 1v185zm324 1423v191h239v-191H242z"/>
            <glyph unicode="k" horiz-adv-x="1099" d="M82 0v1434h240V0H82zm311 561q0 38 14.5 73t26 49.5T469 725l328 360h278L668 647q-35-39-35-78 0-45 51-100L1128 0H842L467 397q-74 79-74 164z"/>
            <glyph unicode="l" horiz-adv-x="403" d="M82 0v1434h240V0H82z"/>
            <glyph unicode="m" horiz-adv-x="1710" d="M82 0v897q0 78 31 123 47 65 163 65h977q184 0 277-86 46-44 72-114.5t26-151.5V0h-239v696q0 103-46 154-44 51-145 51H975V0H735v901H385q-37 0-53-16-10-10-10-58V0H82z"/>
            <glyph unicode="n" horiz-adv-x="1157" d="M82 0v920q0 79 35 116 21 23 55.5 35t54 13 56.5 1h383q100 0 172-17.5T969 997q106-95 106-282V0H836v643q0 134-45 193-51 65-173 65H375q-29 0-41-12-12-14-12-45V0H82z"/>
            <glyph unicode="o" horiz-adv-x="1261" d="M53 539q0 313 140 444 42 39 97.5 64.5t121 35T522 1095t109 3 109-3 110.5-12.5 121-35T1069 983q139-130 139-436 0-311-139-443-41-39-97.5-64t-121-35.5T738.5-9 631-12q-61 0-108.5 3T411 4.5 291 40t-98 64Q53 233 53 539zm248 2q0-60 2.5-98t19-91.5T371 262q79-90 260-90 83 0 146 18t112 72q26 28 41.5 61.5t21.5 75 7.5 68T961 541v16q0 57-2 91.5T940.5 737 891 827q-47 52-112 69t-148 17q-187 0-262-86-68-78-68-286z"/>
            <glyph unicode="p" horiz-adv-x="1144" d="M82-348V918q0 88 61 133 45 34 136 34h378q207 0 320-118 39-41 64.5-92t35.5-110 12.5-100.5 2.5-99.5q0-134-16.5-234T1006 156q-29-42-69-72.5t-76.5-46T777 13 698 2t-73-2H322v-348H82zm240 532h272q142 0 205 101 45 65 45 260 0 163-29 233-24 55-78.5 89T606 901H371q-14 0-33-14-16-16-16-37V184z"/>
            <glyph unicode="q" horiz-adv-x="1144" d="M53 522q0 60 2.5 105t12 109.5T100 858t58 103q95 124 286 124h439q47 0 87-17t62-46q31-42 31-139V-348H823V0H436Q241 0 139 141q-53 72-69.5 161.5T53 522zm248 15q0-151 21-215 47-138 208-138h293v643q0 38-22 58-18 16-66 16H559q-87 0-144-26.5T328 776q-27-65-27-239z"/>
            <glyph unicode="r" horiz-adv-x="681" d="M82 0v676q0 217 113 315 107 94 325 94h162V901H582q-141 0-205-76-55-67-55-213V0H82z"/>
            <glyph unicode="s" horiz-adv-x="1079" d="M53 807q0 114 51 184 29 41 77 63t87 26.5 97 4.5h612V901H401q-57 0-84-20-20-15-25-33t-5-45q0-28 6.5-47t28.5-37q33-27 135-55l233-66q113-32 174-58t97-65q65-70 65-199 0-159-90-231Q876 0 762 0H68v184h610q54 0 80 31 20 23 20 68 0 54-30 82-26 23-197 69l-209 58q-177 48-238 131-51 70-51 184z"/>
            <glyph unicode="t" horiz-adv-x="698" d="M0 901v184h150v349h239v-349h303V901H389V417.5l.5-24.5 2-26.5L395 342l5-26 8-23 11.5-23.5 15-20L453 231q55-47 186-47h59V0H549Q443 0 376.5 19T258 80q-108 88-108 274v547H0z"/>
            <glyph unicode="u" horiz-adv-x="1167" d="M82 401v684h240V444q0-74 8.5-117t31.5-73q30-41 76.5-55.5T557 184h199q46 0 69 23 21 21 21 65v813h239V195q0-107-57-154Q979 0 858 0H475q-97 0-162.5 18T193 82q-63 55-87 132T82 401z"/>
            <glyph unicode="v" horiz-adv-x="1062" d="M-49 1085h248l305-804q16-43 28-43 13 0 29 43l303 804h248L698 84q-13-33-32-53.5t-44-29-43.5-11T532-12q-20 0-30.5.5t-34 5.5-39 14T395 36.5 365 84z"/>
            <glyph unicode="w" horiz-adv-x="1572" d="M-49 1085h229l209-802q7-33 21-33 10 0 20 31l199 716q28 101 157 101 130 0 158-101l201-716q8-31 18-31 14 0 23 33l207 802h229l-258-950q-24-87-70-117t-116-30q-153 0-187 121L803 788q-9 35-17 35-7 0-16-35L582 109Q547-12 395-12q-41 0-73.5 10.5T271 23t-32 36.5-19.5 38T209 135z"/>
            <glyph unicode="x" horiz-adv-x="1009" d="M-49 0l416 557-390 528h273l254-372 254 372h272L643 557 1059 0H778L504 401 231 0H-49z"/>
            <glyph unicode="y" horiz-adv-x="1110" d="M-49 1085h248l348-833 368 829h244L512-350H268L434 4z"/>
            <glyph unicode="z" horiz-adv-x="952" d="M4 145q0 38 12.5 69.5T41 261t37 40l557 559q16 16 16 25 0 16-20 16H39v184h768q64 0 102.5-36.5T948 948q0-38-10.5-68T916 835.5 885 801L322 221q-17-17-17-26 0-11 19-11h618V0H158q-16 0-30.5 1.5t-39 9.5T47 33.5 17 77 4 145z"/>
            <glyph unicode="{" horiz-adv-x="647" d="M41 518v127q50 3 78 35.5t28 79.5v227q0 57 7 137 19 201 176 275 102 47 235 43v-172q-91 5-157-43-76-57-76-187V782q0-33-2.5-56T318 674t-29.5-50.5T236 590v-17q32-12 52.5-33.5T318 489t11.5-52 2.5-56V123q0-129 76-186 66-48 157-43v-173q-133-4-235 43-157 74-176 275-7 81-7 137v227q0 47-28 79.5T41 518z"/>
            <glyph unicode="|" horiz-adv-x="389" d="M123-340v1856h143V-340H123z"/>
            <glyph unicode="}" horiz-adv-x="647" d="M82-106q91-6 158 43 75 56 75 186v258q0 32 3 55.5t11.5 52.5 29.5 50.5 53 33.5v17q-32 12-53 33.5T329.5 674 318 726.5t-3 55.5v258q0 131-75 187-67 49-158 43v172q133 4 235-43 158-74 177-275 6-69 6-137V760q0-47 28-79.5t78-35.5V518q-50-3-78-35.5T500 403V176q0-68-6-137-19-201-177-275-102-47-235-43v173z"/>
            <glyph unicode="~" horiz-adv-x="1296" d="M123 721q69 98 156 156 82 53 165 53 84 0 152-41l111-64q66-37 137-37t127 50q43 38 80 102l123-106q-67-97-152-162-85-64-178-64-83 0-162 45l-94 56q-67 39-142 39-55 0-108-33-50-35-94-103z"/>
            <glyph unicode="©" horiz-adv-x="1767" d="M123 719q0 74 4.5 135.5t20.5 137 42.5 136 75 119.5T379 1348q71 45 169 69t168.5 28.5T885 1450t168-4.5 167.5-28.5 168.5-69q144-91 200-245.5t56-383.5q0-232-56-386T1389 88q-56-36-120-58.5T1133-2t-122.5-11.5T885-16t-126 2.5T635.5-2t-137 31.5T379 88q-80 52-134 125.5T166 376t-34 167.5-9 175.5zm192 0q0-79 6-141t23.5-132T399 319t93-96q129-90 393-90 262 0 391 90 56 39 93 96t54 127 23 132 6 141q0 76-5.5 134.5t-22.5 126-54.5 121.5-93.5 91q-133 88-391 88-265 0-393-88-46-30-79-73t-51.5-87.5T332 930t-14-104-3-107zm174 0q0 56 3 96t20 96.5 49 96.5q83 106 256 106h338V950H853.5l-18-.5L816 947l-18-5-19.5-7.5-17-11-17.5-16-15-20.5q-31-62-31-182 0-109 29-152 17-27 45-40t48-15 57-2h305V332H803q-81 0-138 20t-106 86q-70 95-70 281z"/>
            <glyph unicode="«" horiz-adv-x="1099" d="M123 575q0 61 43 125l280 392 164-123-231-332q-25-37-25-62 0-28 25-61l231-332L446 59 166 451q-43 65-43 124zm422 0q0 51 43 105l225 289 164-123-170-221q-25-32-25-50 0-6 3-14t6-12.5 9-12.5 7-10l170-245-164-123-225 313q-43 62-43 104z"/>
            <glyph unicode="­" horiz-adv-x="894" d="M82 446v211h731V446H82z"/>
            <glyph unicode="®" horiz-adv-x="1165" d="M123 995q0 50 2 83.5t9.5 91 28 105.5 52.5 83q28 32 69.5 54t75.5 32 85.5 15.5 73.5 6 67 .5q76 0 124-3.5t110.5-24T926 1380q37-33 61.5-78t35.5-97 15-95 4-96q0-269-106-373-34-33-79-54.5t-99.5-30-93-11T571 543q-56 0-94 3t-92 14-99.5 38.5T205 670q-50 62-66 142t-16 183zm123 19q0-183 45-250 33-47 101.5-79T569 653q173 0 256 62 95 77 95 284 0 194-60 269-31 40-84.5 61t-91 24-94.5 3q-42 0-68-1.5t-67.5-7.5-75.5-22.5-60-42.5q-33-33-50.5-88t-20-91-2.5-89zm104-236v408q0 34 15 51 20 25 86 25h238.5l12.5-.5 13.5-1.5 13-3 14.5-5.5 13-8 14-10.5q28-25 35.5-57.5t7.5-83.5q0-86-28.5-117T711 944h-43l153-166H668L545 920q-15 17-15 51 0 11 .5 16.5t4 16 14 15.5 26.5 5h46q43 0 51 8 12 9 12 31v47q0 21-14 35t-49 14H516q-27 0-33-6-8-5-8-37V778H350z"/>
            <glyph unicode="»" horiz-adv-x="1099" d="M123 281l170 245q24 36 24 49 0 19-24 50L123 846l164 123 225-289q43-54 43-105 0-42-43-104L287 158zm366-99l232 332q24 32 24 61 0 26-24 62L489 969l164 123 281-392q43-65 43-125 0-59-43-124L653 59z"/>
            <glyph unicode="Ё" horiz-adv-x="1353" d="M123 213v1016q0 94 49 149 52 56 172 56h920v-215H489q-50 0-73-21-23-20-23-70V840h850V625H393V289q0-39 21-56 18-18 92-18h766V0H340q-40 0-61 1.5t-51 12T176 45q-53 51-53 168zm229 1362v197h230v-197H352zm471 0v197h230v-197H823z"/>
            <glyph unicode="Ђ" horiz-adv-x="1693" d="M-20 1219v215h1222v-215H600V829h694q173 0 252-108 66-92 66-289 0-246-72-340-43-55-100.5-73.5T1307 0H942v215h217q33 0 52.5 1.5T1260 228t45 30q28 35 28 160v38l-.5 19.5-1.5 22-2.5 21-4 22-6 19-9 19L1298 594q-36 43-114 43H600V0H330v1219H-20z"/>
            <glyph unicode="Ѓ" horiz-adv-x="1148" d="M0 0v1227q0 33 2 53.5t13.5 48T49 1378q56 56 141 56h959v-215H377q-78 0-94-21-13-17-13-74V0H0zm326 1667l329 272 123-153-332-270z"/>
            <glyph unicode="Є" horiz-adv-x="1361" d="M82 729q0 69 2 117.5T94.5 964t24.5 120.5 47 106.5 74 97q150 146 426 146h596v-215H752q-86 0-162.5-24.5T465 1124q-46-45-75.5-128.5T360 831h873V631H360q-11-250 138-350 97-66 282-66h500V0H666Q412 0 262 127q-105 89-142.5 229T82 729z"/>
            <glyph unicode="Ѕ" d="M61 1087q0 181 93 267 85 80 235 80h825v-215H481q-77 0-112-33-37-35-37-111 0-56 27-96.5T465 913l524-165q147-47 205-103 94-90 94-276 0-176-71-267-49-63-110-82.5T961 0H80v215h794q136 0 136 156 0 34-8 59.5T961.5 485 870 532L305 711q-18 5-42 14.5T200 760t-65 57q-74 87-74 270z"/>
            <glyph unicode="І" horiz-adv-x="516" d="M123 0v1434h270V0H123z"/>
            <glyph unicode="Ї" horiz-adv-x="909" d="M123 1556v226h237v-226H123zM319 0v1434h271V0H319zm230 1556v226h237v-226H549z"/>
            <glyph unicode="Ј" horiz-adv-x="911" d="M-41 0v215h236q148 0 231 72 54 47 73 115.5T518 573v861h270V502q0-247-120-367Q537 0 326 0H-41z"/>
            <glyph unicode="Љ" horiz-adv-x="2422" d="M-20 0l839 1337q16 26 31 42t42.5 34.5 71 27.5 103.5 9q81 0 135-15t80-43.5 35.5-58.5 9.5-71V831h686q200 0 275-122 53-83 53-291 0-204-66-293-13-18-32-35.5t-52.5-40-85-36T1993 0h-762q-77 0-127 57-29 33-38 70.5t-9 89.5v969q0 37-29 37-16 0-33-23L285 0H-20zm1347 303q0-47 12-65 7-12 22.5-17t24-5.5 31.5-.5h436q115 0 160 39 50 42 49 163v9q0 41-2 68.5t-15.5 63T2007 610q-35 23-123 23h-557V303z"/>
            <glyph unicode="Њ" horiz-adv-x="2471" d="M123 0v1434h270V846h725v588h271V846h673q202 0 275-139 33-61 43-129t10-158q0-203-66-295Q2233 0 2042 0h-752q-75 0-125 57-29 33-38 70.5t-9 89.5v414H393V0H123zm1266 303q0-44 12-65 5-8 11.5-13.5t16.5-7.5 15-2.5 19 0 16 .5h422q116 0 161 39 50 40 49 163v9q0 41-2 68.5t-15.5 63T2056 610q-30 21-125 21h-542V303z"/>
            <glyph unicode="Ћ" horiz-adv-x="1667" d="M-20 1219v215h1222v-215H600V829h688q65 0 114-10.5t93-44.5q31-25 51-54t27.5-62 9.5-55.5 2-57.5V0h-270v506q0 70-39 102-33 29-109 29H600V0H330v1219H-20z"/>
            <glyph unicode="Ќ" horiz-adv-x="1372" d="M0 0v1434h270V0H0zm342 735q0 84 78 162l543 537h333L678 846q-76-73-76-111 0-48 92-131L1372 0h-342L440 551q-98 91-98 184zm25 932l329 272 123-153-332-270z"/>
            <glyph unicode="Ў" horiz-adv-x="1482" d="M0 1434h299l453-869 436 869h295L731 0H438l174 317zm338 346h194q13-52 60-90 33-28 67-35.5t82-7.5q100 0 150 43 42 39 57 90h197q-19-67-57-124.5t-84-90.5q-98-70-263-70-169 0-264 70-49 36-85.5 96T338 1780z"/>
            <glyph unicode="Џ" horiz-adv-x="1523" d="M123 172v1262h270V291q0-35 10-53 4-7 9-11.5t8-6.5 10-3.5 8.5-1.5H1084l7 .5 7.5 2 6.5 4 7.5 6.5 7.5 10q6 9 8.5 17t2.5 12-.5 12-.5 12v1143h271V172q0-29-2-46.5T1386 83t-32-44q-20-18-46.5-27T1264 1.5 1219 0H897v-346H627V0H305q-28 0-45 1.5T216.5 12 170 39q-21 19-32 44t-13 42.5-2 46.5z"/>
            <glyph unicode="А" horiz-adv-x="1429" d="M-61 0l540 1288q39 91 89.5 126.5T715 1450q93 0 145-36t90-126L1491 0h-285l-147 362H369L223 0H-61zm499 555h551l-233 584q-24 59-41 59t-41-59z"/>
            <glyph unicode="Б" horiz-adv-x="1484" d="M123 190v1035q0 104 49 155 54 54 145 54h1012v-215H489q-53 0-75-17-21-19-21-72V834h682q170 0 254-107 74-98 74-311 0-233-78-322-83-94-246-94H305q-93 0-143 57-39 46-39 133zm270 132q0-65 10-80 19-27 97-27h440q33 0 51 1.5t44.5 11T1081 256q21 21 31 57t11 55.5 1 55.5q0 34-2 56t-12.5 51.5T1079 580q-40 38-139 38H393V322z"/>
            <glyph unicode="В" horiz-adv-x="1478" d="M123 203v1024q0 93 45 147 51 60 151 60h705q176 0 260-86 90-92 90-308 0-74-12.5-128T1307 807q-57-68-136-74v-8q98-9 158-76 31-34 47.5-84.5t18.5-83 2-88.5q0-65-2.5-103t-22-96.5T1315 92q-29-33-61-53t-70-28-62.5-9.5T1053 0H367q-5 0-29.5-.5T306-.5t-27 2T249 7t-25.5 10T196 33t-24 24q-49 56-49 146zm270 119q0-64 17-84 21-23 88-23h426q114 0 157 51 37 44 37 146 0 100-31 145-41 59-145 59H393V322zm0 509h525q35 0 55 2t47.5 14 44.5 36q31 37 31 145 0 109-47 154-18 17-43.5 26t-42.5 10-48 1H473q-46 0-61-17-19-21-19-63V831z"/>
            <glyph unicode="Г" horiz-adv-x="1251" d="M123 0v1227q0 33 2 53.5t13.5 48T172 1378q56 56 141 56h959v-215H500q-78 0-94-21-13-17-13-74V0H123z"/>
            <glyph unicode="Д" horiz-adv-x="1624" d="M-20 0v215h120l484 1083q33 74 81.5 113t147.5 39q92 0 143-36t86-116l482-1083h121V0H-20zm397 215h870l-401 930q-1 2-4 9t-5.5 12-6.5 11-8 9.5-9 3.5q-10 0-20-15.5t-15-29.5z"/>
            <glyph unicode="Е" horiz-adv-x="1333" d="M123 213v1016q0 94 49 149 52 56 172 56h920v-215H489q-50 0-73-21-23-20-23-70V840h850V625H393V289q0-39 21-56 18-18 92-18h766V0H340q-40 0-61 1.5t-51 12T176 45q-53 51-53 168z"/>
            <glyph unicode="Ж" horiz-adv-x="2187" d="M-41 0l584 604q75 75 75 135 0 29-15 52.5T559 846L33 1434h327l451-533q74-89 74-164 0-85-94-190L303 0H-41zm999 0v1434h271V0H958zm345 737q0 77 73 164l451 533h327l-526-588q-19-20-29-32.5t-20-33.5-10-41q0-59 76-135L2228 0h-344l-487 547q-27 31-42.5 52t-33.5 61-18 77z"/>
            <glyph unicode="З" horiz-adv-x="1361" d="M102 0v215h660q124 0 170 27 31 17 47 50.5t19 59.5 3 64q0 117-51 162-46 38-164 38H131v215h621q145 0 188 46 17 18 25.5 49t9 48 .5 52q0 40-1 59.5t-12 51.5-34 51q-37 31-125 31H111v215h753q51 0 77-1.5t72-8.5 83-26.5 69-51.5q54-55 71-127.5t17-171.5q0-85-15.5-144T1171 795q-52-49-120-64v-8q60-3 110.5-31t77.5-76q41-68 41-233 0-48-3.5-85t-15-85.5T1222 124t-71-67Q1059 0 844 0H102z"/>
            <glyph unicode="И" horiz-adv-x="1609" d="M123 229v1205h270l-6-1069v-6q0-21 1-31t6.5-19.5T412 299q10 0 21 15t18 30l577 946q57 92 110 126t130 34q219 0 219-258V0h-270l8 1090q0 47-21 47-3 0-6.5-1.5t-7.5-6-7-8-8-11-7.5-12-8-13.5-8.5-14L561 119q-16-26-25-39t-29.5-35T465 12.5 410-7t-76-9q-59 0-101 18.5t-63 43-32 63-13 62.5-2 58z"/>
            <glyph unicode="Й" horiz-adv-x="1609" d="M123 229v1205h270l-6-1069v-6q0-21 1-31t6.5-19.5T412 299q10 0 21 15t18 30l577 946q57 92 110 126t130 34q219 0 219-258V0h-270l8 1090q0 47-21 47-3 0-6.5-1.5t-7.5-6-7-8-8-11-7.5-12-8-13.5-8.5-14L561 119q-16-26-25-39t-29.5-35T465 12.5 410-7t-76-9q-59 0-101 18.5t-63 43-32 63-13 62.5-2 58zm274 1530h195q15-51 57-90 50-43 150-43 101 0 151 43 44 40 58 90h194q-17-59-53.5-119t-85.5-96q-94-69-264-69-168 0-262 69-49 36-86.5 96T397 1759z"/>
            <glyph unicode="К" horiz-adv-x="1433" d="M123 0v1434h270V0H123zm342 735q0 84 78 162l542 537h334L801 846q-76-73-76-111 0-48 92-131L1495 0h-342L563 551q-98 91-98 184z"/>
            <glyph unicode="Л" horiz-adv-x="1423" d="M-61 0l555 1315q14 31 26 50t36.5 41 63.5 33 93 11 93-11 63.5-33 36.5-41 26-50L1485 0h-287L745 1145q0 1-1 4-16 34-31 37-4 0-8-1t-6.5-3-5-5-4-5.5-3.5-6.5-3-6.5-2.5-7-2.5-6.5L225 0H-61z"/>
            <glyph unicode="М" horiz-adv-x="2031" d="M123 0v1262q0 38 11 69t27 50 40 33 44.5 20.5T291 1445t37 4.5 26 .5q90 0 150-37t102-147l371-957q21-53 39-53t39 53l370 957q42 110 102 147t150 37q105 0 168.5-47t63.5-141V0h-271l9 1116q0 43-25 43-17 0-35-47l-366-956q-38-101-78.5-136.5T1016-16q-83 0-125 35t-80 137l-367 956q-18 47-34 47-23 0-23-43L393 0H123z"/>
            <glyph unicode="Н" horiz-adv-x="1531" d="M123 0v1434h270V846h746v588h270V0h-270v631H393V0H123z"/>
            <glyph unicode="О" horiz-adv-x="1634" d="M82 717q0 91 4.5 156t19.5 149 50.5 154 91.5 122q39 37 84 64t98 43 96.5 26 104.5 13.5 94.5 4.5 93.5 1q58 0 91-1t94.5-4.5 106-13.5 98-26 99-43 83.5-64q52-51 86-122t49.5-154.5 20.5-152 5-152.5q0-61-1.5-106T1540 491.5t-25-131-47.5-119T1391 135q-37-37-82.5-64t-100-43T1110 2.5t-106.5-13T909-15t-90-1q-72 0-111.5 1t-115 8.5T466 16 354 61t-106 74q-40 38-70 85.5T131 323t-28 100.5-15 108-5 95.5-1 90zm278 0q0-275 93-395 58-75 141.5-99T817 199q59 0 98 3t93.5 13.5T1107 253t77 69q90 115 90 395 0 282-90 397-33 42-77 68t-99 36.5-94 13.5-97 3q-47 0-77.5-1t-76.5-8-78.5-19-68.5-35.5-63-57.5q-46-58-69.5-149.5T360 717z"/>
            <glyph unicode="П" horiz-adv-x="1521" d="M123 0v1239q0 45 10.5 78.5T176 1382q35 34 69.5 43t92.5 9h848q54 0 91.5-9.5t70.5-42.5q51-51 51-143V0h-271v1133q0 51-16 67-17 19-65 19H477q-48 0-65-19-19-19-19-67V0H123z"/>
            <glyph unicode="Р" horiz-adv-x="1490" d="M123 0v1219q0 36 1.5 56t13 50 34.5 53q56 56 162 56h682q56 0 91-2.5t94-23 99-60.5q109-105 109-377 0-291-125-393-86-70-219-70H393V0H123zm270 723h514q41 0 64 1.5t56.5 14T1083 776q47 54 47 197t-51 196q-50 50-168 50H475q-44 0-63-19t-19-67V723z"/>
            <glyph unicode="С" d="M82 696q0 119 8.5 207t41 186 89.5 164q154 181 469 181h576v-215H817q-70 0-116.5-4t-99-16.5-92-41T440 1085q-80-117-80-385 0-242 68-348 52-79 143-108t232-29h485V0H684q-61 0-112.5 5.5T456 27 333 79t-106 89q-48 54-79 121.5t-44.5 143T86 565t-4 131z"/>
            <glyph unicode="Т" d="M-20 1219v215h1390v-215H809V0H539v1219H-20z"/>
            <glyph unicode="У" horiz-adv-x="1400" d="M-41 1434h299l453-869 436 869h295L690 0H397l174 317z"/>
            <glyph unicode="Ф" horiz-adv-x="1908" d="M82 735q0 136 19.5 239.5T178 1161q64 92 163 124t273 32h205v117h271v-117h202q176 0 275.5-32t163.5-124q57-83 76.5-186.5T1827 735q0-134-16.5-239.5T1745 309q-60-97-158-133.5T1343 139h-253V0H819v139H565q-146 0-243.5 36T164 309q-49 81-65.5 186.5T82 735zm278 0q0-173 31-248 16-37 44.5-63t56.5-39.5 69.5-20.5 68.5-8.5 68-1.5h121v748H659q-90 0-158-24.5T397 983q-37-77-37-248zm730-381h120q41 0 68 1.5t68.5 8.5 70 20.5 57 39.5 44.5 63q30 68 30 248 0 174-39 248-19 37-47.5 62t-65 37-70.5 16-77 4h-159V354z"/>
            <glyph unicode="Х" horiz-adv-x="1323" d="M-41 0l549 727-533 707h320l367-516 366 516h320L815 727 1364 0h-320L662 537 279 0H-41z"/>
            <glyph unicode="Ц" horiz-adv-x="1574" d="M123 209v1225h270V328q0-4-.5-17t0-21 1.5-19 4-19 8-14q18-23 79-23h643v1219h271V215h196V0H352q-39 0-60.5 1.5t-53 11T184 41q-61 52-61 168z"/>
            <glyph unicode="Ч" horiz-adv-x="1466" d="M102 967v467h271v-418q0-36 1-55.5t10-47.5 26-45q43-43 153-43h510v609h270V0h-270v610H416q-22 0-45.5 3.5t-63 14-79 38.5-68.5 69q-58 81-58 232z"/>
            <glyph unicode="Ш" horiz-adv-x="2138" d="M123 182v1252h270V305q0-48 13-67 16-23 63-23h465v1219h270V215h467q46 0 62 23 12 17 12 67v1129h270V182q0-90-45-135-47-47-141-47H309q-90 0-139 47-30 29-38.5 60t-8.5 75z"/>
            <glyph unicode="Щ" horiz-adv-x="2191" d="M123 182v1252h270V305q0-48 13-67 16-23 61-23h467v1219h270V215h541v1219h270V215h197V0H309q-92 0-139 47t-47 135z"/>
            <glyph unicode="Ъ" horiz-adv-x="1622" d="M-20 1219v215h352q95 0 147-56 47-51 47-151V846h680q205 0 281-137 53-95 53-285 0-70-8-128t-21-93.5-21-51.5-15-26q-13-18-32-35.5t-53-40-85.5-36T1192 0H430q-78 0-129 57-45 54-45 160v903q0 55-16 76-20 23-62 23H-20zm546-916q0-48 13-65 16-23 77-23h437q112 0 157 39 24 20 36 54t14 59 2 65-2.5 65-16 56.5T1204 604q-18 13-44.5 19.5t-41 7-51.5.5H526V303z"/>
            <glyph unicode="Ы" horiz-adv-x="1955" d="M123 217v1217h270V846h680q205 0 281-137 53-95 53-285 0-90-16-163.5t-27.5-97T1341 125q-13-18-32-35.5t-52.5-40-85-36T1059 0H297q-78 0-129 57-45 54-45 160zm270 86q0-48 13-65 16-23 77-23h437q112 0 157 39 24 20 36 54.5t13.5 58.5 1.5 65-2.5 65.5-15.5 56-39 50.5q-18 13-44.5 19.5t-41 7-51.5.5H393V303zM1563 0v1434h270V0h-270z"/>
            <glyph unicode="Ь" horiz-adv-x="1488" d="M123 217v1217h270V846h680q205 0 281-137 53-95 53-285 0-90-16-163.5t-27.5-97T1341 125q-13-18-32-35.5t-52.5-40-85-36T1059 0H297q-78 0-129 57-45 54-45 160zm270 86q0-48 13-65 16-23 77-23h437q112 0 157 39 24 20 36 54.5t13.5 58.5 1.5 65-2.5 65.5-15.5 56-39 50.5q-18 13-44.5 19.5t-41 7-51.5.5H393V303z"/>
            <glyph unicode="Э" horiz-adv-x="1363" d="M82 0v215h502q179 0 282 70 78 53 107 130.5t31 205.5H131v215h873q-11 191-107 284-103 99-287 99H102v215h594q278 0 428-148 51-51 84.5-117.5T1257 1024t20-143.5 5-151.5q0-228-38.5-370.5T1102 127Q952 0 696 0H82z"/>
            <glyph unicode="Ю" horiz-adv-x="2125" d="M123 0v1434h270V840h180q-2 129 40 254.5T737 1298q46 44 106.5 74t112 45 126 23 115 9 112.5 1q60 0 93.5-1t94-4.5 104-13.5 96.5-26 98.5-43 84.5-64q95-90 129.5-231t34.5-350q0-90-4.5-155T2020 412.5t-50-155-90-122.5q-45-44-106-74t-112-45-126.5-22.5-115-8.5-111.5-1-112 1-115 8.5T955.5 16 843 61t-106 74q-85 82-126 219t-38 271H393V0H123zm729 717q0-276 90-395 59-77 145-100t222-23q138 0 222 24t142 99q92 119 92 395 0 156-23 247.5t-69 149.5q-27 34-63 57.5t-68.5 35.5-78.5 19-76.5 8-77.5 1q-60 0-99-3t-93.5-13.5-98-36.5-76.5-68q-90-115-90-397z"/>
            <glyph unicode="Я" horiz-adv-x="1513" d="M61 0l541 492v8H416q-84 0-148 38T166 641q-39 67-51.5 149T102 981q0 66 2 105.5t18.5 104T170 1303q51 79 123 105t180 26h703q97 0 157-58 37-35 47.5-71.5t10.5-96.5V0h-271v1124q0 46-28 72-26 23-72 23H569q-93 0-139-48-22-23-33.5-59.5t-13.5-65-2-73.5q0-139 29-187 42-71 135-71h282q123 0 123-88v-33q0-64-61-125L410 0H61z"/>
            <glyph unicode="а" horiz-adv-x="1136" d="M53 348q0 87 18 151t74 113q74 64 199 64h471v76q0 64-31 102-38 47-116 47H133v184h617q68 0 128-22.5t97-61.5q80-84 80-256V182q0-96-43-139T862 0H344q-41 0-66 1.5t-64 14T147 53q-94 81-94 295zm248-10q0-86 33-121 33-33 78-33h333q37 0 54 13 16 14 16 45v250H416q-59 0-88-37-27-34-27-117z"/>
            <glyph unicode="б" horiz-adv-x="1175" d="M82 444v566q0 159 59 258 17 29 41 54.5t63 52.5 98.5 43 131.5 16h584v-185H586q-43 0-69.5-1.5t-69-14.5-68.5-37-42-67-15-89h364q261 0 365-159 44-66 57.5-151t13.5-198q0-74-2-120t-20-126-53-134q-30-47-73-79.5T891.5 24 793-.5t-96-10T596-12q-52 0-81 1t-81.5 5.5T346 10t-77 29.5T194.5 89 137 162q-26 44-38.5 97T84 346.5 82 444zm240-22q0-109 55-172 68-78 215-78 59 0 118 17.5t91 48.5q73 68 73 278 0 189-55 260-22 30-67.5 55T633 856H322V422z"/>
            <glyph unicode="в" horiz-adv-x="1128" d="M82 160v755q0 85 49 127 50 43 145 43h492q52 0 84.5-2.5t81.5-21 80-53.5q57-66 57-201 0-124-49-180-48-55-129-64v-4q86-11 135-72 47-58 47-180 0-165-74-239-30-30-74-46.5t-73-19T782 0H266Q164 0 123 39 82 76 82 160zm240 90q0-31 12-49 15-17 51-17h299q78 0 111 33 32 32 32 115 0 72-28 102-33 35-103 35H322V250zm0 403h370q68 0 101 33 30 30 30 90 0 70-32 98-29 27-95 27H381q-31 0-45-12t-14-41V653z"/>
            <glyph unicode="г" horiz-adv-x="948" d="M82 0v907q0 88 22 121 37 57 129 57h756V901H387q-29 0-49-20-3-3-5.5-7t-4.5-7-3-8l-1.5-7.5-1-9-.5-8V0H82z"/>
            <glyph unicode="д" horiz-adv-x="1181" d="M-20 0v184h98l338 807q22 51 60.5 79t115.5 28q78 0 115-28.5t59-78.5l340-807h96V0H-20zm331 184h561L612 858q-1 2-2.5 7t-3 8-3.5 6.5-5 5.5-6 2q-6 0-13-9.5T569 858z"/>
            <glyph unicode="е" horiz-adv-x="1153" d="M53 532q0 88 3.5 144.5t16 118.5T112 903.5t70 83.5q42 36 96 59t116.5 31.5T495 1088t93 2q117 0 203.5-13.5T946 1020q88-55 121-144.5t33-207.5q0-113-51-164-41-41-117-41H301q0-92 14-150 11-42 34-69.5t56-39.5 62-16 68-4h530V0H463q-50 0-87.5 4T291 20.5t-87.5 42T131 137q-49 69-63.5 164.5T53 532zm248 115h498q53 0 53 64 0 91-70 145-64 49-204 49-38 0-55.5-1t-54.5-6.5-66-21.5-52-42-34-61-12.5-53.5T301 647z"/>
            <glyph unicode="ж" horiz-adv-x="1648" d="M-41 0l410 477q45 58 45 84 0 12-15.5 38T369 641L-4 1085h278l310-385q75-95 75-147 0-51-63-123L242 0H-41zm750 0v1085h231V0H709zm280 553q0 50 76 147l307 385h279l-371-444q-45-52-45-80 0-16 15-41.5t30-42.5L1690 0h-283l-354 430q-64 73-64 123z"/>
            <glyph unicode="з" horiz-adv-x="1085" d="M82 0v184h545q79 0 112 31 37 37 37 117 0 76-45 108-36 27-102 27H113v184h524q24 0 36 1t29.5 7.5T735 680q35 35 35 96 0 63-37 96-35 29-102 29H102v184h619q73 0 127.5-13t97.5-54q72-70 72-209 0-121-49-182-48-56-123-64v-6q75-8 123-63 55-63 55-191 0-164-84-240-44-40-96.5-51.5T723 0H82z"/>
            <glyph unicode="и" horiz-adv-x="1226" d="M82 141v944h240l-11-772q0-15 3-21.5t14-6.5q3 0 6.5 1.5t6.5 5 5 6 5.5 8.5 4.5 7l484 711q52 74 147 74 16 0 30-1.5t39.5-10.5 43-25 31.5-49.5 14-79.5V0H905l8 772q0 3 .5 9t0 8.5-1.5 6-3.5 4.5-7.5 1q-10 0-29-29L395 74q-32-46-64.5-66T240-12Q82-12 82 141z"/>
            <glyph unicode="й" horiz-adv-x="1226" d="M82 141v944h240l-11-772q0-15 3-21.5t14-6.5q3 0 6.5 1.5t6.5 5 5 6 5.5 8.5 4.5 7l484 711q52 74 147 74 16 0 30-1.5t39.5-10.5 43-25 31.5-49.5 14-79.5V0H905l8 772q0 3 .5 9t0 8.5-1.5 6-3.5 4.5-7.5 1q-10 0-29-29L395 74q-32-46-64.5-66T240-12Q82-12 82 141zm156 1278h186q16-53 51-88 49-49 141-49 93 0 142 49 35 35 51 88h186q-18-61-49.5-118.5T879 1212q-88-79-263-79-174 0-262 79-35 31-66.5 88.5T238 1419z"/>
            <glyph unicode="к" horiz-adv-x="1052" d="M82 0v1085h240V0H82zm287 559q0 56 75 141l347 385h284L664 647q-52-52-52-88 0-16 13-39.5t26-36.5L1114 0H825L430 432q-61 66-61 127z"/>
            <glyph unicode="л" horiz-adv-x="1159" d="M-20 0l440 1008q21 45 64 67.5t96 22.5 95.5-22.5T739 1008L1180 0H934L600 838q-12 30-20 30-9 0-21-30L225 0H-20z"/>
            <glyph unicode="м" horiz-adv-x="1515" d="M82 0v942q0 75 53.5 115.5T268 1098q70 0 115-26.5t70-90.5l274-690q5-12 14.5-27.5T758 248q13 0 30 43l275 690q25 64 69.5 90.5T1247 1098q79 0 133-40.5t54-115.5V0h-240l10 786q0 8-4 14.5t-8 6.5q-6 0-18-25L897 78q-33-90-139-90-107 0-140 90L340 782q-8 23-16 23-13 0-13-19L322 0H82z"/>
            <glyph unicode="н" horiz-adv-x="1161" d="M82 0v1085h240V651h518v434h239V0H840v467H322V0H82z"/>
            <glyph unicode="о" horiz-adv-x="1261" d="M53 539q0 313 140 444 42 39 97.5 64.5t121 35T522 1095t109 3 109-3 110.5-12.5 121-35T1069 983q139-130 139-436 0-311-139-443-41-39-97.5-64t-121-35.5T738.5-9 631-12q-61 0-108.5 3T411 4.5 291 40t-98 64Q53 233 53 539zm248 2q0-60 2.5-98t19-91.5T371 262q79-90 260-90 83 0 146 18t112 72q26 28 41.5 61.5t21.5 75 7.5 68T961 541v16q0 57-2 91.5T940.5 737 891 827q-47 52-112 69t-148 17q-187 0-262-86-68-78-68-286z"/>
            <glyph unicode="п" horiz-adv-x="1163" d="M82 0v905q0 29 1 42t9.5 38.5T119 1032q22 25 50.5 37.5t46.5 14 50 1.5h631q51 0 86.5-10t63.5-43q22-26 28-54.5t6-72.5V0H842v838q0 38-15 51-15 12-43 12H379q-29 0-41-12-16-16-16-51V0H82z"/>
            <glyph unicode="р" horiz-adv-x="1144" d="M82-348V918q0 88 61 133 45 34 136 34h378q207 0 320-118 39-41 64.5-92t35.5-110 12.5-100.5 2.5-99.5q0-134-16.5-234T1006 156q-29-42-69-72.5t-76.5-46T777 13 698 2t-73-2H322v-348H82zm240 532h272q142 0 205 101 45 65 45 260 0 163-29 233-24 55-78.5 89T606 901H371q-14 0-33-14-16-16-16-37V184z"/>
            <glyph unicode="с" horiz-adv-x="1050" d="M53 528q0 66 2.5 109t13 109.5T106 869t70 100q116 116 332 116h465V901H586q-114 0-179.5-48T319 729q-18-64-18-205 0-156 35-225 19-37 49.5-61.5t70-35.5 74-14.5T608 184h389V0H475Q263 0 152 133q-61 72-80 164.5T53 528z"/>
            <glyph unicode="т" horiz-adv-x="1054" d="M0 901v184h1055V901H647V0H408v901H0z"/>
            <glyph unicode="у" horiz-adv-x="1169" d="M-20 1085h253l347-823 366 823h244L541-348H297L463 4z"/>
            <glyph unicode="ф" horiz-adv-x="1648" d="M53 530q0 260 76 385 104 170 354 170h222v349h239v-349h221q249 0 355-170 35-56 53-131.5t20-122 2-131.5q0-130-17-218t-73-165q-36-50-80.5-82t-95-45T1243 3.5 1157 0H944v-348H705V0H492q-49 0-84.5 3.5t-87 16.5T224 65t-81 82q-53 72-71.5 167T53 530zm248-2q0-87 7.5-144T344 281q30-53 86-75t156-22h119v717H582q-167 0-230-86-51-71-51-287zm643-344h119q100 0 156 22t86 75q28 46 35.5 103t7.5 144q0 215-52 287-61 86-229 86H944V184z"/>
            <glyph unicode="х" horiz-adv-x="1069" d="M-20 0l417 557L6 1085h275l254-372 253 372h275L674 557 1090 0H807L535 401 262 0H-20z"/>
            <glyph unicode="ц" horiz-adv-x="1210" d="M82 152v933h240V262q0-45 16-61 17-17 65-17h435v901h239V184h154V0H246q-78 0-119 35-29 25-37 51.5T82 152z"/>
            <glyph unicode="ч" horiz-adv-x="1136" d="M61 762v323h240V813q0-89 21-121 36-53 131-53h362v446h240V0H815v455H336q-157 0-223 90-52 67-52 217z"/>
            <glyph unicode="ш" horiz-adv-x="1677" d="M82 164v921h240V256q0-39 10-53 14-19 47-19h340v901h239V184h342q32 0 46 19 10 14 10 53v829h239V164q0-31-1.5-47T1583 79.5 1556 41q-21-19-48.5-28.5t-47-11T1405 0H272q-36 0-55.5 1.5t-48 11T121 41Q82 80 82 164z"/>
            <glyph unicode="щ" horiz-adv-x="1751" d="M82 164v921h240V256q0-42 8-53 13-19 47-19h342v901h239V184h398v901h239V184h156V0H239l-15.5.5-16.5 1-15 2L176.5 7l-14 5-14.5 6.5-13.5 9L121 39Q82 78 82 164z"/>
            <glyph unicode="ъ" horiz-adv-x="1257" d="M0 901v184h303q54 0 94-32 43-39 43-121V674h490q132 0 203-82 44-51 57.5-116.5T1204 326q0-195-82-269-28-26-68-39T985.5 2.5 913 0H362q-79 0-120 39-19 18-28.5 42t-11 40-1.5 45v665q0 37-11 52-12 18-51 18H0zm440-641q0-44 15-59 17-17 53-17h313q76 0 107 35 28 32 28 121v23.5l-.5 12.5-1 14.5-2 13-3.5 14-5 13-7 13.5-9 11q-30 34-99 34H440V260z"/>
            <glyph unicode="ы" horiz-adv-x="1536" d="M82 166v919h240V674h489q132 0 203-82 44-51 57.5-116.5T1085 326q0-196-81-269-28-26-68-39T867.5 2.5 795 0H244q-80 0-121 39-19 18-28.5 42t-11 40-1.5 45zm240 94q0-45 14-59 17-17 53-17h313q76 0 107 35 29 33 29 121 0 84-29 115-30 34-98 34H322V260zM1214 0v1085h240V0h-240z"/>
            <glyph unicode="ь" horiz-adv-x="1138" d="M82 166v919h240V674h489q132 0 203-82 44-51 57.5-116.5T1085 326q0-196-81-269-28-26-68-39T867.5 2.5 795 0H244q-80 0-121 39-19 18-28.5 42t-11 40-1.5 45zm240 94q0-45 14-59 17-17 53-17h313q76 0 107 35 29 33 29 121 0 84-29 115-30 34-98 34H322V260z"/>
            <glyph unicode="э" horiz-adv-x="1069" d="M53 0v184h426q199 0 258 115 33 62 33 176H82v184h686q2 41-11 87t-38 77q-66 78-236 78H68v184h536q204 0 307-116 105-120 105-406 0-300-96-428-63-81-154.5-108T543 0H53z"/>
            <glyph unicode="ю" horiz-adv-x="1673" d="M82 0v1085h240V651h159q11 225 133 334 43 38 96.5 62t116 34.5 110 13.5 112.5 3q63 0 111-3t112-13.5 118.5-34.5 94.5-62q135-128 135-432 0-153-35-269.5T1485 104q-40-39-95-64T1271 4.5 1159-9t-110-3q-65 0-112.5 3t-110 13.5-116 35.5-96.5 64q-57 51-89.5 125t-39 128.5T481 467H322V0H82zm647 530q0-189 59-266 44-57 110.5-74.5T1049 172q51 0 89.5 4.5t90 26T1311 264q61 82 61 283 0 203-59 278-24 30-58 49.5t-75 27-67.5 9.5-63.5 2-63.5-2-67.5-9.5-75-27-57-49.5q-57-77-57-295z"/>
            <glyph unicode="я" horiz-adv-x="1163" d="M41 0l356 375q15 15 15 24 0 13-21 13h-57q-127 0-197 92-61 82-61 258 0 174 80 254 69 69 186 69h553q93 0 135-38 51-47 51-160V0H842v817q0 51-17 68-16 16-69 16H442q-63 0-92-37-26-30-26-114 0-92 22-123 13-18 31.5-27t32.5-10.5 41-1.5h145q15 0 29-2.5t33-10.5 30.5-28.5T700 496q0-60-41-111L322 0H41z"/>
            <glyph unicode="ё" horiz-adv-x="1153" d="M53 532q0 88 3.5 144.5t16 118.5T112 903.5t70 83.5q42 36 96 59t116.5 31.5T495 1088t93 2q117 0 203.5-13.5T946 1020q88-55 121-144.5t33-207.5q0-113-51-164-41-41-117-41H301q0-92 14-150 11-42 34-69.5t56-39.5 62-16 68-4h530V0H463q-50 0-87.5 4T291 20.5t-87.5 42T131 137q-49 69-63.5 164.5T53 532zm191 715v201h221v-201H244zm57-600h498q53 0 53 64 0 91-70 145-64 49-204 49-38 0-55.5-1t-54.5-6.5-66-21.5-52-42-34-61-12.5-53.5T301 647zm383 600v201h221v-201H684z"/>
            <glyph unicode="ђ" horiz-adv-x="1228" d="M0 1208v135h160v91h239v-91h318v-135H399v-123h355q96 0 157.5-17t112.5-58q77-63 100-139.5t23-188.5V305q0-99-29-221-18-76-34-120.5T1032-150q-55-109-125-198H641Q752-202 807-94q51 96 76 196 24 99 24 213v351q0 108-53 170-56 65-174 65H399V0H160v1208H0z"/>
            <glyph unicode="ѓ" horiz-adv-x="907" d="M0 0v907q0 86 23 121 37 57 129 57h755V901H305q-29 0-49-20-3-3-5.5-7t-4.5-7-3-8l-1.5-7.5-1-9-.5-8V0H0zm205 1313l330 272 122-153-331-271z"/>
            <glyph unicode="є" horiz-adv-x="1071" d="M53 567q0 277 107 398 103 120 309 120h535V909H545q-147 0-203-90-19-30-30-78.5T301 651h688V479H301q-3-112 35-190 53-105 215-105h467V0H528q-45 0-73.5 1t-77 8.5-83 21-74 40.5-68.5 66Q53 268 53 567z"/>
            <glyph unicode="ѕ" horiz-adv-x="1079" d="M53 807q0 114 51 184 29 41 77 63t87 26.5 97 4.5h612V901H401q-57 0-84-20-20-15-25-33t-5-45q0-28 6.5-47t28.5-37q33-27 135-55l233-66q113-32 174-58t97-65q65-70 65-199 0-159-90-231Q876 0 762 0H68v184h610q54 0 80 31 20 23 20 68 0 54-30 82-26 23-197 69l-209 58q-177 48-238 131-51 70-51 184z"/>
            <glyph unicode="і" horiz-adv-x="403" d="M82 0v1085h240V0H82zm0 1243v191h240v-191H82z"/>
            <glyph unicode="ї" horiz-adv-x="518" d="M-41 1229v221h205v-221H-41zM139 0v1085h240V0H139zm215 1229v221h205v-221H354z"/>
            <glyph unicode="ј" horiz-adv-x="563" d="M-82-180q101-2 150.5 7.5T158-133q43 31 63.5 78T242 76v1009h239V27q0-207-139-312-128-92-424-80v185zm324 1423v191h239v-191H242z"/>
            <glyph unicode="љ" horiz-adv-x="1857" d="M-20 0l583 991q13 21 26.5 35.5t39 33T696 1088t97 10q135 0 191-38t56-122V651h500q119 0 184-63 80-76 80-256 0-195-82-275-28-28-65.5-41T1596 1.5 1524 0H963q-84 0-123 39-39 41-39 127v698q0 28-10 39.5T770 915q-21 0-37-28L246 0H-20zm1060 260q0-40 13-59 15-17 55-17h322q65 0 96 35 30 34 30 117 0 80-28 110-29 33-98 33h-390V260z"/>
            <glyph unicode="њ" horiz-adv-x="1896" d="M82 0v1085h240V655h518v430h239V655h500q115 0 184-69 49-49 64.5-114t15.5-146q0-191-82-269-22-21-46-33.5t-54-17-46-5.5-52-1h-562q-83 0-122 39-39 41-39 127v305H322V0H82zm997 260q0-40 13-59 15-17 53-17h321q68 0 99 35 30 32 30 117 0 76-28 106-29 29-101 29h-387V260z"/>
            <glyph unicode="ћ" horiz-adv-x="1228" d="M0 1208v135h160v91h239v-91h318v-135H399v-123h326q106 0 177-16t126-61q119-99 119-293V0H907v647q0 127-55 191-57 63-172 63H399V0H160v1208H0z"/>
            <glyph unicode="ќ" horiz-adv-x="1052" d="M82 0v1085h240V0H82zm283 1300l329 273 123-154-332-270zm4-741q0 56 75 141l347 385h284L664 647q-52-52-52-88 0-16 13-39.5t26-36.5L1114 0H825L430 432q-61 66-61 127z"/>
            <glyph unicode="ў" horiz-adv-x="1169" d="M-20 1085h253l347-823 366 823h244L541-348H297L463 4zm225 334h186q12-49 51-88 51-49 142-49 90 0 141 49 39 39 51 88h187q-14-58-46-115t-71-92q-90-79-262-79-79 0-143.5 15.5T322 1212q-40 37-71.5 93.5T205 1419z"/>
            <glyph unicode="џ" horiz-adv-x="1161" d="M82 143v942h240V246q0-41 10-51 11-11 41-11h418q27 0 38 11t11 51v839h239V143q0-70-32-104-24-26-49-32.5T930 0H705v-360H459V0H233q-28 0-43 1.5T153 12t-38 27Q82 74 82 143z"/>
            <glyph unicode="Ґ" horiz-adv-x="1249" d="M143 0v1235q0 94 47 147 47 52 148 52h631.5l7.5.5 6.5 1.5 7 2 6 2.5 6 4 5.5 5.5q12 17 12 63v177h270v-326q0-64-28-98-37-45-123-45H471q-36 0-47-19-10-18-10-72V0H143z"/>
            <glyph unicode="ґ" horiz-adv-x="937" d="M82 0v934q0 28 .5 40t9 33.5T117 1047t38 27 33 10 35 1h459q32 0 51 17 5 5 7.5 9t3.5 8.5 1.5 7.5 0 8.5-.5 7.5v205h234v-295q0-78-33-109-33-33-119-33H381q-39 0-51-12-8-8-8-53V0H82z"/>
            <glyph horiz-adv-x="969"/>
            <glyph horiz-adv-x="1939"/>
            <glyph horiz-adv-x="969"/>
            <glyph horiz-adv-x="1939"/>
            <glyph horiz-adv-x="646"/>
            <glyph horiz-adv-x="484"/>
            <glyph horiz-adv-x="323"/>
            <glyph horiz-adv-x="323"/>
            <glyph horiz-adv-x="242"/>
            <glyph horiz-adv-x="387"/>
            <glyph horiz-adv-x="107"/>
            <glyph unicode="‐" horiz-adv-x="894" d="M82 446v211h731V446H82z"/>
            <glyph unicode="‑" horiz-adv-x="894" d="M82 446v211h731V446H82z"/>
            <glyph unicode="‒" horiz-adv-x="894" d="M82 446v211h731V446H82z"/>
            <glyph unicode="–" horiz-adv-x="1171" d="M82 446v211h1008V446H82z"/>
            <glyph unicode="—" horiz-adv-x="2226" d="M123 446v211h1980V446H123z"/>
            <glyph unicode="‘" horiz-adv-x="595" d="M123 1403l178 108 274-401-194-119z"/>
            <glyph unicode="’" horiz-adv-x="534" d="M0 1100l258 411 195-118-275-402z"/>
            <glyph unicode="‚" horiz-adv-x="575" d="M0-129l260 412 193-119-275-402z"/>
            <glyph unicode="“" horiz-adv-x="1013" d="M20 1403l179 108 272-401-192-119zm418 0l178 108 275-401-193-119z"/>
            <glyph unicode="”" horiz-adv-x="1013" d="M20 1100l261 411 192-118-274-402zm420 0l258 411 193-118-275-402z"/>
            <glyph unicode="„" horiz-adv-x="993" d="M0-129l258 412 193-119-273-402zm418 0l260 412 192-119-274-402z"/>
            <glyph unicode="…" horiz-adv-x="1359" d="M123 0v264h250V0H123zm432 0v264h250V0H555zm432 0v264h250V0H987z"/>
            <glyph horiz-adv-x="387"/>
            <glyph unicode="‹" horiz-adv-x="733" d="M123 575q0 61 43 125l280 392 164-123-231-332q-25-37-25-62 0-28 25-61l231-332L446 61 166 451q-43 65-43 124z"/>
            <glyph unicode="›" horiz-adv-x="733" d="M123 182l231 332q25 33 25 61 0 25-25 62L123 969l164 123 280-392q43-65 43-125 0-59-43-124L287 61z"/>
            <glyph horiz-adv-x="484"/>
            <glyph unicode="€" horiz-adv-x="1318" d="M45 559l41 90h104q-2 18-2 68 0 45 2 61H45l41 88h113q18 138 59 241t111.5 181.5 180.5 119 257 40.5q274 0 391-117l14-194h-49q-18 114-98 167.5T860 1358q-97 0-169-35t-117-102.5-71-153.5-38-201h618l-41-88H461q-2-20-2-65v-64h524l-41-90H465q19-230 121-354.5T860 80q118 0 201 53.5T1163 301h49l-14-186Q1079-8 807-8 269-8 205 559H45z"/>
            <glyph unicode="™" horiz-adv-x="2127" d="M0 1272v164h805v-164H494V610H311v662H0zm913-662v738q0 43 40.5 70.5T1067 1446q75 0 113.5-21.5t54.5-64.5l203-545q14-27 20-27 8 0 21 27l202 545q32 86 168 86 156 0 156-98V610h-174v615q0 22-16 22-13 0-23-24l-201-529q-18-47-44.5-69.5T1458 602q-23 0-37.5 2.5t-34 10.5-34.5 28-27 51l-199 529q-10 24-22 24-17 0-17-22V610H913z"/>
            <glyph unicode="◼" horiz-adv-x="1085" d="M0 0v1085h1085V0H0z"/>
            </font>
</defs>
</svg>
