<svg xmlns="http://www.w3.org/2000/svg"><defs><font id="magistralcregular" horiz-adv-x="1394"><font-face units-per-em="2048" ascent="1679" descent="-369"/><glyph horiz-adv-x="0"/><glyph horiz-adv-x="682"/><glyph horiz-adv-x="477"/><glyph horiz-adv-x="477"/><glyph horiz-adv-x="477"/><glyph unicode="!" horiz-adv-x="397" d="M143 0v158h111V0H143zm0 324v1110h111V324H143z"/><glyph unicode="&quot;" horiz-adv-x="536" d="M102 1051v383h111v-383H102zm222 0v383h110v-383H324z"/><glyph unicode="#" horiz-adv-x="1638" d="M61 399l39 97h287l188 465H289l39 96h286l152 377h106l-151-377h463l151 377h107l-152-377h287l-39-96h-287l-188-465h287l-39-97h-287L864 0H758l160 399H455L295 0H188l160 399H61zm433 97h462l189 465H682z"/><glyph unicode="$" horiz-adv-x="1331" d="M102 1112q0 141 68 225 50 60 107.5 78.5T416 1434h202v139h91v-139h450v-97H709V764l270-102q106-37 170-101 50-49 65-101.5t15-125.5q0-83-19.5-150T1130 66q-36-31-83.5-46.5T967.5 2 877 0H709v-139h-91V0H135v96h483v596L307 809q-100 38-147 94-58 69-58 209zm115-4q0-158 107-199l294-110v538H403q-104 0-149-63-37-50-37-166zM709 96h204q99 0 158 68 43 52 43 155 0 106-39 159.5T967 559l-258 98V96z"/><glyph unicode="%" d="M102 1104q0 200 78 278 64 64 193 64 128 0 192-64 78-78 78-278 0-201-78-279-63-63-192-63-130 0-193 63-78 78-78 279zm103 0q0-148 41-205 42-53 127-53t127 53q41 57 41 205t-41 205q-42 53-127 53t-127-53q-41-57-41-205zM328 0l651 1434h96L424 0h-96zm424 330q0 201 77 278 64 64 193 64 128 0 192-64 78-78 78-278 0-201-78-279-63-63-192-63-130 0-193 63-77 77-77 279zm102 0q0-46 2-75t12.5-66.5T899 125q25-33 54.5-43t68.5-10 68.5 10 54.5 43q20 26 30.5 63.5T1188 255t2 75-2 75-12.5 66.5T1145 535q-25 33-54.5 43t-68.5 10-68.5-10-54.5-43q-20-26-30.5-63.5T856 405t-2-75z"/><glyph unicode="&amp;" horiz-adv-x="1294" d="M102 391q0 162 45 225 24 35 66.5 61.5T305 713v4q-91 10-143 86-60 86-60 252 0 207 86 295 80 84 244 84h612v-97H451q-118 0-172-49-29-27-44-75t-16.5-76.5-1.5-73.5q0-38 1-57t5.5-56.5 17-67T274 831q32-35 91.5-54T487 758h787v-96h-240V156q0-91-26-121-14-17-42-25.5t-42.5-9T879 0H453q-44 0-70 2t-66.5 10T242 41t-62 55q-34 42-52.5 98.5t-22 97T102 391zm115-20q0-45 1-70.5t9.5-62.5 24.5-62q18-28 42-45.5t53.5-24T398 98t53-2h393q65 0 78 13 14 12 14 55v498H416q-123 0-174-93-12-21-17.5-54t-6.5-60-1-84z"/><glyph unicode="'" horiz-adv-x="315" d="M102 1051v383h111v-383H102z"/><glyph unicode="(" horiz-adv-x="663" d="M143 303v520q0 193 21 279 38 145 141 229 123 98 297 111v-94q-113-8-187-60.5T303 1171q-57-99-57-294V250q0-196 57-295 38-64 112-116t187-60v-94q-169 5-297 112-110 91-143 242-19 90-19 264z"/><glyph unicode=")" horiz-adv-x="663" d="M61-221q113 8 187 60T360-45q58 101 58 295v627q0 193-58 294-38 64-112 116.5T61 1348v94q174-13 297-111 105-85 142-229 5-19 8.5-39.5t5.5-44 3.5-38.5 2-43.5.5-37.5V303q0-179-18-264-33-150-144-242Q230-310 61-315v94z"/><glyph unicode="*" horiz-adv-x="1040" d="M102 782l332 193-332 192 43 74 332-192v385h86v-385l332 192 43-74-332-192 332-193-43-73-332 192V516h-86v385L145 709z"/><glyph unicode="+" horiz-adv-x="1159" d="M143 586v98h381v381h111V684h381v-98H635V205H524v381H143z"/><glyph unicode="," horiz-adv-x="397" d="M0-117l197 330 98-59L98-176z"/><glyph unicode="-" horiz-adv-x="819" d="M102 496v118h615V496H102z"/><glyph unicode="." horiz-adv-x="327" d="M102 0v178h123V0H102z"/><glyph unicode="/" horiz-adv-x="958" d="M-20-334l897 1850h102L82-334H-20z"/><glyph unicode="0" horiz-adv-x="1253" d="M102 479v508q0 220 144 348 79 70 168.5 90.5T627 1446t212.5-20.5T1008 1335q143-127 143-348V479q0-288-176-411-22-15-45.5-27T888 21 843 7.5t-41-8-44.5-4T716-6H538l-41.5 1.5-44.5 4-41 8L366 21l-41.5 20L279 68Q102 191 102 479zm111 39q0-71 3-114.5T239 300t58-103q32-36 71.5-58.5t86-32 82-12T625 92q55 0 91 2.5t83.5 12 86.5 32 70 58.5q38 43 58 103t23 103.5 3 114.5v438q0 222-133 318-45 33-117.5 51.5T684 1346t-57 2q-25 0-58-2t-105.5-20.5T346 1274q-133-96-133-318V518z"/><glyph unicode="1" horiz-adv-x="428" d="M-20 1335v99h172q61 0 96-27 37-31 37-111V0H174v1253q0 46-8 62-11 20-41 20H-20z"/><glyph unicode="2" horiz-adv-x="1198" d="M102 98q0 69 56 113l714 565q63 51 86 107.5t23 169.5q0 166-37 217-45 65-166 65H209v99h559q51 0 85.5-3.5t81-21 79.5-51.5q82-84 82-299 0-174-62-264-20-29-51-59t-49-44L242 143q-4-2-14.5-12.5T217 115q0-17 19-17h778V0H209Q102 0 102 98z"/><glyph unicode="3" horiz-adv-x="1155" d="M102 0v98h584q45 0 69.5 1t57.5 9 53 23q34 24 51.5 76.5t19 82.5 1.5 75q0 193-68 256-54 51-155 51H139v98h566q120 0 174 57 23 25 35 66.5t14 74 2 83.5q0 53-1 79.5t-11.5 72T885 1276q-45 59-129 59H135v99h602q36 0 60.5-2.5t60-11 66.5-30 57-55.5q63-85 63-284 0-191-61-265-51-59-131-67v-4q79-10 129-68 72-80 72-266 0-210-80-301-43-49-96.5-64.5T752 0H102z"/><glyph unicode="4" horiz-adv-x="1249" d="M41 401q0 52 51 109l733 866q19 22 32 34.5t41.5 26T958 1450q46 0 66-27 14-21 14-67V383h150v-98h-150V0H928v285H199q-81 0-113 24-20 13-32.5 38.5T41 401zm111 9q0-27 43-27h733v942q0 6-8 6-3 0-21-18L182 459q-30-35-30-49z"/><glyph unicode="5" horiz-adv-x="1169" d="M102 0v98h652q63 0 101.5 26.5T911 182q41 68 41 246 0 129-39 190-47 68-139 68H387q-145 0-205 45-78 58-78 176v379q0 70 39 109 37 39 109 39h760v-99H270q-11 0-25-5t-18-11q-12-15-12-59V948q0-79 21-112 14-22 45-37t69-15h422q46 0 76-3.5t71.5-23.5 73.5-57q25-30 41.5-66.5t23-78.5 8-70.5 1.5-70.5q0-248-96-342-46-44-100-58T750 0H102z"/><glyph unicode="6" horiz-adv-x="1167" d="M102 391v676q0 208 127 303 83 64 217 64h549v-99H469q-125 0-190-69-66-69-66-193V856h477q53 0 88-3.5t84.5-23T952 774q49-44 76-110.5t32-114.5 5-113q0-191-61-289-52-85-134-116T680 0H471Q326 0 238 59q-42 28-70.5 66.5t-42 84.5-18.5 88-5 93zm111-26q0-134 57-197 62-70 197-70h213q145 0 209 82 61 79 61 262 0 34-1.5 57t-7 59-20.5 67.5-38 56.5q-31 33-75 51t-74 21.5-70 3.5H213V365z"/><glyph unicode="7" horiz-adv-x="952" d="M-41 1335v99h901q27 0 46.5-3.5T948 1417t33.5-33 11.5-59q0-63-41-129L195 0H70l780 1239q24 37 24 64 0 21-9 26.5t-25 5.5H-41z"/><glyph unicode="8" horiz-adv-x="1208" d="M102 369q0 217 84 297 49 46 129 57v4q-70 15-112 68-66 78-66 245 0 234 90 320 78 74 269 74h217q190 0 268-74 90-86 90-320 0-169-65-245-42-53-113-68v-4q80-11 129-57 84-80 84-297 0-54-3-88.5t-17.5-81.5-43.5-84q-53-67-123.5-91T762 0H446q-86 0-156.5 24T166 115q-41 54-52.5 112.5T102 369zm115 20q0-156 49-219 52-72 180-72h316q128 0 180 72 49 63 49 219 0 179-80 242-27 21-70.5 33T754 676H455q-43 0-87-12t-71-33q-80-63-80-242zm35 655q0-138 35-192 51-78 192-78h250q142 0 193 78 34 53 34 192 0 187-71 248-24 20-58.5 30t-57.5 11.5-62 1.5H502q-39 0-62-1.5t-57.5-11.5-58.5-30q-72-62-72-248z"/><glyph unicode="9" horiz-adv-x="1167" d="M102 1010q0 247 115 346 56 48 127 63t162 15h158q249 0 340-131 61-90 61-250V467q0-201-49-299Q931 0 698 0H186v98h473q158 0 226 70 69 74 69 260v166H426q-152 0-238 100-52 59-69 137.5T102 1010zm115 2q0-186 72-258 28-28 71-43t72.5-17 77.5-2h444v359q0 148-65 215-67 69-205 69H481q-126 0-190-71-74-80-74-252z"/><glyph unicode=":" horiz-adv-x="368" d="M123 0v166h123V0H123zm0 920v165h123V920H123z"/><glyph unicode=";" horiz-adv-x="417" d="M0-117l197 330 98-59L98-176zM172 920v165h123V920H172z"/><glyph unicode="&lt;" horiz-adv-x="1161" d="M143 678l875 440v-110L340 678l678-330V238z"/><glyph unicode="=" horiz-adv-x="1159" d="M143 475v98h873v-98H143zm0 221v99h873v-99H143z"/><glyph unicode="&gt;" horiz-adv-x="1161" d="M143 238v110l678 330-678 330v110l875-440z"/><glyph unicode="?" horiz-adv-x="894" d="M20 1335v99h474q75 0 130.5-16t104.5-66q84-86 84-265 0-75-14-130t-43.5-93.5-58-61.5-74.5-50L422 633q-48-26-70-60-22-37-22-73V324H219v155q0 93 39 148 31 46 119 98l188 111q80 48 106.5 101.5T698 1073q0 144-49 201-50 61-170 61H20zM219 0v158h111V0H219z"/><glyph unicode="@" horiz-adv-x="1992" d="M123 586q0 126 3.5 201t16 160.5 41 150.5 74.5 123q55 69 124.5 114t149.5 65.5 147.5 27T836 1434h370q43 0 72-1t80-6 89-14.5 88-28.5 89-45 79.5-67.5 70.5-93.5q61-105 78.5-225t17.5-291q0-153-12.5-257.5T1808 223q-44-90-110-126t-164-36q-17 0-35.5 2T1446 75t-60.5 28-52.5 54.5-37 86.5Q1191 61 930 61q-234 0-328 168-28 51-42.5 118.5t-16.5 108-2 107.5q0 214 55 326 29 56 70.5 96t88.5 59.5 90 28 89 8.5h266q47 0 78-7.5t59-35.5q11-11 18.5-23t11-21 5.5-23 2.5-20.5 0-23-.5-20.5V383.5l3-45.5 8.5-52 18-47 30-43 45.5-26.5 63-11.5q133 0 184 145 18 49 23.5 127t5.5 250q0 143-14 244t-51 178q-30 61-73.5 105.5t-88.5 69-102.5 38.5-104 18-104.5 4H825q-45 0-81-2t-86-9-90.5-19-86-34.5T401 1219t-66.5-78-51.5-105q-45-133-45-448 0-310 41-453 22-77 61-137t87-95.5 95.5-59T624-190t89.5-13.5T788-207h594v-96H762q-345 0-504 221-80 111-107.5 270T123 586zm532-19q0-166 25-250 18-52 45-85.5t63.5-48.5 69-20 78.5-5q39 0 69.5 3.5t67.5 14 69 35 58 61.5q68 97 68 283v363q0 29-17 49-18 20-65 20H975q-43 0-74.5-3.5t-71-15-71-38T705 862q-50-95-50-295z"/><glyph unicode="A" horiz-adv-x="1376" d="M-20 0l548 1298q30 72 66 112t94 40 93.5-40 66.5-112L1397 0h-119l-174 418H272L98 0H-20zm335 516h746l-313 750q-1 1-4.5 10t-5 12-5 11.5-6 12.5-6.5 11-7.5 10.5l-7.5 7.5-8.5 5.5-9.5 1.5q-6 0-11.5-2.5t-11-9-9-11-8.5-15-7-15-6.5-16.5-5.5-13z"/><glyph unicode="B" d="M143 184v1061q0 89 41 139 43 50 127 50h662q139 0 215-80 90-92 90-307 0-78-12.5-136T1217 805q-52-67-132-76v-8q93-10 148-78 22-26 35-55.5t17.5-69 5.5-61 1-70.5q0-55-1.5-80.5T1282 236t-26-81-50-71q-47-52-93.5-68T1001 0H369q-4 0-23-.5t-27 0T293 1t-29.5 4.5T237 14t-27.5 13.5T186 47q-43 45-43 137zm111 25q0-71 14-88 18-23 94-23h572q43 0 67 1.5t64 18 63 48.5q46 61 46 219 0 156-37 211-21 32-63 54t-85 22H254V209zm0 561h672q139 0 188 64 45 57 45 227 0 166-65 231-21 20-48.5 30t-44.5 11.5-45 1.5H336q-48 0-62-16-20-20-20-66V770z"/><glyph unicode="C" horiz-adv-x="1308" d="M102 696q0 86 5 152t19.5 144.5 47 146T256 1260q67 73 176.5 123.5T696 1434h549v-99H743q-287 0-415-166-46-59-71-147t-30.5-159-5.5-169q0-61 2-99t9.5-102T261 373.5 315 272Q440 98 713 98h555V0H690Q424 0 262 162q-89 89-124.5 216T102 696z"/><glyph unicode="D" horiz-adv-x="1490" d="M143 158v1071q0 99 50 151 52 54 135 54h487q248 0 412-166 45-45 76.5-101t48-105 25.5-112.5 10.5-105.5 1.5-103q0-76-4.5-139t-18-143.5-44-154T1245 172Q1110 0 852 0H344Q238 0 195 35q-52 40-52 123zm111 30q0-59 14-73 17-17 66-17h514q242 0 344 191 78 149 78 461 0 141-21.5 244t-89.5 188q-59 74-147.5 113.5T821 1335H338q-39 0-57-14-27-23-27-64V188z"/><glyph unicode="E" horiz-adv-x="1269" d="M143 199v1044q0 88 41 137 28 33 64 43.5t86 10.5h846v-99H350q-51 0-74-20-22-17-22-72V782h905v-98H254V174q0-40 20-57 10-8 40.5-13.5T367 98h821V0H338q-36 0-53 1t-46.5 11T188 43q-29 29-37 66.5t-8 89.5z"/><glyph unicode="F" horiz-adv-x="1175" d="M143 0v1288q0 64 39 103 26 28 56 35.5t73 7.5h824v-99H303q-27 0-37-12-12-14-12-45V778h643v-98H254V0H143z"/><glyph unicode="G" horiz-adv-x="1441" d="M102 709q0 69 3 123.5t12 120 27 119.5 45 107 70 97.5 99 77.5q134 80 334 80h615v-99H662q-129 0-227.5-59T287 1120q-66-133-66-403t64-412q42-90 126.5-148.5T614 98h529q49 0 67 23 19 22 19 67v469h110V160q0-84-39-121-39-39-129-39H616Q432 0 303 104q-66 52-108.5 125T133 389t-25 157.5-6 162.5z"/><glyph unicode="H" horiz-adv-x="1437" d="M143 0v1434h111V778h930v656h110V0h-110v680H254V0H143z"/><glyph unicode="I" horiz-adv-x="397" d="M143 0v1434h111V0H143z"/><glyph unicode="J" horiz-adv-x="802" d="M-41 0v98h262q146 0 234 84 94 92 94 297v955h110V481q0-234-110-350Q423 0 244 0H-41z"/><glyph unicode="K" horiz-adv-x="1282" d="M143 0v1434h111V0H143zm191 737q0 39 30.5 81.5T436 893l672 541h160L535 840q-2-1-11.5-8t-14-10.5-14.5-12-15.5-14L466 782l-12-15-7-15.5-3-16.5q0-42 99-118 2-3 4-4.5t4-2.5L1343 0h-165L459 555q-57 44-91 92t-34 90z"/><glyph unicode="L" horiz-adv-x="1112" d="M143 131v1303h111V168q0-37 16-53 19-17 62-17h821V0H299q-80 0-117 31-39 32-39 100z"/><glyph unicode="M" horiz-adv-x="1908" d="M143 0v1315q0 59 37.5 97t98.5 38q57 0 90.5-34t64.5-107L920 141q1-2 2.5-6.5t2.5-7l3-7.5 3.5-7.5 4.5-6 5.5-5.5 5.5-3.5 7-1.5q3 0 6 1t6 3 5 4 4 6 3.5 5.5 3.5 6.5 2.5 6.5l2.5 7.5 2 5 486 1168q31 73 64.5 107t90.5 34q61 0 98-38t37-97V0h-110v1315q0 19-9.5 28t-19.5 9q-9 0-21.5-14t-17.5-27L1100 139q-33-78-64-116.5T954-16q-50 0-81 38t-64 117L322 1311q-5 13-17.5 27t-21.5 14q-10 0-19.5-9t-9.5-28V0H143z"/><glyph unicode="N" horiz-adv-x="1499" d="M143 0v1305q0 40 12.5 69.5t28 43.5 37.5 22 33.5 9 24.5 1q37 0 65-15.5t42-32.5 34-48l754-1217q1-1 4-6t4-6.5l4-6 5-6 5.5-4.5 6.5-4.5 7-2.5 9-1q12 0 18.5 7.5t7 13 .5 16.5v1297h111V143q0-73-33.5-116T1225-16q-48 0-78.5 23T1081 88L332 1298q-20 35-47 35-5 0-11-2.5t-13-12.5-7-26V0H143z"/><glyph unicode="O" horiz-adv-x="1593" d="M102 717q0 81 4.5 141t19.5 145 52 159.5 94 131.5q52 52 118.5 86t142.5 48 132 18 132 4q59 0 103-2t107-11 113-24.5 104.5-46 96.5-72.5q57-57 94-131.5t52-159.5 19.5-145 4.5-141-4.5-141.5T1467 430t-52-159.5-94-131.5q-52-52-118-85.5T1061 6 929-12t-132-4-132 4T533 6 390.5 53.5 272 139q-57 57-94 131.5T126 430t-19.5 145.5T102 717zm119 0q0-80 3-132.5T237.5 459 275 326t69-107q44-48 100-78.5t125.5-42 112.5-14T797 82q57 0 89.5 1t91.5 8 100 20.5 88.5 41T1249 219q42 47 69 107t37.5 133 13.5 125.5 3 132.5-3 132.5-13.5 125T1318 1107t-69 107q-44 48-100 78.5t-124.5 42T912 1349t-115 3-115-3-113-14.5-125-42-100-78.5q-42-47-69-107t-37.5-132.5-13.5-125-3-132.5z"/><glyph unicode="P" d="M143 0v1264q0 94 39 131 41 39 137 39h592q58 0 95.5-3.5t88.5-21 89-51.5q60-51 84-136t24-229q0-255-118-346-77-61-193-61H254V0H143zm111 684h664q143 0 200 66 56 67 56 272 0 182-60 248-57 65-192 65H336q-30 0-47.5-6t-24.5-20.5-8.5-26-1.5-35.5V684z"/><glyph unicode="Q" horiz-adv-x="1599" d="M102 717q0 81 4.5 141t19.5 145 52 159.5 94 131.5q52 52 118.5 86t142.5 48 132 18 132 4q61 0 105.5-2t108-11 113-24.5 104-46 97.5-72.5q78-78 122-211t44-366q0-330-90-479-54-87-137-134v-6h241V0H799q-58 0-98.5 1.5t-107 9-117 21-107 41T272 139q-57 55-94 130.5T126 432t-19.5 147.5T102 717zm119 0q0-74 3-126t13.5-128T275 324.5 344 219q51-53 134.5-81.5t151.5-34T797 98q98 0 166 5.5t151.5 34T1249 219q42 44 69 105.5t37.5 136.5 13.5 127.5 3 128.5q0 81-3 133t-13.5 124.5-37.5 132-69 107.5q-41 46-93 75.5t-115.5 42T925 1348t-128 4-128-4-116-16.5-116-42-93-75.5q-42-48-69-107.5t-37.5-132T224 850t-3-133z"/><glyph unicode="R" horiz-adv-x="1435" d="M143 0v1214q0 38 2.5 61.5t16.5 54 41 54.5q57 50 155 50h605q191 0 272-123 63-96 63-307 0-199-63-299-79-125-256-125H662v-11L1333 0h-162L539 541q-3 2-8 7-21 18-26 26t-5 24v33q0 23 13.5 35t35.5 12h444q50 0 89 24t59 56q39 66 39 254 0 40-1 63t-6.5 69-21 81.5-39.5 58.5q-55 51-170 51H356q-49 0-73-22-29-27-29-74V0H143z"/><glyph unicode="S" horiz-adv-x="1323" d="M102 1114q0 166 97 248 84 72 227 72h727v-99H414q-41 0-83-14.5t-67-40.5q-43-47-43-170 0-41 4-68t17.5-59.5 44.5-57 80-42.5l557-197q80-29 128-51.5t81-54.5q88-83 88-232 0-165-70-254-24-31-52.5-51T1038 14.5 980.5 3 922 0H125v98h809q168 0 168 246 0 40-6 69.5t-23.5 62-55 58.5-95.5 46L350 776q-119 41-176 107-72 83-72 231z"/><glyph unicode="T" horiz-adv-x="1228" d="M-41 1335v99h1311v-99H670V0H559v1335H-41z"/><glyph unicode="U" horiz-adv-x="1384" d="M143 446v988h111V485q0-44 1.5-73t8-71.5 22.5-79 42-66.5q41-49 108-75.5t122-32T692 82t134.5 5.5 122.5 32 108 75.5q33 39 50.5 96t20 95 2.5 99v949h111V446q0-203-102-317Q1007-16 692-16q-314 0-446 145-103 115-103 317z"/><glyph unicode="V" horiz-adv-x="1245" d="M-41 1434H84L588 125q11-31 35-31 23 0 34 31l504 1309h125L748 78q-13-35-45.5-64.5T623-16q-11 0-23 2.5T568-3t-39 29-31 52z"/><glyph unicode="W" horiz-adv-x="1843" d="M-41 1434H72L395 135q7-45 35-45 11 0 23 11t16 26l307 1184q37 139 146 139 108 0 145-139l307-1184q4-15 16-26t23-11q27 0 35 45l324 1299h112L1544 104q-32-120-135-120-35 0-61 11.5T1306 28t-24.5 40.5T1266 115L954 1292q-8 41-32 41-25 0-33-41L578 115q-7-26-16-46t-25-41-42-32.5T434-16q-103 0-135 120z"/><glyph unicode="X" horiz-adv-x="1146" d="M-41 0l555 727-539 707h131l467-627 467 627h131L633 727 1188 0h-131L573 647 90 0H-41z"/><glyph unicode="Y" horiz-adv-x="1216" d="M-41 1434H82l526-863 527 863h122L664 471V0H553v471z"/><glyph unicode="Z" horiz-adv-x="1183" d="M20 115q0 54 50 108l952 1028q7 7 14.5 26t7.5 28q0 30-36 30H70v99h964q55 0 92-30t37-81q0-60-49-113L158 166q-19-23-19-43 0-25 23-25h973V0H168q-45 0-76.5 12.5T46 44.5 26 81t-6 34z"/><glyph unicode="[" horiz-adv-x="663" d="M143-315v1757h459v-94H246V-221h356v-94H143z"/><glyph unicode="\" horiz-adv-x="958" d="M-20 1516H82L979-334H877z"/><glyph unicode="]" horiz-adv-x="663" d="M61-221h357v1569H61v94h459V-315H61v94z"/><glyph unicode="^" horiz-adv-x="925" d="M61 1124l322 275q39 35 80 35t80-35l321-275-57-71-301 264q-23 18-43 18-21 0-43-18l-301-264z"/><glyph unicode="_" horiz-adv-x="1212" d="M102 0v119h1008V0H102z"/><glyph unicode="`" horiz-adv-x="438" d="M61 1352l64 80 252-205-64-80z"/><glyph unicode="a" horiz-adv-x="1034" d="M61 336q0 179 91 256 69 57 202 57h471v162q0 29-11 67.5T784 940q-42 49-114 49H143v96h533q56 0 107-20t83-55q66-71 66-217V143q0-77-37-112Q862 0 772 0H354q-40 0-66.5 2T223 15.5 158 49q-97 80-97 287zm115-4q0-137 43-189 40-47 107-47h438q32 0 47 13 14 12 14 36v408H330q-43 0-74-16t-45-37q-35-45-35-168z"/><glyph unicode="b" horiz-adv-x="1056" d="M102 170v1264h107v-349h340q267 0 373-178 32-54 49.5-128T992 654t3-126q0-65-3-111.5T972 300t-48-122q-33-56-79-94t-98-55-96-23-96-6H322Q196 0 154 33q-52 41-52 137zm107 10q0-49 12-65 17-19 64-19h247q41 0 73.5 4t79.5 16.5 86 44 65 79.5q45 83 45 258 0 237-43 336-22 49-57 82t-78.5 48-80 20-81.5 5H209V180z"/><glyph unicode="c" horiz-adv-x="974" d="M61 528q0 68 3.5 116.5t14.5 111 37.5 115T184 965q120 120 338 120h367v-96H510q-126 0-206.5-60T197 768q-9-40-15-122t-6-132q0-65 9.5-139.5T213 258Q284 96 532 96h381V0H479Q274 0 160 137q-60 71-79.5 162.5T61 528z"/><glyph unicode="d" horiz-adv-x="1050" d="M61 571q0 112 15.5 195T143 924q35 51 80.5 85t97 49.5 95 21 96.5 5.5h330v349h106V158q0-81-28-119Q887 0 801 0H463Q201 0 111 219 61 340 61 571zm115-16q0-201 31-291Q269 96 487 96h273q48 0 65 17 17 20 17 75v801H487q-185 0-258-123-53-87-53-311z"/><glyph unicode="e" horiz-adv-x="1058" d="M61 539q0 70 4 120.5T82 775t44.5 119 80.5 95q115 96 340 96 171 0 276-61 174-109 174-344 0-102-45-141-38-33-114-33H176q-1-20-1-40 0-111 20-181 22-77 82.5-133T436 96h533V0H436Q251 0 150 133q-57 74-73 166.5T61 539zm115 63h662q45 0 45 72 0 135-74 221-28 33-61.5 53.5T673 977t-69.5 10-75.5 2q-41 0-66.5-1.5T398 979t-64.5-20-55.5-38.5-51-62.5q-30-50-39.5-107T176 602z"/><glyph unicode="f" horiz-adv-x="542" d="M20 989v96h142v13q0 64 17 130 19 72 69 122 54 54 140 76 80 20 160 20h15v-96q-162 0-225-56-37-33-54-92-16-53-16-105v-12h293v-96H268V0H162v989H20z"/><glyph unicode="g" horiz-adv-x="1107" d="M61 569q0 142 25 237.5T182 975q63 65 138 87.5t186 22.5h270q115 0 166-38 64-48 64-152V125q0-250-88-352-34-39-83-65.5t-102-37-89-14.5-71-4H139v96h434q168 0 244 68 36 32 57.5 83T899 0H479q-43 0-72.5 2t-70 9.5-70.5 22-62 42-57 65.5Q61 275 61 569zm115-20q0-281 82-383 15-18 32-31t40-20 35.5-11.5 41-6 33-1.5H899v805q0 51-31 72-26 16-65 16H467q-129 0-201-76-39-41-60.5-110.5t-25.5-124-4-129.5z"/><glyph unicode="h" horiz-adv-x="1054" d="M102 0v1434h107v-349h397q170 0 252-77 94-89 94-287V0H846v733q0 129-53 191-34 40-77.5 52.5T616 989H209V0H102z"/><glyph unicode="i" horiz-adv-x="319" d="M102 1282v152h115v-152H102zM106 0v1085h107V0H106z"/><glyph unicode="j" horiz-adv-x="528" d="M-20-268q23-1 43-1 69 0 111 11 55 13 97 47 44 35 64 81T315 2v1083h107V-18q0-184-123-279-93-72-244-72-36 0-75 4v97zm331 1550v152h115v-152H311z"/><glyph unicode="k" horiz-adv-x="940" d="M102 0v1434h107V0H102zm187 561q0 42 21.5 78t64.5 78l393 368h143L440 643q-37-37-37-78 0-48 58-102L961 0H813L373 406q-84 77-84 155z"/><glyph unicode="l" horiz-adv-x="311" d="M102 0v1434h107V0H102z"/><glyph unicode="m" horiz-adv-x="1671" d="M102 0v903q0 79 25 123 39 59 123 59h1007q153 0 228-67 84-73 84-246V0h-107v780q0 106-45 156-49 53-162 53H889V0H782v989H274q-37 0-53-18-12-14-12-58V0H102z"/><glyph unicode="n" horiz-adv-x="1060" d="M102 0v944q0 68 25 100 32 41 106 41h390q85 0 145-16.5t106-62.5q84-84 84-252V0H852v727q0 72-10 116.5T805 922q-31 39-73.5 53T629 989H244q-23 0-29-8t-6-33V0H102z"/><glyph unicode="o" horiz-adv-x="1196" d="M61 549q0 296 136 430 72 70 173 94.5t228 24.5 228-24.5T999 979q136-134 136-430 0-302-136-438Q874-12 598-12T197 111Q61 247 61 549zm115-10q0-52 1.5-82t8.5-86.5T212.5 268t51.5-80q58-63 142.5-83.5T598 84t191.5 20.5T932 188q32 34 51.5 80t26.5 102.5 8.5 86.5 1.5 82-1.5 86-8.5 91-26.5 104-49.5 81q-91 100-336 100T262 901q-30-34-49.5-81T186 716t-8.5-91-1.5-86z"/><glyph unicode="p" horiz-adv-x="1048" d="M102-348V950q0 64 52 103 42 32 120 32h275q209 0 323-124 39-42 64-91.5T971.5 762t13-99.5T987 559q0-127-16.5-221.5T901 162Q840 70 748.5 35T516 0H209v-348H102zM209 96h350q77 0 144.5 31T811 219q61 95 61 326 0 202-38 286-36 80-108.5 119T571 989H258q-14 0-33-14-16-14-16-39V96z"/><glyph unicode="q" horiz-adv-x="1058" d="M61 530q0 306 111 439 96 116 287 116h344q86 0 127-53 5-7 9.5-15.5t7-14.5 4.5-17 3-15.5 1.5-17.5.5-15.5V-348H850V0H440Q239 0 143 143 61 267 61 530zm115 11q0-154 25-254 5-20 12-38.5t26.5-48.5 45-51 70.5-37 100-16h395v828q0 33-23 51-18 14-57 14H483q-104 0-170-36.5T213 827q-37-95-37-286z"/><glyph unicode="r" horiz-adv-x="518" d="M102 0v713q0 94 20 162t77 122q92 88 266 88h74v-96h-66q-145 0-209-76-55-67-55-225V0H102z"/><glyph unicode="s" horiz-adv-x="1032" d="M61 815q0 106 56 176 46 60 107 77t155 17h520v-96H336q-84 0-121-37-39-39-39-129 0-96 45-141 43-43 187-74l196-45q167-40 218-61 42-18 71-41 47-36 62.5-81T971 272q0-166-94-231Q818 0 707 0H80v96h622q92 0 127 51 27 41 27 125 0 72-41 113-25 23-75 39t-181 47l-188 43q-183 43-250 121-60 68-60 180z"/><glyph unicode="t" horiz-adv-x="567" d="M20 989v96h150v349h106v-349h299v-96H276V387q0-126 9-169 14-68 53-95 42-27 192-27h58V0h-82Q389 0 344 10q-61 14-100 53-46 45-60 115.5T170 365v624H20z"/><glyph unicode="u" horiz-adv-x="1069" d="M102 328v757h107V360q0-138 43-192 32-43 84.5-57.5T467 96h301q49 0 72 23 20 20 20 67v899h107V172q0-96-52-139-19-15-49.5-23t-52-9T752 0H457q-95 0-155 15T193 74q-40 36-61.5 87T106 246.5t-4 81.5z"/><glyph unicode="v" horiz-adv-x="937" d="M-20 1085H88l350-946q19-45 31-45t31 45l350 946h108L582 82q-35-94-113-94T356 82z"/><glyph unicode="w" horiz-adv-x="1404" d="M-20 1085H86l244-958q9-33 22-33 11 0 21 31l231 883q24 90 98 90 75 0 99-90l231-883q10-31 21-31 13 0 22 33l244 958h106L1159 78q-23-90-104-90-87 0-111 92L719 928q-6 37-17 37-10 0-16-37L461 80q-24-92-111-92-81 0-104 90z"/><glyph unicode="x" horiz-adv-x="880" d="M-20 0l403 557-385 528h125l317-448 318 448h125L500 557 901 0H772L440 477 109 0H-20z"/><glyph unicode="y" horiz-adv-x="1017" d="M-20 1085H94l402-952 428 952h114L389-350H274L438 6z"/><glyph unicode="z" horiz-adv-x="903" d="M41 92q0 55 53 113l627 735q2 3 6.5 7t7 7 4.5 7.5 2 9.5q0 18-24 18H72v96h694q41 0 65.5-27t24.5-61q0-19-9.5-46T825 909L172 135q-16-21-16-29 0-10 15-10h691V0H174Q41 0 41 92z"/><glyph unicode="{" horiz-adv-x="606" d="M102 543v78q45 3 76 30t31 76v260q0 68 6 137 17 183 156 271 79 50 174 47v-94q-83 5-142-43-32-25-52-59.5t-28-75-10-67-2-63.5V758q0-24-.5-39t-5-37.5-12.5-38-24-30.5-38-23v-17q28-10 45.5-28.5t24-44.5 8.5-45 2-49V123q0-37 2-63.5T323-7t28-74.5 52-59.5q59-48 142-43v-95q-94-3-174 48-139 88-156 270-6 69-6 137v260q0 49-31 76.5T102 543z"/><glyph unicode="|" horiz-adv-x="307" d="M102-334v1850h103V-334H102z"/><glyph unicode="}" horiz-adv-x="606" d="M61-184q83-5 142 43 32 25 52 59.5T283-7t10 66.5 2 63.5v283q0 30 2 49t8.5 45 24 44.5T375 573v17q-28 10-45.5 28.5t-24 45T297 709t-2 49v282q0 37-2 63.5t-10 67-28 75-52 59.5q-59 48-142 43v94q96 3 175-47 137-87 155-271 6-69 6-137V727q0-49 31-76t76-30v-78q-45-3-76-30.5T397 436V176q0-68-6-137-17-183-155-270-80-51-175-48v95z"/><glyph unicode="~" horiz-adv-x="1091" d="M61 649q52 73 121 121 74 51 168 51 80 0 152-41l110-65q83-45 140-45 65 0 118 43 50 38 88 102l72-63q-51-77-119-127-77-54-170-54-75 0-151 43l-92 54q-2 1-15.5 8.5t-17.5 10-17 9-19.5 9-18.5 7-21.5 6.5-21.5 3.5-23 1.5q-50 0-100-29-63-35-111-110z"/><glyph unicode="©" horiz-adv-x="1708" d="M102 719q0 73 4.5 134.5T127 991t42.5 137 75 121T358 1350q158 100 496 100t496-100q65-41 113.5-101t75-121 42.5-137 20.5-137.5T1606 719q0-66-4-121.5T1588.5 480t-28-115-46-104.5-69-95.5-95.5-79q-99-65-215-83.5T854-16 573 2.5 358 86q-54 35-95.5 79t-69 95.5-46 104.5-28 115T106 597.5 102 719zm119 0q0-57 2.5-102.5T237 503t30-121.5T323.5 272t88.5-94q45-33 102.5-53.5t123-29 110.5-11T854 82t106 2.5 110.5 11 123 29T1296 178q51 38 88.5 94t56.5 109.5 30 121.5 13.5 113.5T1487 719q0 81-7 148t-26 142.5-59 138-99 105.5q-18 14-44.5 27t-78 31-134.5 29.5-185 11.5-185-11.5-134.5-29.5-78-31-44.5-27q-59-43-99-105.5t-59-138T228 867t-7-148zm209-4q0 57 3 98t20 98 49 99q92 120 278 120h361v-98H780q-125 0-188-106-43-76-43-238 0-120 37-190 30-55 74-75t104-20h401v-98H758q-80 0-143.5 26T500 428q-43 60-56.5 125.5T430 715z"/><glyph unicode="«" horiz-adv-x="815" d="M102 575q0 43 31 91l268 393 88-60-253-366q-23-37-23-58 0-20 23-57l253-366-88-60-268 393q-31 48-31 90zm301 0q0 35 37 91l187 272 86-59-166-238q-33-44-33-66 0-19 33-65l166-238-86-59-187 272q-37 55-37 90z"/><glyph unicode="­" horiz-adv-x="819" d="M102 496v118h615V496H102z"/><glyph unicode="®" horiz-adv-x="1118" d="M102 1014q0 73 7 128t36 119 80 107q19 16 41.5 28.5t40.5 21 45.5 14l42.5 8.5 45.5 4.5 40.5 1.5h156l40.5-1.5 45.5-4.5 42.5-8.5 45.5-14 40.5-21L893 1368q51-43 80-107t36-119 7-128-7-128-36-119.5T893 659q-22-18-45-32t-52-22-47-13-53.5-7-46-3-49.5-.5-41 .5-41-.5-49.5.5-46 3-53.5 7-47 13-52 22-45 32q-51 43-80 107.5T109 886t-7 128zm82 0q0-175 62-260 12-17 26.5-30.5t27-23.5 31-18 30.5-13 34-8.5 32-5.5 34.5-3 32-1h131l32 1 34.5 3 32 5.5 34 8.5 30.5 13 31 18 27 23.5L872 754q62 85 62 260t-62 260q-13 18-28 33t-33.5 25.5-32 18-37 12.5-35 8-39 4-35.5 1H486l-35.5-1-39-4-35-8-37-12.5-32-18L274 1307l-28-33q-62-85-62-260zm160-250v428q0 35 14 49 21 21 74 21h203q68 0 96-21 47-36 47-139 0-150-108-150h-52l187-188H694L528 932q-10 10-13 13.5t-7 13.5-4 24q0 37 43 37h71q47 0 58 8 16 12 16 33v72q0 21-12 36-16 21-53 21H461q-21 0-29-4-6-4-6-33V764h-82z"/><glyph unicode="»" horiz-adv-x="815" d="M102 272l166 238q33 46 33 65 0 22-33 66L102 879l86 59 187-272q37-56 37-91t-37-90L188 213zm224-120l254 366q22 35 22 57 0 23-22 58L326 999l88 60 268-393q31-48 31-91 0-42-31-90L414 92z"/><glyph unicode="Ё" horiz-adv-x="1269" d="M143 199v1044q0 88 41 137 28 33 64 43.5t86 10.5h846v-99H350q-51 0-74-20-22-17-22-72V782h905v-98H254V174q0-40 20-57 10-8 40.5-13.5T367 98h821V0H338q-36 0-53 1t-46.5 11T188 43q-29 29-37 66.5t-8 89.5zm281 1413v160h111v-160H424zm407 0v160h111v-160H831z"/><glyph unicode="Ђ" horiz-adv-x="1581" d="M-41 1335v99h1088v-99H438V774h736q157 0 233-92 72-87 72-285 0-231-68-317-28-36-68.5-55t-67-22-65.5-3H856v98h295q38 0 60.5 2t53.5 14.5 52 37.5q20 24 30 66.5t11.5 73 1.5 83.5q0 104-8 157t-33 84q-21 27-59.5 43.5T1176 676H438V0H328v1335H-41z"/><glyph unicode="Ѓ" horiz-adv-x="1026" d="M0 0v1272q0 76 41 117 45 45 119 45h866v-99H189.5l-18.5-1-19.5-3.5-15.5-7-13-10.5q-12-16-12-74V0H0zm358 1595l252 205 64-80-252-204z"/><glyph unicode="Є" horiz-adv-x="1343" d="M102 729q0 66 2.5 116t12 116.5 27 118.5 49.5 107.5 77 98.5q154 148 430 148h521v-99H651q-95 0-180-39t-143-110q-115-143-107-406h971v-98H221q-2-73 2.5-131T242 427.5t46-122T369 205Q489 98 680 98h561V0H700Q448 0 293 129q-109 91-150 232.5T102 729z"/><glyph unicode="Ѕ" horiz-adv-x="1323" d="M102 1114q0 166 97 248 84 72 227 72h727v-99H414q-41 0-83-14.5t-67-40.5q-43-47-43-170 0-41 4-68t17.5-59.5 44.5-57 80-42.5l557-197q80-29 128-51.5t81-54.5q88-83 88-232 0-165-70-254-24-31-52.5-51T1038 14.5 980.5 3 922 0H125v98h809q168 0 168 246 0 40-6 69.5t-23.5 62-55 58.5-95.5 46L350 776q-119 41-176 107-72 83-72 231z"/><glyph unicode="І" horiz-adv-x="397" d="M143 0v1434h111V0H143z"/><glyph unicode="Ї" horiz-adv-x="450" d="M61 1561v161h111v-161H61zM170 0v1434h111V0H170zm109 1561v161h110v-161H279z"/><glyph unicode="Ј" horiz-adv-x="802" d="M-41 0v100h262q146 0 234 84 94 92 94 297v953h110V481q0-234-110-350Q423 0 244 0H-41z"/><glyph unicode="Љ" horiz-adv-x="2238" d="M-41 0l854 1343q11 18 16.5 26t21.5 26.5 30 28 37 18 49 8.5q56 0 93.5-38.5T1098 1303V780h723q189 0 262-106 53-78 53-281 0-194-65-278-13-17-32-33.5T1987 45t-84-32.5T1792 0h-659q-71 0-111 47-35 41-35 125v1128q0 37-35 37-22 0-37-22L84 0H-41zm1139 188q0-47 12-65 16-25 80-25h596q54 0 103.5 17t76.5 47q24 26 36 68t13.5 72.5 1.5 86.5q0 45-1 72t-6 68.5-17.5 71T1960 647q-39 35-125 35h-737V188z"/><glyph unicode="Њ" horiz-adv-x="2435" d="M143 0v1434h111V780h930v654h110V780h723q189 0 262-106 54-79 54-281 0-193-66-278-13-17-31.5-33.5T2184 45t-84-32.5T1989 0h-660q-70 0-110 47-35 41-35 125v510H254V0H143zm1151 188q0-46 13-65 16-25 79-25h596q54 0 104 17t77 47q24 26 36 68t13.5 72.5 1.5 86.5q0 45-1 72t-6 68.5-17.5 71T2157 647q-39 35-125 35h-738V188z"/><glyph unicode="Ћ" horiz-adv-x="1540" d="M-41 1335v99h1088v-99H438V774h709q133 0 201-49 54-39 72-92.5t18-126.5V0h-111v524q0 77-49 117-41 35-119 35H438V0H328v1335H-41z"/><glyph unicode="Ќ" horiz-adv-x="1282" d="M143 0v1434h111V0H143zm191 737q0 39 30.5 81.5T436 893l672 541h160L535 840q-2-1-11.5-8t-14-10.5-14.5-12-15.5-14L466 782l-12-15-7-15.5-3-16.5q0-42 99-118 2-3 4-4.5t4-2.5L1343 0h-165L459 555q-57 44-91 92t-34 90zm201 858l251 205 64-80-252-204z"/><glyph unicode="Ў" horiz-adv-x="1249" d="M-61 1434H61L641 354l547 1080h123L578 0H455l129 244zm389 278h118q7-48 46-82 41-37 133-37t133 37q38 33 45 82h119q-19-104-105-168-67-49-192-49-126 0-193 49-84 63-104 168z"/><glyph unicode="Џ" horiz-adv-x="1421" d="M143 111v1323h111V166q0-33 8-49 13-19 49-19h799q36 0 49 19 8 16 8 49v1268h111V111q0-57-27-84-14-13-36-19.5t-32.5-7T1145 0H766v-346H655V0H270q-71 0-100 27-27 27-27 84z"/><glyph unicode="А" horiz-adv-x="1376" d="M-20 0l548 1298q30 72 66 112t94 40 93.5-40 66.5-112L1397 0h-119l-174 418H272L98 0H-20zm335 516h746l-313 750q-1 1-4.5 10t-5 12-5 11.5-6 12.5-6.5 11-7.5 10.5l-7.5 7.5-8.5 5.5-9.5 1.5q-6 0-11.5-2.5t-11-9-9-11-8.5-15-7-15-6.5-16.5-5.5-13z"/><glyph unicode="Б" d="M143 180v1063q0 98 41 143 43 48 129 48h912v-99H358q-60 0-79-16-25-22-25-74V770h729q75 0 136.5-20t107.5-80q65-88 65-287 0-206-80-297-75-86-225-86H311Q208 0 170 53q-27 36-27 127zm111 37q0-68 12-88 11-15 33-22.5t35-8 45-.5h567q34 0 56 2t55 15 57 37q60 63 60 239 0 165-60 230-24 24-57.5 36.5t-53 13.5-57.5 1H254V217z"/><glyph unicode="В" d="M143 184v1061q0 89 41 139 43 50 127 50h662q139 0 215-80 90-92 90-307 0-78-12.5-136T1217 805q-52-67-132-76v-8q93-10 148-78 22-26 35-55.5t17.5-69 5.5-61 1-70.5q0-55-1.5-80.5T1282 236t-26-81-50-71q-47-52-93.5-68T1001 0H369q-4 0-23-.5t-27 0T293 1t-29.5 4.5T237 14t-27.5 13.5T186 47q-43 45-43 137zm111 25q0-71 14-88 18-23 94-23h572q43 0 67 1.5t64 18 63 48.5q46 61 46 219 0 156-37 211-21 32-63 54t-85 22H254V209zm0 561h672q139 0 188 64 45 57 45 227 0 166-65 231-21 20-48.5 30t-44.5 11.5-45 1.5H336q-48 0-62-16-20-20-20-66V770z"/><glyph unicode="Г" horiz-adv-x="1128" d="M143 0v1272q0 76 41 117 45 45 119 45h866v-99H333.5l-19-1-20-3.5-15.5-7-13-10.5q-12-16-12-74V0H143z"/><glyph unicode="Д" horiz-adv-x="1540" d="M-41 0v98H61l562 1209q30 68 64.5 105.5T770 1450q49 0 82.5-36.5T918 1307L1479 98h102V0H-41zm225 98h1172L813 1282q-21 49-43 49t-43-49z"/><glyph unicode="Е" horiz-adv-x="1269" d="M143 199v1044q0 88 41 137 28 33 64 43.5t86 10.5h846v-99H350q-51 0-74-20-22-17-22-72V782h905v-98H254V174q0-40 20-57 11-8 41-13.5t52-5.5h821V0H338q-36 0-53 1t-46.5 11T188 43q-29 29-37 66.5t-8 89.5z"/><glyph unicode="Ж" horiz-adv-x="1961" d="M-41 0l678 610q71 66 85 87 13 19 13 34 0 30-82 109L35 1434h160l555-541q96-96 96-158 0-72-119-180L125 0H-41zm967 0v1434h110V0H926zm190 735q0 62 96 158l555 541h160l-618-594q-82-79-82-109 0-21 20-44.5t66-65.5q8-7 12-11L2003 0h-166l-602 555q-119 110-119 180z"/><glyph unicode="З" horiz-adv-x="1255" d="M82 0v98h670q130 0 192 37 31 18 50 45t27.5 63 10.5 64 2 70q0 54-2.5 88t-16.5 79-40 72q-58 58-180 58H111v98h630q36 0 57 1.5t55.5 8 62 23.5 49.5 45q21 27 31.5 65.5t12 65 1.5 76.5q0 171-58 231-47 47-123 47H90v99h719q45 0 76-3t78-22 81-55q51-54 67.5-129.5T1128 1053q0-85-15-148t-62-110-113-64v-8q49-6 97-31.5t77-77.5q41-74 41-235 0-125-30.5-204T1018 53Q928 0 778 0H82z"/><glyph unicode="И" horiz-adv-x="1490" d="M143 150v1284h111V162q0-4-.5-12.5t0-13 1-11 2-10.5 4-8 7.5-5.5 11-1.5q8 0 14.5 6t14.5 19.5 9 15.5l727 1157q54 85 73 106 45 46 108 46 123 0 123-178V0h-111v1292q0 41-20 41-19 0-52-59L426 109q-3-5-9-14-18-28-29-42.5T358 19 316-8t-52-8q-121 0-121 166z"/><glyph unicode="Й" horiz-adv-x="1490" d="M143 150v1284h111V162q0-4-.5-12.5t0-13 1-11 2-10.5 4-8 7.5-5.5 11-1.5q8 0 14.5 6t14.5 19.5 9 15.5l727 1157q54 85 73 106 45 46 108 46 123 0 123-178V0h-111v1292q0 41-20 41-19 0-52-59L426 109q-3-5-9-14-18-28-29-42.5T358 19 316-8t-52-8q-121 0-121 166zm306 1560h118q7-49 45-82 41-37 133-37 93 0 134 37 38 33 45 82h118q-20-105-104-168-67-49-193-49-125 0-192 49-84 63-104 168z"/><glyph unicode="К" horiz-adv-x="1282" d="M143 0v1434h111V0H143zm191 737q0 39 30.5 81.5T436 893l672 541h160L535 840q-2-1-11.5-8t-14-10.5-14.5-12-15.5-14L466 782l-12-15-7-15.5-3-16.5q0-42 99-118 2-3 4-4.5t4-2.5L1343 0h-165L459 555q-57 44-91 92t-34 90z"/><glyph unicode="Л" horiz-adv-x="1282" d="M-61 0l557 1325q31 76 63.5 100.5T641 1450t81.5-24.5T786 1325L1343 0h-118L684 1305q-1 3-4 11.5t-5.5 13-7 10.5-11 9-15.5 3q-11 0-19-5.5t-11-10-7.5-17.5-5.5-14L57 0H-61z"/><glyph unicode="М" horiz-adv-x="1908" d="M143 0v1315q0 59 37.5 97t98.5 38q57 0 90.5-34t64.5-107L920 141q1-2 2.5-6.5t2.5-7l3-7.5 3.5-7.5 4.5-6 5.5-5.5 5.5-3.5 7-1.5q3 0 6 1t6 3 5 4 4 6 3.5 5.5 3.5 6.5 2.5 6.5l2.5 7.5 2 5 486 1168q31 73 64.5 107t90.5 34q61 0 98-38t37-97V0h-110v1315q0 19-9.5 28t-19.5 9q-9 0-21.5-14t-17.5-27L1100 139q-33-78-64-116.5T954-16q-50 0-81 38t-64 117L322 1311q-5 13-17.5 27t-21.5 14q-10 0-19.5-9t-9.5-28V0H143z"/><glyph unicode="Н" horiz-adv-x="1437" d="M143 0v1434h111V778h930v656h110V0h-110v680H254V0H143z"/><glyph unicode="О" horiz-adv-x="1593" d="M102 717q0 81 4.5 141t19.5 145 52 159.5 94 131.5q52 52 118.5 86t142.5 48 132 18 132 4q59 0 103-2t107-11 113-24.5 104.5-46 96.5-72.5q57-57 94-131.5t52-159.5 19.5-145 4.5-141-4.5-141.5T1467 430t-52-159.5-94-131.5q-52-52-118-85.5T1061 6 929-12t-132-4-132 4T533 6 390.5 53.5 272 139q-57 57-94 131.5T126 430t-19.5 145.5T102 717zm119 0q0-80 3-132.5T237.5 459 275 326t69-107q44-48 100-78.5t125.5-42 112.5-14T797 82q57 0 89.5 1t91.5 8 100 20.5 88.5 41T1249 219q42 47 69 107t37.5 133 13.5 125.5 3 132.5-3 132.5-13.5 125T1318 1107t-69 107q-44 48-100 78.5t-124.5 42T912 1349t-115 3-115-3-113-14.5-125-42-100-78.5q-42-47-69-107t-37.5-132.5-13.5-125-3-132.5z"/><glyph unicode="П" horiz-adv-x="1421" d="M143 0v1247q0 99 43 144 41 43 121 43h807q80 0 121-43 43-45 43-144V0h-111v1274l-.5 8-1 8-1.5 7-3 8-4.5 7-5.5 7q-16 16-59 16H330q-44 0-60-16-3-3-5.5-7t-4.5-7-3-8-1.5-7-1-8-.5-8V0H143z"/><glyph unicode="Р" d="M143 0v1264q0 94 39 131 41 39 137 39h592q58 0 95.5-3.5t88.5-21 89-51.5q60-51 84-136t24-229q0-255-118-346-77-61-193-61H254V0H143zm111 684h664q143 0 200 66 56 67 56 272 0 182-60 248-57 65-192 65H336q-30 0-47.5-6t-24.5-20.5-8.5-26-1.5-35.5V684z"/><glyph unicode="С" horiz-adv-x="1308" d="M102 696q0 86 5 152t19.5 144.5 47 146T256 1260q167 174 440 174h549v-99H743q-287 0-415-166-46-59-71-147t-30.5-159-5.5-169q0-138 18-240t76-182q21-29 50-55.5t76-55.5 117.5-46T713 98h555V0H690Q424 0 262 162q-89 89-124.5 216T102 696z"/><glyph unicode="Т" horiz-adv-x="1228" d="M-41 1335v99h1311v-99H670V0H559v1335H-41z"/><glyph unicode="У" horiz-adv-x="1249" d="M-61 1434H61L641 354l547 1080h123L578 0H455l129 244z"/><glyph unicode="Ф" horiz-adv-x="1806" d="M102 735q0 137 22.5 241.5T213 1167q34 44 77.5 75t82.5 47 94.5 24.5 92 10 97.5 1.5h191v109h110v-109h191q61 0 97.5-1.5t92-10 94.5-24.5 82.5-47 77.5-75q66-86 88.5-190.5T1704 735q0-138-19-245t-77-189q-122-172-414-172H958V0H848v129H612q-291 0-413 172-58 82-77.5 190T102 735zm119 8q0-243 43-337 18-41 44.5-71.5T369 285t66.5-31.5 75.5-18 75.5-7T664 227h184v1000H604q-47 0-82-4t-85.5-18-92-49-70.5-89q-33-62-43-139.5T221 743zm737-516h185q45 0 77.5 1.5t75 7 75.5 18 66.5 31.5 60 49.5T1542 406q43 94 43 337 0 107-10 184.5t-43 139.5q-29 54-70.5 89t-92 49-85.5 18-82 4H958V227z"/><glyph unicode="Х" horiz-adv-x="1146" d="M-41 0l555 727-539 707h131l467-627 467 627h131L633 727 1188 0h-131L573 647 90 0H-41z"/><glyph unicode="Ц" horiz-adv-x="1454" d="M143 164v1270h111V195q0-2-.5-18t0-22 3-17 7.5-17q16-23 66-23h835v1336h111V98h199V0H334Q231 0 193 31q-50 39-50 133z"/><glyph unicode="Ч" horiz-adv-x="1339" d="M123 971v463h110V967q0-35 1.5-55.5t11.5-53 30-55.5q54-60 168-60h641v691h111V0h-111v645H422q-68 0-133.5 26T180 752q-57 75-57 219z"/><glyph unicode="Ш" horiz-adv-x="1994" d="M143 154v1280h111V182q0-45 10-61 14-23 58-23h620v1336h111V98h620q44 0 58 23 10 16 10 61v1252h110V154q0-81-34-115-37-39-119-39H297q-82 0-119 39-35 35-35 115z"/><glyph unicode="Щ" horiz-adv-x="2029" d="M143 154v1280h111V182q0-45 10-61 14-23 58-23h620v1336h111V98h688v1336h110V98h199V0H297q-82 0-119 39-35 35-35 115z"/><glyph unicode="Ъ" horiz-adv-x="1499" d="M-20 1335v99h217q77 0 122-45 39-41 39-144V780h723q189 0 262-106 54-79 54-281 0-193-66-278-13-17-31.5-33.5T1248 45t-84-32.5T1053 0H393q-70 0-110 47-35 41-35 125v1063q0 51-19 76-21 24-55 24H-20zM358 188q0-46 13-65 16-25 80-25h596q54 0 103.5 17t76.5 47q24 26 36 68t13.5 72.5 1.5 86.5q0 45-1 72t-6 68.5-17.5 71T1221 647q-39 35-125 35H358V188z"/><glyph unicode="Ы" horiz-adv-x="1722" d="M143 172v1262h111V780h723q189 0 262-106 53-78 53-281 0-194-65-278-13-17-32-33.5T1143 45t-84-32.5T948 0H289q-71 0-111 47-35 41-35 125zm111 16q0-47 12-65 16-25 80-25h596q54 0 103.5 17t76.5 47q24 26 36 68t14 73.5 2 85.5q0 60-2 97.5t-16 87.5-40 73q-39 35-125 35H254V188zM1468 0v1434h111V0h-111z"/><glyph unicode="Ь" d="M143 172v1262h111V780h723q189 0 262-106 53-78 53-281 0-194-65-278Q1138 0 948 0H289q-71 0-111 47-35 41-35 125zm111 16q0-47 12-65 16-25 80-25h596q54 0 103.5 17t76.5 47q19 21 31 51t16 71 4.5 57.5.5 55.5q0 55-2 91.5t-16 86-40 72.5q-39 35-125 35H254V188z"/><glyph unicode="Э" horiz-adv-x="1343" d="M102 0v98h562q191 0 311 107 49 44 81 100.5t46 122 18 123.5 2 131H152v98h970q8 264-106 406-58 71-143.5 110T692 1335H123v99h520q276 0 430-150 56-54 91.5-120t51-143.5T1236 880t5-151q0-225-41-366.5T1051 129Q896 0 643 0H102z"/><glyph unicode="Ю" horiz-adv-x="1916" d="M143 0v1434h111V784h170q-5 146 41.5 286T594 1294q51 52 118 86t143.5 48 133 18 131.5 4q60 0 104-2t107.5-11 113-24.5 104.5-46 98-72.5 75-98 49.5-111 27.5-123 13-122.5 3-122.5q0-86-5.5-155T1788 412t-51.5-151-89.5-122q-53-52-119.5-85.5T1385 6t-132-18-133-4q-76 0-132 4T855 6 711.5 53.5 594 139q-87 87-133 238.5T424 686H254V0H143zm400 717q0-80 3-132.5T559.5 459 597 326t69-107q35-39 82.5-66.5t88.5-41T937 91t91.5-8 89.5-1q165 0 270.5 26T1571 219q43 47 70 106.5t38 132.5 14 125.5 3 133.5-3 133.5-14 125-38 132-70 106.5q-77 85-183 111.5t-270 26.5q-71 0-115-3t-112.5-14.5-124.5-42-100-78.5q-42-47-69-107t-37.5-132.5-13.5-125-3-132.5z"/><glyph unicode="Я" horiz-adv-x="1415" d="M82 0l672 569v11H436q-172 0-256 125-63 98-63 299 0 211 63 307 81 123 273 123h604q100 0 155-50 27-25 41-57t16.5-55 2.5-58V0h-111v1239q0 48-28 74-24 22-74 22H473q-35 0-58.5-2t-56-14-55.5-35q-24-24-39.5-59t-20.5-81-6-66.5-1-61.5q0-193 38-254 20-32 59-56t89-24h444q22 0 35.5-12t13.5-35v-33q0-15-6-27t-12.5-17.5L877 541 244 0H82z"/><glyph unicode="а" horiz-adv-x="1034" d="M61 336q0 179 91 256 69 57 202 57h471v162q0 29-11 67.5T784 940q-42 49-114 49H143v96h533q56 0 107-20t83-55q66-71 66-217V143q0-77-37-112Q862 0 772 0H354q-40 0-66.5 2T223 15.5 158 49q-97 80-97 287zm115-4q0-137 43-189 40-47 107-47h438q32 0 47 13 14 12 14 36v408H330q-43 0-74-16t-45-37q-35-45-35-168z"/><glyph unicode="б" horiz-adv-x="1087" d="M102 442v570q0 162 56 256 48 82 136 124t185 42h477v-97H485q-131 0-202-71-33-33-52.5-82t-21.5-99h381q107 0 206-39.5T954 913q44-68 58-157.5t14-202.5q0-270-76-393-34-55-82.5-92T762 15 659.5-6.5 559-12q-44 0-77.5 2T398 2.5t-89 29-79.5 54T160 170q-36 62-47 126.5T102 442zm107-22q0-139 55-217Q345 84 555 84q197 0 276 94 80 95 80 389 0 61-1.5 94.5t-8.5 86-25.5 91.5-48.5 70q-76 80-231 80H209V420z"/><glyph unicode="в" horiz-adv-x="1019" d="M102 129v827q0 58 35 93 36 36 92 36h473q138 0 201-79 55-67 55-211 0-36-1.5-57.5t-11-52.5-27.5-54q-39-54-109-64v-4q72-14 113-69 17-23 25.5-54.5t9.5-51 1-58.5q0-57-3-93.5t-19.5-85T887 68Q824 0 723 0H219q-59 0-90 35-27 29-27 94zm107 35q0-37 12-51 15-17 53-17h388q54 0 86 8t57 39q18 22 27 54.5t10.5 54T844 311q0 111-39 158-42 49-121 49H209V164zm0 450h475q40 0 67.5 8.5T803 659q41 45 41 148 0 104-45 145-39 37-115 37H252q-23 0-33-10t-10-29V614z"/><glyph unicode="г" horiz-adv-x="897" d="M102 0v930q0 75 17 104 30 51 106 51h693v-96H266q-33 0-45-16t-12-62V0H102z"/><glyph unicode="д" horiz-adv-x="1069" d="M-20 0v96h88l350 908q34 94 117 94 82 0 116-94l350-908h89V0H-20zm200 96h709L559 958q-12 31-24 31-13 0-25-31z"/><glyph unicode="е" horiz-adv-x="1058" d="M61 539q0 70 4 120.5T82 775t44.5 119 80.5 95q115 96 340 96 171 0 276-61 174-109 174-344 0-102-45-141-38-33-114-33H176q-4-138 19-221 22-77 82.5-133T436 96h533V0H436Q251 0 150 133q-57 74-73 166.5T61 539zm115 63h662q45 0 45 72 0 135-74 221-28 33-61.5 53.5T673 977t-69.5 10-75.5 2q-41 0-66.5-1.5T398 979t-64.5-20-55.5-38.5-51-62.5q-30-50-39.5-107T176 602z"/><glyph unicode="ж" horiz-adv-x="1466" d="M-20 0l493 496q39 39 39 65 0 23-39 62L10 1085h146l385-383q86-86 86-149 0-23-12-47.5T591 467t-36-39L131 0H-20zm700 0v1085h106V0H680zm160 553q0 63 86 149l385 383h145L993 623q-39-39-39-62 0-26 39-65L1487 0h-152L911 428q-23 24-35 39t-24 39-12 47z"/><glyph unicode="з" horiz-adv-x="987" d="M82 0v96h567q74 0 107 47 35 48 35 166 0 34-2.5 57t-15 54-36.5 53q-45 41-125 41H113v96h514q75 0 116 45 41 43 41 146 0 100-41 145-39 43-114 43H102v96h537q125 0 192-67 68-68 68-209 0-121-41-182-34-49-92-64v-6q53-12 90-61 49-66 49-185 0-172-80-248Q758 0 641 0H82z"/><glyph unicode="и" horiz-adv-x="1112" d="M102 100v985h107V141q0-26 12-26 8 0 23 26l559 891q41 66 112 66 95 0 95-125V0H903v944q0 22-5 24-2 1-5 1-8 0-23-25L317 66q-28-42-53-60t-63-18q-46 0-72.5 29.5T102 100z"/><glyph unicode="й" horiz-adv-x="1112" d="M102 100v985h107V141q0-26 12-26 8 0 23 26l559 891q41 66 112 66 95 0 95-125V0H903v944q0 22-5 24-2 1-5 1-8 0-23-25L317 66q-28-42-53-60t-63-18q-46 0-72.5 29.5T102 100zm152 1272h123q17-55 53-88 44-41 133-41t133 41q38 34 54 88h122q-32-105-100-162-75-65-209-65t-209 65q-68 57-100 162z"/><glyph unicode="к" horiz-adv-x="917" d="M102 0v1085h107V0H102zm158 559q0 62 84 141l414 385h145L420 629q-45-45-45-70 0-26 33-59L938 0H786L330 430q-70 65-70 129z"/><glyph unicode="л" horiz-adv-x="987" d="M-20 0l407 1012q35 86 107 86 71 0 106-86L1008 0H887L514 950q-11 33-20 33-10 0-21-33L100 0H-20z"/><glyph unicode="м" horiz-adv-x="1388" d="M102 0v985q0 54 27 83.5t76 29.5q41 0 64.5-18t39.5-56l363-872q16-37 22-37 7 0 23 37l362 872q16 38 40 56t65 18q49 0 75.5-29.5T1286 985V0h-106v952q0 15-9 15-8 0-14-19L793 66q-16-38-44.5-58T694-12 640 8t-44 58L231 948q-6 19-14 19t-8-15V0H102z"/><glyph unicode="н" horiz-adv-x="1069" d="M102 0v1085h107V608h651v477h107V0H860v512H209V0H102z"/><glyph unicode="о" horiz-adv-x="1196" d="M61 549q0 296 136 430 72 70 173 94.5t228 24.5 228-24.5T999 979q136-134 136-430 0-302-136-438Q874-12 598-12T197 111Q61 247 61 549zm115-10q0-52 1.5-82t8.5-86.5T212.5 268t51.5-80q58-63 142.5-83.5T598 84t191.5 20.5T932 188q32 34 51.5 80t26.5 102.5 8.5 86.5 1.5 82-1.5 86-8.5 91-26.5 104-49.5 81q-91 100-336 100T262 901q-30-34-49.5-81T186 716t-8.5-91-1.5-86z"/><glyph unicode="п" horiz-adv-x="1064" d="M102 0v928q0 74 23 110 31 47 111 47h593q80 0 111-47 23-36 23-110V0H856v928q0 41-10 51t-35 10H254q-25 0-35-10t-10-51V0H102z"/><glyph unicode="р" horiz-adv-x="1048" d="M102-348V950q0 64 52 103 42 32 120 32h275q209 0 323-124 39-42 64-91.5T971.5 762t13-99.5T987 559q0-127-16.5-221.5T901 162Q840 70 748.5 35T516 0H209v-348H102zM209 96h350q77 0 144.5 31T811 219q61 95 61 326 0 202-38 286-36 80-108.5 119T571 989H258q-14 0-33-14-16-14-16-39V96z"/><glyph unicode="с" horiz-adv-x="974" d="M61 528q0 68 3.5 116.5t14.5 111 37.5 115T184 965q120 120 338 120h367v-96H510q-126 0-206.5-60T197 768q-9-40-15-122t-6-132q0-65 9.5-139.5T213 258Q284 96 532 96h381V0H479Q274 0 160 137q-60 71-79.5 162.5T61 528z"/><glyph unicode="т" horiz-adv-x="884" d="M-20 989v96h925v-96H496V0H389v989H-20z"/><glyph unicode="у" horiz-adv-x="1017" d="M-20 1085H94l402-952 428 952h114L389-350H274L438 6z"/><glyph unicode="ф" horiz-adv-x="1466" d="M61 530q0 261 76 381 105 174 352 174h191v349h106v-349h191q247 0 352-174 76-120 76-381 0-245-90-378-28-41-65-70.5t-70.5-45-75.5-24T1033.5 2 969 0H786v-348H680V0H498q-36 0-64.5 2T363 12.5t-75.5 24-70.5 45-65 70.5Q61 286 61 530zm115-12q0-94 12.5-164.5T238 223q26-41 59.5-68.5t70-39T432 100t62-4h186v893H489q-75 0-137-30t-100-85q-76-105-76-356zM786 96h187q34 0 62 4t64.5 15.5 70 39T1229 223q37 60 49 130t12 165q0 251-76 356-38 55-100 85t-137 30H786V96z"/><glyph unicode="х" horiz-adv-x="880" d="M-20 0l403 557-385 528h125l317-448 318 448h125L500 557 901 0H772L440 477 109 0H-20z"/><glyph unicode="ц" horiz-adv-x="1081" d="M102 139v946h107V170q0-45 14-59 15-15 62-15h569v989h107V96h141V0H258q-82 0-117 29-39 33-39 110z"/><glyph unicode="ч" horiz-adv-x="1044" d="M82 801v284h106V776q0-90 27-123 34-47 127-47h494v479h106V0H836v510H358q-35 0-58.5 1.5t-58.5 8-63 23-49 41.5q-30 37-38.5 89T82 801z"/><glyph unicode="ш" horiz-adv-x="1597" d="M102 141v944h107V170q0-39 10-53 14-21 47-21h479v989h107V96h479q33 0 47 21 11 15 11 53v915h106V141q0-77-33-108-17-16-45.5-24t-44-8.5T1323 0H274q-34 0-49.5.5t-44 8.5T135 33q-33 31-33 108z"/><glyph unicode="щ" horiz-adv-x="1615" d="M102 141v944h107V170q0-39 10-53 14-21 47-21h479v989h107V96h537v989h106V96h141V0H274q-34 0-49.5.5t-44 8.5T135 33q-33 31-33 108z"/><glyph unicode="ъ" horiz-adv-x="1099" d="M-20 989v96h192q50 0 76-26 28-28 28-92V621h502q119 0 185-64 75-73 75-235 0-193-80-269-27-25-63.5-37t-62-14T758 0H287q-65 0-90 25-27 27-27 100v803q0 32-8 45-11 16-47 16H-20zm296-829q0-37 7-49 9-15 45-15h450q75 0 111 51 35 49 35 177 0 105-37 153-38 47-109 47H276V160z"/><glyph unicode="ы" horiz-adv-x="1302" d="M102 125v960h107V621h502q118 0 184-64 76-74 76-235 0-193-80-269-27-25-63.5-37T765 2t-75-2H219q-65 0-90 25-27 27-27 100zm107 35q0-37 6-49 9-15 45-15h451q74 0 110 51 35 49 35 177 0 105-37 153-38 47-108 47H209V160zM1094 0v1085h106V0h-106z"/><glyph unicode="ь" horiz-adv-x="1032" d="M102 125v960h107V621h502q118 0 184-64 76-74 76-235 0-193-80-269-27-25-63.5-37T765 2t-75-2H219q-65 0-90 25-27 27-27 100zm107 35q0-37 6-49 9-15 45-15h451q74 0 110 51 35 49 35 177 0 105-37 153-38 47-108 47H209V160z"/><glyph unicode="э" horiz-adv-x="1011" d="M61 0v96h467q211 0 271 162 16 43 26.5 123.5T836 524H90v97h746q2 60-12.5 129T782 864q-23 41-55 68.5T657.5 971t-65 14.5T530 989H76v96h456q195 0 306-118 57-62 84.5-152.5T950 567q0-148-23-254t-81-178q-38-46-84.5-75.5T660 18 566.5 3 471 0H61z"/><glyph unicode="ю" horiz-adv-x="1486" d="M102 0v1085h107V608h172q10 253 133 371 42 41 93.5 67.5t110 36.5 95.5 12.5 90 2.5q52 0 89-2.5t95.5-12.5 110.5-36.5 94-67.5q133-131 133-430 0-303-133-438Q1169-12 903-12q-51 0-90 3T717.5 5 609 43t-95 68q-57 56-89 138.5t-38.5 142T381 512H209V0H102zm394 539q0-47 1.5-79.5T506 371t26-102.5 48-80.5q55-63 136-83.5T903 84t187.5 20.5T1227 188q29 34 48 80.5t26 102.5 8.5 88.5 1.5 79.5q0 268-82 362-37 43-99.5 66.5t-112 28.5-114.5 5-114-5-111.5-28.5T578 901q-82-94-82-362z"/><glyph unicode="я" horiz-adv-x="1067" d="M61 0l410 389q18 18 18 25 0 12-16 12H356q-66 0-117.5 18.5T147 520q-55 80-55 244 0 172 72 250 68 71 180 71h459q91 0 125-32 17-16 26-42t10-43.5 1-47.5V0H858v911q0 46-12 62-14 16-68 16H342q-69 0-104-55-31-48-31-166 0-127 26-178 23-40 54.5-54t74.5-14h201q82 0 82-61 0-41-29-70L205 0H61z"/><glyph unicode="ё" horiz-adv-x="1058" d="M61 539q0 70 4 120.5T82 775t44.5 119 80.5 95q115 96 340 96 171 0 276-61 174-109 174-344 0-102-45-141-38-33-114-33H176q-4-138 19-221 22-77 82.5-133T436 96h533V0H436Q251 0 150 133q-57 74-73 166.5T61 539zm115 63h662q45 0 45 72 0 135-74 221-28 33-61.5 53.5T673 977t-69.5 10-75.5 2q-41 0-66.5-1.5T398 979t-64.5-20-55.5-38.5-51-62.5q-30-50-39.5-107T176 602zm107 664v168h114v-168H283zm364 0v168h115v-168H647z"/><glyph unicode="ђ" horiz-adv-x="1054" d="M-20 1231v96h163v107h107v-107h315v-96H250v-146h397q170 0 252-77 94-89 94-287V289q0-98-28-217-28-111-103-230-64-102-147-190H578q113 120 194 248 63 101 88 202 27 118 27 215v445q0 100-53 162-36 40-79 52.5T657 989H250V0H143v1231H-20z"/><glyph unicode="ѓ" horiz-adv-x="815" d="M0 0v930q0 76 16 104 30 51 107 51h692v-96H164q-33 0-45-16-13-17-13-62V0H0zm231 1227l252 205 64-80-252-205z"/><glyph unicode="є" horiz-adv-x="1005" d="M61 567q0 277 107 400 102 118 305 118h457v-96H475q-34 0-61.5-3.5t-65-14.5-70-38.5T223 864q-25-43-38-112t-13-131h743v-97H166q0-66 11-142t30-124Q271 96 477 96h467V0H535q-55 0-93.5 3t-95 15-104 41.5T160 135Q61 261 61 567z"/><glyph unicode="ѕ" horiz-adv-x="1032" d="M61 815q0 106 56 176 46 60 107 77t155 17h520v-96H336q-84 0-121-37-39-39-39-129 0-96 45-141 43-43 187-74l196-45q167-40 218-61 42-18 71-41 47-36 62.5-81T971 272q0-166-94-231Q818 0 707 0H80v96h622q92 0 127 51 27 41 27 125 0 72-41 113-25 23-75 39t-181 47l-188 43q-183 43-250 121-60 68-60 180z"/><glyph unicode="і" horiz-adv-x="319" d="M102 1282v152h115v-152H102zM106 0v1085h107V0H106z"/><glyph unicode="ї" horiz-adv-x="319" d="M0 1208v162h106v-162H0zM106 0v1085h107V0H106zm107 1208v162h106v-162H213z"/><glyph unicode="ј" horiz-adv-x="528" d="M-20-266q98-4 154.5 9t96.5 46q44 34 64 81T315 2v1083h107V-18q0-184-123-279-115-89-319-68v99zm331 1548v152h115v-152H311z"/><glyph unicode="љ" horiz-adv-x="1689" d="M-20 0l587 993q61 105 156 105 65 0 104-33t39-88V621h502q118 0 184-64 76-74 76-235 0-193-80-269-27-25-63.5-37t-62-14-74.5-2H877q-66 0-91 25-13 13-19 32t-6.5 31-.5 37v838q0 17-13 29t-26 12q-27 0-45-33L96 0H-20zm886 160q0-40 6-49 9-15 46-15h450q75 0 111 51 34 47 34 172 0 116-36 158-38 47-109 47H866V160z"/><glyph unicode="њ" horiz-adv-x="1757" d="M102 0v1085h107V614h631v471h106V614h490q119 0 184-63 76-74 76-236 0-186-80-262-27-25-63.5-37T1490 2t-75-2H956q-65 0-90 25-13 13-19 32t-6.5 31-.5 37v393H209V0H102zm844 160q0-37 6-49 9-15 45-15h439q74 0 110 51 35 53 35 170 0 106-37 154-38 47-108 47H946V160z"/><glyph unicode="ћ" horiz-adv-x="1095" d="M-20 1231v96h163v107h107v-107h315v-96H250v-146h397q170 0 252-77 94-89 94-287V0H887v733q0 129-53 191-34 40-77.5 52.5T657 989H250V0H143v1231H-20z"/><glyph unicode="ќ" horiz-adv-x="917" d="M102 0v1085h107V0H102zm158 559q0 62 84 141l414 385h145L420 629q-45-45-45-70 0-26 33-59L938 0H786L330 430q-70 65-70 129zm41 668l252 205 63-80-251-205z"/><glyph unicode="ў" horiz-adv-x="1056" d="M0 1085h115l401-952 426 948h115L412-348H297L459 6zm219 287h123q17-55 53-88 44-41 133-41 90 0 134 41 36 33 53 88h123q-13-44-39.5-88.5T737 1210q-75-65-209-65t-209 65q-68 57-100 162z"/><glyph unicode="џ" horiz-adv-x="1069" d="M102 143v942h107V147q0-35 8-43t33-8h569q25 0 33 8t8 43v938h107V143q0-71-27-104-15-18-37-27T866 1.5 825 0H592v-360H477V0H244q-26 0-41 1.5T166 12t-37 27q-27 33-27 104z"/><glyph unicode="Ґ" horiz-adv-x="1120" d="M143 0v1276q0 82 27 115 34 43 121 43h700q37 0 49 12 11 15 11 51v193h110v-246q0-64-26-86-24-21-93-21H313q-38 0-49-18-10-13-10-74V0H143z"/><glyph unicode="ґ" horiz-adv-x="827" d="M102 0v952q0 27 .5 37t7.5 29 21 33q32 34 96 34h480q32 0 45 15 10 10 10 35v211h106v-238q0-62-28-90-31-29-97-29H260q-33 0-43-16-8-13-8-47V0H102z"/><glyph horiz-adv-x="900"/><glyph horiz-adv-x="1800"/><glyph horiz-adv-x="900"/><glyph horiz-adv-x="1800"/><glyph horiz-adv-x="600"/><glyph horiz-adv-x="450"/><glyph horiz-adv-x="300"/><glyph horiz-adv-x="300"/><glyph horiz-adv-x="225"/><glyph horiz-adv-x="360"/><glyph horiz-adv-x="100"/><glyph unicode="‐" horiz-adv-x="819" d="M102 496v118h615V496H102z"/><glyph unicode="‑" horiz-adv-x="819" d="M102 496v118h615V496H102z"/><glyph unicode="‒" horiz-adv-x="819" d="M102 496v118h615V496H102z"/><glyph unicode="–" horiz-adv-x="1212" d="M102 496v118h1008V496H102z"/><glyph unicode="—" horiz-adv-x="2334" d="M143 496v118h2048V496H143z"/><glyph unicode="‘" horiz-adv-x="409" d="M0 1372l92 62 215-320-92-61z"/><glyph unicode="’" horiz-adv-x="430" d="M61 1114l215 320 93-62-215-319z"/><glyph unicode="‚" horiz-adv-x="409" d="M0-115l215 320 92-62L92-176z"/><glyph unicode="“" horiz-adv-x="727" d="M61 1372l93 62 215-320-93-61zm297 0l93 62 215-320-93-61z"/><glyph unicode="”" horiz-adv-x="727" d="M61 1114l215 320 93-62-215-319zm297 0l215 320 93-62-215-319z"/><glyph unicode="„" horiz-adv-x="706" d="M0-115l215 320 92-62L92-176zm297 0l215 320 92-62-215-319z"/><glyph unicode="…" horiz-adv-x="983" d="M143 0v178h123V0H143zm287 0v178h123V0H430zm287 0v178h123V0H717z"/><glyph horiz-adv-x="360"/><glyph unicode="‹" horiz-adv-x="591" d="M102 575q0 43 31 91l268 393 88-60-253-366q-23-37-23-58 0-20 23-57l253-366-88-60-268 393q-31 48-31 90z"/><glyph unicode="›" horiz-adv-x="591" d="M102 152l254 366q23 37 23 57 0 21-23 58L102 999l88 60 269-393q30-47 30-91 0-43-30-90L190 92z"/><glyph horiz-adv-x="450"/><glyph unicode="€" horiz-adv-x="1253" d="M49 600l29 59h115q-3 24-3 70 0 8 1.5 33t1.5 33H49l29 61h121q13 112 38 199.5t68 162.5 104.5 124 149.5 76.5 201 27.5q150 0 242-38.5t135-92.5l12-156h-35q-16 113-108.5 168T774 1382q-117 0-202.5-38t-138-111-81.5-164-43-213h717l-29-61H303q0-9-1-33t-1-33q0-54 2-70h633l-27-59H307q22-260 142.5-401.5T774 57q83 0 151.5 20.5t122 74.5 66.5 137h35l-12-150Q1030-4 760-4 507-4 365.5 150T201 600H49z"/><glyph unicode="™" horiz-adv-x="1843" d="M0 1346v90h752v-90H424V614h-96v732H0zm811-732v754q0 25 9.5 42t24.5 24 26 9.5 22 2.5q101 0 129-82l233-647q13-27 21-27 6 0 20 27l234 647q29 82 129 82 11 0 22-2.5t26-9.5 24.5-24 9.5-42V614h-96v721q0 23-17 23-12 0-22-25l-230-639q-31-90-100-90t-100 90l-230 639q-10 25-22 25-17 0-17-23V614h-96z"/><glyph unicode="◼" horiz-adv-x="1085" d="M0 0v1085h1085V0H0z"/></font>
</defs>
</svg>
