<svg xmlns="http://www.w3.org/2000/svg" width="16.5" height="19.219" viewBox="0 0 16.5 19.219">
  <defs>
    <style>
      .cls-1 {
        fill: #0a22a6;
        fill-rule: evenodd;
      }
    </style>
  </defs>
  <path id="Forma_1" data-name="Forma 1" class="cls-1" d="M572.022,406.452l5.372-5.377a0.817,0.817,0,0,1,1.157,1.154l-3.99,3.991h8.18a5.585,5.585,0,0,1,5.576,5.558v7.482a0.816,0.816,0,0,1-1.632,0v-7.48a3.951,3.951,0,0,0-3.944-3.928h-8.163l3.973,3.976a0.817,0.817,0,0,1-1.156,1.154l-5.372-5.377A0.815,0.815,0,0,1,572.022,406.452Z" transform="translate(-571.813 -400.844)"/>
</svg>
