<svg xmlns="http://www.w3.org/2000/svg" width="17.5" height="17.5" viewBox="0 0 17.5 17.5">
  <defs>
    <style>
      .cls-1 {
        fill: #f4f4f6;
        fill-rule: evenodd;
      }
    </style>
  </defs>
  <path id="Forma_1" data-name="Forma 1" class="cls-1" d="M490.79,409a8.75,8.75,0,1,0,8.75,8.75A8.76,8.76,0,0,0,490.79,409Zm3.539,11.258a0.365,0.365,0,0,1,0,.515l-0.515.516a0.366,0.366,0,0,1-.516,0l-2.508-2.508-2.508,2.508a0.366,0.366,0,0,1-.516,0l-0.515-.516a0.365,0.365,0,0,1,0-.515l2.508-2.508-2.508-2.508a0.366,0.366,0,0,1,0-.516l0.515-.515a0.364,0.364,0,0,1,.516,0l2.508,2.508,2.508-2.508a0.364,0.364,0,0,1,.516,0l0.515,0.515a0.366,0.366,0,0,1,0,.516l-2.508,2.508Z" transform="translate(-482.031 -409)"/>
</svg>
