<svg xmlns="http://www.w3.org/2000/svg" width="20.5" height="15.594" viewBox="0 0 20.5 15.594">
  <defs>
    <style>
      .cls-1 {
        fill: #fff;
        fill-rule: evenodd;
      }
    </style>
  </defs>
  <path id="Forma_1" data-name="Forma 1" class="cls-1" d="M1397.63,46.346h-16.88a1.8,1.8,0,0,0-1.8,1.8v12a1.8,1.8,0,0,0,1.8,1.8h16.88a1.8,1.8,0,0,0,1.8-1.8v-12A1.8,1.8,0,0,0,1397.63,46.346Zm-0.25,1.2-8.15,8.156L1381,47.546h16.38ZM1380.15,59.9V48.389l5.78,5.731Zm0.84,0.849,5.79-5.785,2.03,2.01a0.592,0.592,0,0,0,.84,0L1391.63,55l5.75,5.753h-16.39Zm17.24-.849-5.75-5.753,5.75-5.753V59.9Z" transform="translate(-1378.94 -46.344)"/>
</svg>
