<svg xmlns="http://www.w3.org/2000/svg" width="17" height="17" viewBox="0 0 17 17">
  <defs>
    <style>
      .cls-1 {
        fill: #299bfd;
        fill-rule: evenodd;
      }
    </style>
  </defs>
  <path class="cls-1" d="M628.665,1016.97a8.5,8.5,0,1,0,8.5,8.5A8.5,8.5,0,0,0,628.665,1016.97Zm3.675,10.12h-3.6c-0.012,0-.023-0.01-0.035-0.01s-0.023.01-.036,0.01a0.592,0.592,0,0,1-.587-0.59v-6a0.588,0.588,0,1,1,1.175,0v5.41h3.087a0.586,0.586,0,0,1,.588.59A0.593,0.593,0,0,1,632.34,1027.09Z" transform="translate(-620.156 -1016.97)"/>
</svg>
