<svg xmlns="http://www.w3.org/2000/svg" width="15.75" height="13.937" viewBox="0 0 15.75 13.937">
  <defs>
    <style>
      .cls-1 {
        fill: #161616;
        fill-rule: evenodd;
      }
    </style>
  </defs>
  <path id="Like" class="cls-1" d="M351.675,141.089a3.974,3.974,0,0,0-6.342.455,6.081,6.081,0,0,0-.392.637,6.271,6.271,0,0,0-.393-0.637,3.974,3.974,0,0,0-6.342-.455,4.773,4.773,0,0,0-1.15,3.172,5.849,5.849,0,0,0,1.612,3.839,35.925,35.925,0,0,0,4.035,3.767c0.61,0.52,1.241,1.057,1.913,1.644l0.02,0.018a0.464,0.464,0,0,0,.609,0l0.02-.018c0.672-.587,1.3-1.124,1.914-1.644a36.013,36.013,0,0,0,4.035-3.767,5.849,5.849,0,0,0,1.612-3.839A4.774,4.774,0,0,0,351.675,141.089Zm-5.1,10.075c-0.526.448-1.067,0.909-1.638,1.405-0.571-.5-1.113-0.957-1.639-1.405-3.205-2.729-5.322-4.532-5.322-6.9a3.855,3.855,0,0,1,.919-2.562,3.051,3.051,0,0,1,4.895.379,5.476,5.476,0,0,1,.707,1.406,0.463,0.463,0,0,0,.879,0,5.476,5.476,0,0,1,.707-1.406,3.051,3.051,0,0,1,4.9-.379,3.856,3.856,0,0,1,.92,2.562C351.9,146.632,349.784,148.435,346.579,151.164Z" transform="translate(-337.063 -139.719)"/>
</svg>
