<svg xmlns="http://www.w3.org/2000/svg" width="19" height="19" viewBox="0 0 19 19">
  <defs>
    <style>
      .cls-1 {
        fill: #6b9e2f;
        fill-rule: evenodd;
      }
    </style>
  </defs>
  <path id="Forma_1" data-name="Forma 1" class="cls-1" d="M676,865.5a9.5,9.5,0,1,0,9.5,9.5A9.51,9.51,0,0,0,676,865.5Zm5.426,6.777-6.846,6.845a0.791,0.791,0,0,1-1.119,0l-3.678-3.679a0.4,0.4,0,0,1,0-.56l0.559-.559a0.4,0.4,0,0,1,.56,0l3.119,3.118,6.285-6.285a0.4,0.4,0,0,1,.56,0l0.56,0.56A0.4,0.4,0,0,1,681.426,872.277Z" transform="translate(-666.5 -865.5)"/>
</svg>
