<svg xmlns="http://www.w3.org/2000/svg" width="25.25" height="22.312" viewBox="0 0 25.25 22.312">
  <defs>
    <style>
      .cls-1 {
        fill: #161616;
        fill-rule: evenodd;
      }
    </style>
  </defs>
  <path id="like" class="cls-1" d="M1187.46,865.912a6.358,6.358,0,0,0-10.15.73,8.316,8.316,0,0,0-.63,1.019,9.757,9.757,0,0,0-.63-1.019,6.368,6.368,0,0,0-10.16-.73,7.686,7.686,0,0,0-1.84,5.081,9.371,9.371,0,0,0,2.58,6.147,57.552,57.552,0,0,0,6.47,6.032c0.97,0.832,1.98,1.693,3.06,2.634l0.03,0.028a0.735,0.735,0,0,0,.49.183,0.754,0.754,0,0,0,.49-0.183l0.03-.028c1.07-.941,2.08-1.8,3.06-2.634a57.357,57.357,0,0,0,6.46-6.032,9.336,9.336,0,0,0,2.59-6.147A7.643,7.643,0,0,0,1187.46,865.912Zm-8.16,16.135c-0.84.717-1.71,1.455-2.62,2.25-0.92-.794-1.78-1.533-2.63-2.25-5.13-4.371-8.52-7.258-8.52-11.054a6.167,6.167,0,0,1,1.47-4.1,4.887,4.887,0,0,1,7.84.607,8.785,8.785,0,0,1,1.14,2.251,0.727,0.727,0,0,0,.7.51,0.737,0.737,0,0,0,.7-0.51,9,9,0,0,1,1.13-2.251,5.013,5.013,0,0,1,4.09-2.3,4.927,4.927,0,0,1,3.75,1.689,6.175,6.175,0,0,1,1.48,4.1C1187.83,874.789,1184.44,877.676,1179.3,882.047Z" transform="translate(-1164.06 -863.719)"/>
</svg>
