<svg xmlns="http://www.w3.org/2000/svg" width="15.688" height="16.062" viewBox="0 0 15.688 16.062">
  <defs>
    <style>
      .cls-1 {
        fill: #299bfd;
        fill-rule: evenodd;
      }
    </style>
  </defs>
  <path id="Forma_1" data-name="Forma 1" class="cls-1" d="M740.751,866.306h-3.159v-1.333H736.45v1.333h-5.938v-1.333H729.37v1.333h-3.159a0.561,0.561,0,0,0-.571.571v13.578a0.561,0.561,0,0,0,.571.571h14.54a0.561,0.561,0,0,0,.571-0.571V866.877A0.572,0.572,0,0,0,740.751,866.306Zm-11.209,11.787a1.124,1.124,0,1,1,1.123-1.124A1.113,1.113,0,0,1,729.542,878.093Zm0-3.352a1.124,1.124,0,1,1,1.123-1.123A1.113,1.113,0,0,1,729.542,874.741Zm3.939,3.352a1.124,1.124,0,1,1,1.123-1.124A1.125,1.125,0,0,1,733.481,878.093Zm0-3.352a1.124,1.124,0,1,1,1.123-1.123A1.125,1.125,0,0,1,733.481,874.741Zm3.94,3.352a1.124,1.124,0,1,1,1.123-1.124A1.113,1.113,0,0,1,737.421,878.093Zm0-3.352a1.124,1.124,0,1,1,1.123-1.123A1.113,1.113,0,0,1,737.421,874.741Zm2.759-5.274V869.7h-13.4v-2.247h2.588v1.371h1.142v-1.371h5.938v1.371h1.142v-1.371h2.588v2.019h0Z" transform="translate(-725.625 -864.969)"/>
</svg>
