<svg xmlns="http://www.w3.org/2000/svg" width="44" height="44" viewBox="0 0 44 44">
  <defs>
    <style>
      .cls-1 {
        fill: #299bfd;
        fill-rule: evenodd;
      }
    </style>
  </defs>
  <path id="Play" class="cls-1" d="M652.166,1529.16a22,22,0,1,0,22,22A22.025,22.025,0,0,0,652.166,1529.16Zm8.746,22.77-12.834,8.25a0.973,0.973,0,0,1-.5.14,0.856,0.856,0,0,1-.439-0.11,0.912,0.912,0,0,1-.478-0.8v-16.5a0.916,0.916,0,0,1,.478-0.81,0.9,0.9,0,0,1,.934.04l12.834,8.25a0.9,0.9,0,0,1,.421.77A0.922,0.922,0,0,1,660.912,1551.93Z" transform="translate(-630.156 -1529.16)"/>
</svg>
