<svg xmlns="http://www.w3.org/2000/svg" width="19.656" height="12.562" viewBox="0 0 19.656 12.562">
  <defs>
    <style>
      .cls-1 {
        fill: #299bfd;
        fill-rule: evenodd;
      }
    </style>
  </defs>
  <path id="Forma_1" data-name="Forma 1" class="cls-1" d="M429.514,879.181a1.424,1.424,0,0,0-.769-0.767v-4.973a0.851,0.851,0,0,0,.132-0.329,0.594,0.594,0,0,0-.329-0.526l-8.915-3.987a0.511,0.511,0,0,0-.439,0l-8.914,3.987a0.528,0.528,0,0,0-.33.526,0.5,0.5,0,0,0,.374.482l3.052,1.051v3.944a0.547,0.547,0,0,0,.219.438,0.528,0.528,0,0,0,.5.066,15.224,15.224,0,0,1,10.6,0l0.2,0.044a0.527,0.527,0,0,0,.307-0.11,0.5,0.5,0,0,0,.242-0.438v-3.966l2.195-.722v4.513A1.424,1.424,0,1,0,429.514,879.181Z" transform="translate(-409.938 -868.563)"/>
</svg>
