<svg xmlns="http://www.w3.org/2000/svg" width="18.5" height="18.5" viewBox="0 0 18.5 18.5">
  <defs>
    <style>
      .cls-1 {
        fill: #161616;
        fill-rule: evenodd;
      }
    </style>
  </defs>
  <path id="Forma_1" data-name="Forma 1" class="cls-1" d="M301.75,2764.5c-5.108,0-9.249,3.62-9.249,8.09a7.764,7.764,0,0,0,3.468,6.32V2783l4.052-2.46a10.889,10.889,0,0,0,1.729.15c5.108,0,9.248-3.63,9.248-8.1S306.858,2764.5,301.75,2764.5Zm0,15.03a9.6,9.6,0,0,1-1.954-.21l-2.721,1.63,0.036-2.68a6.7,6.7,0,0,1-3.454-5.68c0-3.83,3.623-6.93,8.093-6.93s8.092,3.1,8.092,6.93S306.219,2779.53,301.75,2779.53Z" transform="translate(-292.5 -2764.5)"/>
</svg>
