<svg xmlns="http://www.w3.org/2000/svg" width="44.75" height="44.75" viewBox="0 0 44.75 44.75">
  <defs>
    <style>
      .cls-1 {
        fill: #299bfd;
        fill-rule: evenodd;
      }
    </style>
  </defs>
  <path id="Stop" class="cls-1" d="M652.25,1528.5a22.375,22.375,0,1,0,22.375,22.37A22.4,22.4,0,0,0,652.25,1528.5Zm-1.865,30.77a0.933,0.933,0,0,1-.932.93h-5.594a0.933,0.933,0,0,1-.932-0.93v-16.79a0.933,0.933,0,0,1,.932-0.93h5.594a0.933,0.933,0,0,1,.932.93v16.79h0Zm11.188,0a0.933,0.933,0,0,1-.933.93h-5.593a0.933,0.933,0,0,1-.933-0.93v-16.79a0.933,0.933,0,0,1,.933-0.93h5.593a0.933,0.933,0,0,1,.933.93v16.79Z" transform="translate(-629.875 -1528.5)"/>
</svg>
