<svg xmlns="http://www.w3.org/2000/svg" width="25.25" height="22.312" viewBox="0 0 25.25 22.312">
  <defs>
    <style>
      .cls-1 {
        fill: #3293ef;
        fill-rule: evenodd;
      }
    </style>
  </defs>
  <path id="like_копия_3" data-name="like копия 3" class="cls-1" d="M1336.46,974.912a6.357,6.357,0,0,0-10.15.731,8.308,8.308,0,0,0-.63,1.018,9.748,9.748,0,0,0-.63-1.018,6.366,6.366,0,0,0-10.16-.73,7.684,7.684,0,0,0-1.84,5.08,9.367,9.367,0,0,0,2.58,6.146,57.366,57.366,0,0,0,6.47,6.033c0.97,0.833,1.98,1.693,3.06,2.634l0.03,0.028a0.735,0.735,0,0,0,.49.183,0.754,0.754,0,0,0,.49-0.183l0.03-.028c1.07-.941,2.08-1.8,3.06-2.634a57.172,57.172,0,0,0,6.46-6.033,9.332,9.332,0,0,0,2.59-6.146A7.645,7.645,0,0,0,1336.46,974.912Z" transform="translate(-1313.06 -972.719)"/>
</svg>
