<svg xmlns="http://www.w3.org/2000/svg" xmlns:xlink="http://www.w3.org/1999/xlink" width="26.531" height="15.22" viewBox="0 0 26.531 15.22">
  <defs>
    <style>
      .cls-1 {
        fill: #fff;
        fill-rule: evenodd;
        filter: url(#filter);
      }
    </style>
    <filter id="filter" x="726.125" y="3248.66" width="26.531" height="15.22" filterUnits="userSpaceOnUse">
      <feFlood result="flood" flood-color="#b9b9b9"/>
      <feComposite result="composite" operator="in" in2="SourceGraphic"/>
      <feBlend result="blend" in2="SourceGraphic"/>
    </filter>
  </defs>
  <path id="Фигура_1" data-name="Фигура 1" class="cls-1" d="M739.1,3263.81h1.586a1.305,1.305,0,0,0,.724-0.32,1.167,1.167,0,0,0,.218-0.7s-0.031-2.14.956-2.45,2.224,2.06,3.549,2.98a2.514,2.514,0,0,0,1.764.54l3.543-.05s1.854-.11.975-1.58a11.825,11.825,0,0,0-2.635-3.07c-2.222-2.07-1.924-1.74.752-5.32,1.63-2.19,2.282-3.52,2.078-4.1-0.194-.54-1.393-0.4-1.393-0.4l-3.989.03a0.916,0.916,0,0,0-.516.09,1.13,1.13,0,0,0-.352.43,23.383,23.383,0,0,1-1.473,3.13c-1.777,3.03-2.487,3.2-2.777,3.01-0.676-.44-0.507-1.77-0.507-2.71,0-2.94.443-4.17-.864-4.48a6.493,6.493,0,0,0-1.862-.19,8.572,8.572,0,0,0-3.31.34c-0.454.23-.8,0.72-0.591,0.75a1.784,1.784,0,0,1,1.177.6,3.874,3.874,0,0,1,.395,1.81s0.235,3.46-.549,3.89c-0.538.3-1.275-.3-2.859-3.06a25.983,25.983,0,0,1-1.424-2.96,1.147,1.147,0,0,0-.329-0.45,1.637,1.637,0,0,0-.613-0.25l-3.791.02a1.3,1.3,0,0,0-.778.27,0.838,0.838,0,0,0-.015.68s2.968,6.98,6.329,10.5A9.079,9.079,0,0,0,739.1,3263.81Z" transform="translate(-726.125 -3248.66)"/>
</svg>
